<svg width="523" height="278" viewBox="0 0 523 278" fill="none" xmlns="http://www.w3.org/2000/svg">
<g clip-path="url(#clip0_2001_3900)">
<rect x="1" y="1" width="521" height="276" rx="23" fill="url(#paint0_linear_2001_3900)"/>
<g clip-path="url(#clip1_2001_3900)">
<rect x="212.375" y="-18.7529" width="140.175" height="72.3536" rx="6.96848" fill="#10132E"/>
<path d="M255.458 22.7134V12.5774H259.259C260.037 12.5774 260.691 12.7127 261.219 12.9832C261.75 13.2538 262.151 13.6332 262.421 14.1216C262.695 14.6066 262.832 15.1724 262.832 15.8191C262.832 16.4691 262.694 17.0333 262.416 17.5118C262.143 17.9869 261.738 18.3548 261.204 18.6154C260.669 18.8728 260.013 19.0015 259.234 19.0015H256.527V17.4771H258.987C259.442 17.4771 259.815 17.4144 260.105 17.289C260.395 17.1604 260.61 16.9739 260.749 16.7298C260.89 16.4823 260.961 16.1788 260.961 15.8191C260.961 15.4595 260.89 15.1526 260.749 14.8986C260.607 14.6412 260.391 14.4466 260.1 14.3146C259.81 14.1793 259.435 14.1117 258.977 14.1117H257.294V22.7134H255.458ZM260.694 18.1205L263.203 22.7134H261.154L258.69 18.1205H260.694ZM267.7 22.8619C266.937 22.8619 266.279 22.7035 265.725 22.3867C265.174 22.0667 264.75 21.6147 264.453 21.0306C264.156 20.4433 264.008 19.7521 264.008 18.9569C264.008 18.175 264.156 17.4887 264.453 16.8981C264.753 16.3042 265.172 15.8422 265.71 15.5123C266.248 15.179 266.88 15.0124 267.606 15.0124C268.074 15.0124 268.516 15.0883 268.932 15.2401C269.351 15.3886 269.721 15.6195 270.041 15.933C270.364 16.2464 270.618 16.6457 270.803 17.1307C270.988 17.6124 271.08 18.1865 271.08 18.853V19.4024H264.849V18.1948H269.363C269.359 17.8516 269.285 17.5464 269.14 17.2791C268.995 17.0086 268.792 16.7958 268.531 16.6407C268.274 16.4856 267.974 16.4081 267.63 16.4081C267.264 16.4081 266.942 16.4972 266.665 16.6753C266.388 16.8502 266.172 17.0812 266.017 17.3682C265.865 17.652 265.788 17.9638 265.784 18.3036V19.3578C265.784 19.7999 265.865 20.1794 266.027 20.4961C266.189 20.8096 266.415 21.0504 266.705 21.2187C266.995 21.3837 267.335 21.4662 267.724 21.4662C267.985 21.4662 268.221 21.4299 268.432 21.3573C268.643 21.2814 268.826 21.1709 268.982 21.0257C269.137 20.8805 269.254 20.7007 269.333 20.4862L271.006 20.6743C270.9 21.1164 270.699 21.5025 270.402 21.8324C270.108 22.1591 269.732 22.4131 269.274 22.5946C268.815 22.7728 268.29 22.8619 267.7 22.8619ZM274.783 22.8668C274.301 22.8668 273.868 22.781 273.482 22.6094C273.099 22.4346 272.795 22.1772 272.571 21.8374C272.35 21.4975 272.239 21.0785 272.239 20.5803C272.239 20.1513 272.319 19.7966 272.477 19.5162C272.635 19.2357 272.851 19.0114 273.125 18.8431C273.399 18.6748 273.708 18.5478 274.051 18.462C274.397 18.3729 274.755 18.3086 275.125 18.269C275.57 18.2228 275.931 18.1816 276.209 18.1453C276.486 18.1057 276.687 18.0463 276.812 17.9671C276.941 17.8846 277.005 17.7576 277.005 17.586V17.5563C277.005 17.1835 276.895 16.8948 276.674 16.6902C276.453 16.4856 276.134 16.3833 275.719 16.3833C275.28 16.3833 274.932 16.479 274.674 16.6704C274.42 16.8618 274.249 17.0878 274.16 17.3484L272.487 17.1109C272.619 16.649 272.837 16.2629 273.14 15.9528C273.444 15.6393 273.815 15.4051 274.254 15.25C274.692 15.0916 275.178 15.0124 275.709 15.0124C276.075 15.0124 276.44 15.0553 276.802 15.1411C277.165 15.2269 277.497 15.3688 277.797 15.5667C278.098 15.7614 278.338 16.027 278.52 16.3635C278.705 16.7001 278.797 17.1208 278.797 17.6256V22.7134H277.075V21.6691H277.015C276.906 21.8803 276.753 22.0782 276.555 22.263C276.36 22.4445 276.115 22.5913 275.818 22.7035C275.524 22.8124 275.179 22.8668 274.783 22.8668ZM275.248 21.5503C275.608 21.5503 275.92 21.4794 276.184 21.3375C276.448 21.1923 276.651 21.001 276.793 20.7634C276.938 20.5258 277.01 20.2668 277.01 19.9864V19.0906C276.954 19.1368 276.859 19.1796 276.723 19.2192C276.591 19.2588 276.443 19.2935 276.278 19.3232C276.113 19.3529 275.95 19.3793 275.788 19.4024C275.626 19.4255 275.486 19.4453 275.367 19.4617C275.1 19.498 274.861 19.5574 274.65 19.6399C274.438 19.7224 274.272 19.8379 274.15 19.9864C274.028 20.1315 273.967 20.3196 273.967 20.5506C273.967 20.8805 274.087 21.1296 274.328 21.2979C274.569 21.4662 274.876 21.5503 275.248 21.5503ZM283.914 22.8619C283.156 22.8619 282.504 22.6952 281.96 22.362C281.418 22.0287 281.001 21.5685 280.707 20.9812C280.417 20.3906 280.272 19.7109 280.272 18.9421C280.272 18.17 280.42 17.4887 280.717 16.8981C281.014 16.3042 281.433 15.8422 281.974 15.5123C282.519 15.179 283.162 15.0124 283.905 15.0124C284.522 15.0124 285.068 15.1262 285.543 15.3539C286.021 15.5783 286.402 15.8967 286.686 16.3091C286.97 16.7182 287.131 17.1967 287.171 17.7444H285.459C285.389 17.3781 285.224 17.0729 284.964 16.8288C284.706 16.5813 284.362 16.4576 283.929 16.4576C283.563 16.4576 283.241 16.5566 282.964 16.7545C282.687 16.9492 282.471 17.2297 282.316 17.5959C282.164 17.9621 282.088 18.401 282.088 18.9124C282.088 19.4304 282.164 19.8758 282.316 20.2487C282.468 20.6182 282.68 20.9036 282.954 21.1049C283.232 21.3029 283.557 21.4018 283.929 21.4018C284.193 21.4018 284.429 21.3523 284.637 21.2534C284.848 21.1511 285.025 21.0043 285.167 20.8129C285.309 20.6215 285.406 20.3889 285.459 20.115H287.171C287.128 20.6529 286.97 21.1296 286.696 21.5454C286.422 21.9578 286.049 22.2811 285.577 22.5154C285.106 22.7464 284.551 22.8619 283.914 22.8619ZM292.438 15.1114V16.4972H288.068V15.1114H292.438ZM289.147 13.2901H290.939V20.4268C290.939 20.6677 290.975 20.8525 291.048 20.9812C291.123 21.1065 291.222 21.1923 291.344 21.2385C291.467 21.2847 291.602 21.3078 291.75 21.3078C291.863 21.3078 291.965 21.2996 292.057 21.2831C292.153 21.2666 292.225 21.2517 292.275 21.2385L292.577 22.6391C292.481 22.6721 292.344 22.7084 292.166 22.748C291.991 22.7876 291.777 22.8107 291.523 22.8173C291.074 22.8305 290.67 22.7629 290.31 22.6144C289.95 22.4626 289.665 22.2284 289.454 21.9116C289.246 21.5949 289.144 21.1989 289.147 20.7238V13.2901ZM298.015 12.5774H299.836V19.7043C299.833 20.3576 299.694 20.9201 299.42 21.3919C299.147 21.8605 298.764 22.2218 298.272 22.4758C297.784 22.7266 297.215 22.852 296.565 22.852C295.971 22.852 295.436 22.7464 294.961 22.5352C294.489 22.3207 294.115 22.004 293.838 21.585C293.561 21.1659 293.422 20.6446 293.422 20.021H295.248C295.251 20.2949 295.311 20.5308 295.426 20.7287C295.545 20.9267 295.708 21.0785 295.916 21.1841C296.124 21.2897 296.363 21.3424 296.634 21.3424C296.928 21.3424 297.177 21.2814 297.381 21.1593C297.586 21.0339 297.741 20.8492 297.847 20.605C297.955 20.3609 298.011 20.0606 298.015 19.7043V12.5774ZM307.337 15.3638C307.29 14.9316 307.096 14.595 306.753 14.3542C306.413 14.1133 305.971 13.9929 305.426 13.9929C305.043 13.9929 304.715 14.0506 304.441 14.1661C304.167 14.2816 303.958 14.4383 303.813 14.6363C303.668 14.8342 303.593 15.0603 303.59 15.3143C303.59 15.5255 303.638 15.7086 303.734 15.8637C303.833 16.0188 303.966 16.1507 304.134 16.2596C304.303 16.3652 304.489 16.4543 304.694 16.5269C304.898 16.5995 305.105 16.6605 305.312 16.71L306.263 16.9476C306.645 17.0366 307.013 17.1571 307.366 17.3088C307.723 17.4606 308.041 17.652 308.322 17.883C308.605 18.1139 308.83 18.3927 308.995 18.7194C309.16 19.046 309.242 19.4288 309.242 19.8676C309.242 20.4615 309.09 20.9845 308.787 21.4365C308.483 21.8852 308.044 22.2366 307.47 22.4907C306.899 22.7414 306.208 22.8668 305.397 22.8668C304.608 22.8668 303.923 22.7447 303.343 22.5006C302.765 22.2564 302.313 21.9001 301.987 21.4315C301.663 20.963 301.488 20.3922 301.462 19.7191H303.268C303.295 20.0722 303.404 20.3658 303.595 20.6001C303.786 20.8343 304.035 21.0092 304.342 21.1247C304.652 21.2402 304.999 21.2979 305.382 21.2979C305.781 21.2979 306.131 21.2385 306.431 21.1197C306.734 20.9977 306.972 20.8294 307.144 20.6149C307.315 20.3972 307.403 20.1431 307.406 19.8527C307.403 19.5888 307.325 19.371 307.173 19.1994C307.022 19.0246 306.809 18.8794 306.535 18.7639C306.264 18.6451 305.948 18.5395 305.585 18.4472L304.431 18.1502C303.597 17.9357 302.937 17.6107 302.452 17.1752C301.97 16.7364 301.729 16.154 301.729 15.4281C301.729 14.8309 301.891 14.308 302.214 13.8592C302.541 13.4105 302.985 13.0624 303.546 12.815C304.106 12.5642 304.742 12.4388 305.451 12.4388C306.17 12.4388 306.8 12.5642 307.342 12.815C307.886 13.0624 308.313 13.4072 308.623 13.8493C308.934 14.2882 309.094 14.793 309.103 15.3638H307.337Z" fill="white"/>
<rect x="212.375" y="65.7954" width="140.175" height="72.3536" rx="6.96848" fill="#10132E"/>
<path d="M278.503 100.545H276.652C276.599 100.242 276.501 99.9729 276.36 99.7387C276.218 99.5011 276.041 99.2999 275.83 99.1349C275.619 98.9699 275.378 98.8462 275.107 98.7637C274.84 98.6779 274.551 98.635 274.241 98.635C273.69 98.635 273.202 98.7736 272.776 99.0507C272.351 99.3246 272.017 99.7271 271.777 100.258C271.536 100.786 271.415 101.431 271.415 102.193C271.415 102.969 271.536 103.622 271.777 104.153C272.021 104.681 272.354 105.081 272.776 105.351C273.202 105.618 273.689 105.752 274.236 105.752C274.54 105.752 274.824 105.712 275.088 105.633C275.355 105.551 275.594 105.43 275.805 105.272C276.02 105.114 276.2 104.919 276.345 104.688C276.493 104.457 276.595 104.193 276.652 103.896L278.503 103.906C278.433 104.388 278.283 104.84 278.052 105.262C277.825 105.684 277.526 106.057 277.156 106.381C276.787 106.701 276.355 106.951 275.86 107.133C275.365 107.311 274.815 107.4 274.212 107.4C273.321 107.4 272.526 107.194 271.826 106.781C271.127 106.369 270.576 105.773 270.173 104.995C269.771 104.216 269.569 103.282 269.569 102.193C269.569 101.101 269.772 100.168 270.178 99.3922C270.584 98.6136 271.137 98.018 271.836 97.6056C272.535 97.1931 273.327 96.9869 274.212 96.9869C274.776 96.9869 275.3 97.0661 275.785 97.2245C276.27 97.3829 276.703 97.6155 277.082 97.9223C277.462 98.2259 277.773 98.5987 278.018 99.0408C278.265 99.4797 278.427 99.9812 278.503 100.545ZM285.693 99.9119C285.646 99.4797 285.452 99.1431 285.109 98.9023C284.769 98.6614 284.327 98.541 283.782 98.541C283.399 98.541 283.071 98.5987 282.797 98.7142C282.523 98.8297 282.314 98.9864 282.169 99.1844C282.024 99.3823 281.949 99.6084 281.946 99.8624C281.946 100.074 281.994 100.257 282.09 100.412C282.189 100.567 282.322 100.699 282.49 100.808C282.659 100.913 282.845 101.002 283.05 101.075C283.254 101.148 283.46 101.209 283.668 101.258L284.619 101.496C285.001 101.585 285.369 101.705 285.722 101.857C286.079 102.009 286.397 102.2 286.677 102.431C286.961 102.662 287.186 102.941 287.351 103.267C287.515 103.594 287.598 103.977 287.598 104.416C287.598 105.01 287.446 105.533 287.143 105.985C286.839 106.433 286.4 106.785 285.826 107.039C285.255 107.29 284.564 107.415 283.752 107.415C282.964 107.415 282.279 107.293 281.699 107.049C281.121 106.804 280.669 106.448 280.342 105.98C280.019 105.511 279.844 104.94 279.818 104.267H281.624C281.651 104.62 281.76 104.914 281.951 105.148C282.142 105.382 282.391 105.557 282.698 105.673C283.008 105.788 283.355 105.846 283.738 105.846C284.137 105.846 284.487 105.787 284.787 105.668C285.09 105.546 285.328 105.377 285.5 105.163C285.671 104.945 285.759 104.691 285.762 104.401C285.759 104.137 285.681 103.919 285.529 103.748C285.377 103.573 285.165 103.427 284.891 103.312C284.62 103.193 284.303 103.088 283.941 102.995L282.787 102.698C281.953 102.484 281.293 102.159 280.808 101.723C280.326 101.284 280.085 100.702 280.085 99.9762C280.085 99.379 280.247 98.8561 280.57 98.4073C280.897 97.9586 281.341 97.6105 281.901 97.3631C282.462 97.1123 283.098 96.9869 283.807 96.9869C284.526 96.9869 285.156 97.1123 285.697 97.3631C286.242 97.6105 286.669 97.9553 286.979 98.3974C287.289 98.8363 287.45 99.3411 287.459 99.9119H285.693ZM294.743 99.9119C294.697 99.4797 294.503 99.1431 294.159 98.9023C293.82 98.6614 293.377 98.541 292.833 98.541C292.45 98.541 292.122 98.5987 291.848 98.7142C291.574 98.8297 291.365 98.9864 291.22 99.1844C291.074 99.3823 291 99.6084 290.997 99.8624C290.997 100.074 291.045 100.257 291.14 100.412C291.239 100.567 291.373 100.699 291.541 100.808C291.71 100.913 291.896 101.002 292.101 101.075C292.305 101.148 292.511 101.209 292.719 101.258L293.669 101.496C294.052 101.585 294.42 101.705 294.773 101.857C295.129 102.009 295.448 102.2 295.728 102.431C296.012 102.662 296.236 102.941 296.401 103.267C296.566 103.594 296.649 103.977 296.649 104.416C296.649 105.01 296.497 105.533 296.194 105.985C295.89 106.433 295.451 106.785 294.877 107.039C294.306 107.29 293.615 107.415 292.803 107.415C292.015 107.415 291.33 107.293 290.749 107.049C290.172 106.804 289.72 106.448 289.393 105.98C289.07 105.511 288.895 104.94 288.869 104.267H290.675C290.702 104.62 290.81 104.914 291.002 105.148C291.193 105.382 291.442 105.557 291.749 105.673C292.059 105.788 292.406 105.846 292.788 105.846C293.188 105.846 293.537 105.787 293.838 105.668C294.141 105.546 294.379 105.377 294.55 105.163C294.722 104.945 294.809 104.691 294.813 104.401C294.809 104.137 294.732 103.919 294.58 103.748C294.428 103.573 294.215 103.427 293.942 103.312C293.671 103.193 293.354 103.088 292.991 102.995L291.838 102.698C291.003 102.484 290.344 102.159 289.859 101.723C289.377 101.284 289.136 100.702 289.136 99.9762C289.136 99.379 289.298 98.8561 289.621 98.4073C289.948 97.9586 290.391 97.6105 290.952 97.3631C291.513 97.1123 292.148 96.9869 292.858 96.9869C293.577 96.9869 294.207 97.1123 294.748 97.3631C295.293 97.6105 295.72 97.9553 296.03 98.3974C296.34 98.8363 296.5 99.3411 296.51 99.9119H294.743Z" fill="white"/>
<rect x="212.375" y="150.344" width="140.175" height="72.3536" rx="6.96848" fill="#10132E"/>
<path d="M264.105 191.81V181.674H265.941V185.965H270.638V181.674H272.479V191.81H270.638V187.504H265.941V191.81H264.105ZM274.03 183.213V181.674H282.117V183.213H278.984V191.81H277.163V183.213H274.03ZM283.676 181.674H285.923L288.932 189.019H289.051L292.06 181.674H294.307V191.81H292.545V184.847H292.451L289.65 191.78H288.334L285.532 184.832H285.438V191.81H283.676V181.674ZM296.307 191.81V181.674H298.143V190.271H302.607V191.81H296.307Z" fill="white"/>
<rect x="212.375" y="234.892" width="140.175" height="72.3536" rx="6.96848" fill="#10132E"/>
<path d="M268.269 266.223V276.359H266.636L261.86 269.454H261.776V276.359H259.94V266.223H261.583L266.354 273.132H266.443V266.223H268.269ZM273.556 276.507C272.794 276.507 272.136 276.349 271.582 276.032C271.031 275.712 270.607 275.26 270.31 274.676C270.013 274.089 269.864 273.397 269.864 272.602C269.864 271.82 270.013 271.134 270.31 270.543C270.61 269.949 271.029 269.487 271.567 269.158C272.105 268.824 272.737 268.658 273.462 268.658C273.931 268.658 274.373 268.734 274.789 268.885C275.208 269.034 275.577 269.265 275.897 269.578C276.221 269.892 276.475 270.291 276.66 270.776C276.844 271.258 276.937 271.832 276.937 272.498V273.048H270.706V271.84H275.219C275.216 271.497 275.142 271.192 274.997 270.924C274.851 270.654 274.649 270.441 274.388 270.286C274.131 270.131 273.83 270.053 273.487 270.053C273.121 270.053 272.799 270.142 272.522 270.321C272.245 270.495 272.029 270.726 271.874 271.013C271.722 271.297 271.644 271.609 271.641 271.949V273.003C271.641 273.445 271.722 273.825 271.884 274.141C272.045 274.455 272.271 274.696 272.562 274.864C272.852 275.029 273.192 275.111 273.581 275.111C273.842 275.111 274.078 275.075 274.289 275.003C274.5 274.927 274.683 274.816 274.838 274.671C274.993 274.526 275.11 274.346 275.19 274.131L276.862 274.32C276.757 274.762 276.556 275.148 276.259 275.478C275.965 275.804 275.589 276.058 275.13 276.24C274.672 276.418 274.147 276.507 273.556 276.507ZM279.754 268.757L281.288 271.563L282.847 268.757H284.743L282.451 272.558L284.782 276.359H282.897L281.288 273.622L279.695 276.359H277.794L280.11 272.558L277.854 268.757H279.754ZM289.925 268.757V270.142H285.555V268.757H289.925ZM286.633 266.935H288.425V274.072C288.425 274.313 288.461 274.498 288.534 274.626C288.61 274.752 288.709 274.838 288.831 274.884C288.953 274.93 289.088 274.953 289.237 274.953C289.349 274.953 289.451 274.945 289.544 274.928C289.639 274.912 289.712 274.897 289.761 274.884L290.063 276.284C289.968 276.317 289.831 276.354 289.652 276.393C289.478 276.433 289.263 276.456 289.009 276.463C288.56 276.476 288.156 276.408 287.797 276.26C287.437 276.108 287.151 275.874 286.94 275.557C286.732 275.24 286.63 274.844 286.633 274.369V266.935ZM295.501 266.223H297.323V273.35C297.319 274.003 297.181 274.565 296.907 275.037C296.633 275.506 296.25 275.867 295.759 276.121C295.27 276.372 294.701 276.497 294.051 276.497C293.457 276.497 292.923 276.392 292.448 276.18C291.976 275.966 291.601 275.649 291.324 275.23C291.047 274.811 290.908 274.29 290.908 273.666H292.735C292.738 273.94 292.797 274.176 292.913 274.374C293.032 274.572 293.195 274.724 293.403 274.829C293.611 274.935 293.85 274.988 294.12 274.988C294.414 274.988 294.663 274.927 294.868 274.805C295.072 274.679 295.227 274.494 295.333 274.25C295.442 274.006 295.498 273.706 295.501 273.35V266.223ZM304.823 269.009C304.777 268.577 304.582 268.24 304.239 267.999C303.899 267.759 303.457 267.638 302.913 267.638C302.53 267.638 302.202 267.696 301.928 267.811C301.654 267.927 301.444 268.084 301.299 268.282C301.154 268.48 301.08 268.706 301.076 268.96C301.076 269.171 301.124 269.354 301.22 269.509C301.319 269.664 301.453 269.796 301.621 269.905C301.789 270.01 301.976 270.1 302.18 270.172C302.385 270.245 302.591 270.306 302.799 270.355L303.749 270.593C304.132 270.682 304.5 270.802 304.853 270.954C305.209 271.106 305.527 271.297 305.808 271.528C306.092 271.759 306.316 272.038 306.481 272.365C306.646 272.691 306.728 273.074 306.728 273.513C306.728 274.107 306.577 274.63 306.273 275.082C305.97 275.53 305.531 275.882 304.957 276.136C304.386 276.387 303.695 276.512 302.883 276.512C302.094 276.512 301.41 276.39 300.829 276.146C300.252 275.902 299.8 275.545 299.473 275.077C299.15 274.608 298.975 274.037 298.948 273.364H300.755C300.781 273.717 300.89 274.011 301.081 274.245C301.273 274.48 301.522 274.654 301.829 274.77C302.139 274.885 302.485 274.943 302.868 274.943C303.267 274.943 303.617 274.884 303.917 274.765C304.221 274.643 304.458 274.475 304.63 274.26C304.802 274.042 304.889 273.788 304.892 273.498C304.889 273.234 304.811 273.016 304.66 272.845C304.508 272.67 304.295 272.525 304.021 272.409C303.751 272.29 303.434 272.185 303.071 272.092L301.918 271.795C301.083 271.581 300.423 271.256 299.938 270.82C299.456 270.382 299.216 269.799 299.216 269.073C299.216 268.476 299.377 267.953 299.701 267.505C300.027 267.056 300.471 266.708 301.032 266.46C301.593 266.209 302.228 266.084 302.937 266.084C303.657 266.084 304.287 266.209 304.828 266.46C305.372 266.708 305.8 267.052 306.11 267.495C306.42 267.933 306.58 268.438 306.59 269.009H304.823Z" fill="white"/>
</g>
<g clip-path="url(#clip2_2001_3900)">
<rect x="362.197" y="-54.7568" width="140.175" height="72.3536" rx="6.96848" fill="#10132E"/>
<rect x="362.197" y="29.7915" width="140.175" height="72.3536" rx="6.96848" fill="#10132E"/>
<path d="M429.446 61.1218H431.267V68.2487C431.264 68.902 431.125 69.4645 430.851 69.9364C430.577 70.4049 430.195 70.7662 429.703 71.0203C429.215 71.271 428.645 71.3964 427.995 71.3964C427.402 71.3964 426.867 71.2908 426.392 71.0796C425.92 70.8652 425.546 70.5484 425.268 70.1294C424.991 69.7104 424.853 69.189 424.853 68.5654H426.679C426.682 68.8393 426.742 69.0752 426.857 69.2732C426.976 69.4711 427.139 69.6229 427.347 69.7285C427.555 69.8341 427.794 69.8869 428.065 69.8869C428.358 69.8869 428.608 69.8258 428.812 69.7038C429.017 69.5784 429.172 69.3936 429.277 69.1495C429.386 68.9053 429.442 68.605 429.446 68.2487V61.1218ZM438.767 63.9082C438.721 63.476 438.527 63.1395 438.183 62.8986C437.844 62.6577 437.401 62.5373 436.857 62.5373C436.474 62.5373 436.146 62.5951 435.872 62.7105C435.598 62.826 435.389 62.9827 435.244 63.1807C435.098 63.3787 435.024 63.6047 435.021 63.8587C435.021 64.0699 435.069 64.253 435.164 64.4081C435.263 64.5632 435.397 64.6952 435.565 64.804C435.734 64.9096 435.92 64.9987 436.125 65.0713C436.329 65.1439 436.535 65.2049 436.743 65.2544L437.693 65.492C438.076 65.5811 438.444 65.7015 438.797 65.8533C439.153 66.0051 439.472 66.1964 439.752 66.4274C440.036 66.6583 440.26 66.9372 440.425 67.2638C440.59 67.5905 440.673 67.9732 440.673 68.412C440.673 69.0059 440.521 69.5289 440.218 69.9809C439.914 70.4296 439.475 70.781 438.901 71.0351C438.33 71.2859 437.639 71.4112 436.827 71.4112C436.039 71.4112 435.354 71.2892 434.773 71.045C434.196 70.8008 433.744 70.4445 433.417 69.976C433.094 69.5074 432.919 68.9366 432.893 68.2635H434.699C434.726 68.6166 434.834 68.9102 435.026 69.1445C435.217 69.3788 435.466 69.5536 435.773 69.6691C436.083 69.7846 436.43 69.8423 436.812 69.8423C437.212 69.8423 437.561 69.7829 437.862 69.6642C438.165 69.5421 438.403 69.3738 438.574 69.1593C438.746 68.9416 438.833 68.6875 438.837 68.3972C438.833 68.1332 438.756 67.9154 438.604 67.7439C438.452 67.569 438.24 67.4238 437.966 67.3083C437.695 67.1896 437.378 67.084 437.015 66.9916L435.862 66.6946C435.027 66.4802 434.368 66.1552 433.883 65.7197C433.401 65.2808 433.16 64.6985 433.16 63.9726C433.16 63.3754 433.322 62.8524 433.645 62.4037C433.972 61.955 434.415 61.6069 434.976 61.3594C435.537 61.1086 436.172 60.9833 436.882 60.9833C437.601 60.9833 438.231 61.1086 438.772 61.3594C439.317 61.6069 439.744 61.9517 440.054 62.3938C440.364 62.8326 440.524 63.3374 440.534 63.9082H438.767Z" fill="white"/>
<rect x="362.197" y="114.34" width="140.175" height="72.3536" rx="6.96848" fill="#10132E"/>
<path d="M409.487 155.806V145.67H413.288C414.066 145.67 414.719 145.816 415.247 146.106C415.779 146.396 416.179 146.796 416.45 147.304C416.724 147.808 416.861 148.383 416.861 149.026C416.861 149.676 416.724 150.253 416.45 150.758C416.176 151.263 415.772 151.661 415.237 151.951C414.703 152.238 414.045 152.382 413.263 152.382H410.744V150.872H413.015C413.471 150.872 413.843 150.793 414.134 150.634C414.424 150.476 414.639 150.258 414.777 149.981C414.919 149.704 414.99 149.386 414.99 149.026C414.99 148.666 414.919 148.35 414.777 148.076C414.639 147.802 414.423 147.589 414.129 147.437C413.839 147.282 413.464 147.205 413.005 147.205H411.323V155.806H409.487ZM419.49 158.657C419.246 158.657 419.02 158.637 418.812 158.598C418.607 158.561 418.444 158.519 418.322 158.469L418.738 157.073C418.998 157.149 419.231 157.186 419.436 157.182C419.64 157.179 419.82 157.115 419.975 156.989C420.133 156.867 420.267 156.663 420.376 156.376L420.529 155.965L417.773 148.204H419.673L421.425 153.945H421.504L423.261 148.204H425.167L422.123 156.727C421.981 157.129 421.793 157.474 421.559 157.761C421.325 158.052 421.038 158.273 420.698 158.425C420.361 158.58 419.959 158.657 419.49 158.657ZM430.203 148.204V149.59H425.833V148.204H430.203ZM426.911 146.383H428.703V153.52C428.703 153.761 428.739 153.945 428.812 154.074C428.888 154.2 428.987 154.285 429.109 154.332C429.231 154.378 429.366 154.401 429.515 154.401C429.627 154.401 429.729 154.393 429.822 154.376C429.917 154.36 429.99 154.345 430.039 154.332L430.341 155.732C430.246 155.765 430.109 155.801 429.93 155.841C429.756 155.881 429.541 155.904 429.287 155.91C428.838 155.924 428.434 155.856 428.074 155.707C427.715 155.556 427.429 155.321 427.218 155.005C427.01 154.688 426.908 154.292 426.911 153.817V146.383ZM433.656 151.352V155.806H431.864V145.67H433.616V149.496H433.705C433.884 149.067 434.159 148.729 434.532 148.482C434.908 148.231 435.387 148.105 435.967 148.105C436.495 148.105 436.955 148.216 437.348 148.437C437.741 148.658 438.044 148.981 438.259 149.407C438.476 149.833 438.585 150.352 438.585 150.966V155.806H436.794V151.243C436.794 150.732 436.662 150.334 436.398 150.05C436.137 149.763 435.771 149.62 435.299 149.62C434.982 149.62 434.699 149.689 434.448 149.828C434.2 149.963 434.006 150.159 433.864 150.417C433.725 150.674 433.656 150.986 433.656 151.352ZM443.728 155.955C442.985 155.955 442.342 155.792 441.797 155.465C441.253 155.138 440.831 154.681 440.53 154.094C440.233 153.507 440.085 152.82 440.085 152.035C440.085 151.25 440.233 150.562 440.53 149.971C440.831 149.381 441.253 148.922 441.797 148.595C442.342 148.269 442.985 148.105 443.728 148.105C444.47 148.105 445.113 148.269 445.658 148.595C446.202 148.922 446.623 149.381 446.92 149.971C447.22 150.562 447.37 151.25 447.37 152.035C447.37 152.82 447.22 153.507 446.92 154.094C446.623 154.681 446.202 155.138 445.658 155.465C445.113 155.792 444.47 155.955 443.728 155.955ZM443.737 154.52C444.14 154.52 444.477 154.409 444.747 154.188C445.018 153.964 445.219 153.663 445.351 153.287C445.486 152.911 445.554 152.492 445.554 152.03C445.554 151.565 445.486 151.144 445.351 150.768C445.219 150.389 445.018 150.087 444.747 149.862C444.477 149.638 444.14 149.526 443.737 149.526C443.325 149.526 442.982 149.638 442.708 149.862C442.438 150.087 442.235 150.389 442.099 150.768C441.967 151.144 441.901 151.565 441.901 152.03C441.901 152.492 441.967 152.911 442.099 153.287C442.235 153.663 442.438 153.964 442.708 154.188C442.982 154.409 443.325 154.52 443.737 154.52ZM450.682 151.352V155.806H448.891V148.204H450.603V149.496H450.692C450.867 149.071 451.146 148.732 451.529 148.482C451.915 148.231 452.392 148.105 452.959 148.105C453.484 148.105 453.941 148.218 454.33 148.442C454.723 148.666 455.026 148.991 455.241 149.417C455.458 149.843 455.566 150.359 455.562 150.966V155.806H453.771V151.243C453.771 150.735 453.639 150.338 453.375 150.05C453.114 149.763 452.753 149.62 452.291 149.62C451.978 149.62 451.699 149.689 451.455 149.828C451.214 149.963 451.024 150.159 450.885 150.417C450.75 150.674 450.682 150.986 450.682 151.352Z" fill="white"/>
<rect x="362.197" y="198.888" width="140.175" height="72.3536" rx="6.96848" fill="#10132E"/>
<path d="M425.107 233.005C425.061 232.573 424.867 232.236 424.523 231.996C424.184 231.755 423.741 231.634 423.197 231.634C422.814 231.634 422.486 231.692 422.212 231.807C421.938 231.923 421.729 232.08 421.584 232.278C421.438 232.476 421.364 232.702 421.361 232.956C421.361 233.167 421.409 233.35 421.504 233.505C421.603 233.66 421.737 233.792 421.905 233.901C422.074 234.007 422.26 234.096 422.465 234.168C422.669 234.241 422.875 234.302 423.083 234.351L424.033 234.589C424.416 234.678 424.784 234.798 425.137 234.95C425.493 235.102 425.812 235.293 426.092 235.524C426.376 235.755 426.6 236.034 426.765 236.361C426.93 236.687 427.013 237.07 427.013 237.509C427.013 238.103 426.861 238.626 426.558 239.078C426.254 239.527 425.815 239.878 425.241 240.132C424.67 240.383 423.979 240.508 423.167 240.508C422.379 240.508 421.694 240.386 421.113 240.142C420.536 239.898 420.084 239.541 419.757 239.073C419.434 238.604 419.259 238.034 419.233 237.36H421.039C421.066 237.714 421.174 238.007 421.366 238.241C421.557 238.476 421.806 238.651 422.113 238.766C422.423 238.882 422.77 238.939 423.153 238.939C423.552 238.939 423.901 238.88 424.202 238.761C424.505 238.639 424.743 238.471 424.914 238.256C425.086 238.039 425.173 237.784 425.177 237.494C425.173 237.23 425.096 237.012 424.944 236.841C424.792 236.666 424.58 236.521 424.306 236.405C424.035 236.286 423.718 236.181 423.355 236.089L422.202 235.792C421.367 235.577 420.708 235.252 420.223 234.817C419.741 234.378 419.5 233.795 419.5 233.07C419.5 232.472 419.662 231.949 419.985 231.501C420.312 231.052 420.755 230.704 421.316 230.456C421.877 230.206 422.512 230.08 423.222 230.08C423.941 230.08 424.571 230.206 425.112 230.456C425.657 230.704 426.084 231.049 426.394 231.491C426.704 231.93 426.864 232.434 426.874 233.005H425.107ZM432.426 236.95H434.089L435.074 238.227L435.777 239.058L437.464 241.226H435.683L434.534 239.771L434.044 239.078L432.426 236.95ZM437.707 235.287C437.707 236.379 437.502 237.314 437.093 238.093C436.687 238.868 436.133 239.462 435.43 239.875C434.731 240.287 433.937 240.493 433.05 240.493C432.162 240.493 431.367 240.287 430.664 239.875C429.965 239.459 429.41 238.863 429.001 238.088C428.595 237.309 428.392 236.376 428.392 235.287C428.392 234.195 428.595 233.261 429.001 232.485C429.41 231.707 429.965 231.111 430.664 230.699C431.367 230.286 432.162 230.08 433.05 230.08C433.937 230.08 434.731 230.286 435.43 230.699C436.133 231.111 436.687 231.707 437.093 232.485C437.502 233.261 437.707 234.195 437.707 235.287ZM435.861 235.287C435.861 234.518 435.74 233.87 435.5 233.342C435.262 232.81 434.932 232.41 434.51 232.139C434.087 231.865 433.601 231.728 433.05 231.728C432.499 231.728 432.012 231.865 431.59 232.139C431.167 232.41 430.836 232.81 430.595 233.342C430.357 233.87 430.239 234.518 430.239 235.287C430.239 236.056 430.357 236.706 430.595 237.237C430.836 237.765 431.167 238.166 431.59 238.439C432.012 238.71 432.499 238.845 433.05 238.845C433.601 238.845 434.087 238.71 434.51 238.439C434.932 238.166 435.262 237.765 435.5 237.237C435.74 236.706 435.861 236.056 435.861 235.287ZM439.456 240.355V230.219H441.293V238.816H445.757V240.355H439.456Z" fill="white"/>
</g>
<path d="M24.4659 105.318V115.5H23.233V105.318H24.4659ZM33.8187 115.659C33.1028 115.659 32.4863 115.49 31.9693 115.152C31.4522 114.814 31.0545 114.348 30.7761 113.755C30.4977 113.162 30.3585 112.484 30.3585 111.722C30.3585 110.946 30.501 110.262 30.786 109.668C31.0744 109.072 31.4754 108.606 31.9892 108.271C32.5062 107.933 33.1094 107.764 33.7988 107.764C34.3358 107.764 34.8197 107.864 35.2505 108.062C35.6814 108.261 36.0344 108.54 36.3095 108.898C36.5846 109.256 36.7553 109.673 36.8216 110.151H35.6483C35.5588 109.803 35.3599 109.494 35.0517 109.226C34.7467 108.954 34.3358 108.818 33.8187 108.818C33.3613 108.818 32.9603 108.937 32.6156 109.176C32.2742 109.411 32.0074 109.745 31.8152 110.175C31.6262 110.603 31.5318 111.105 31.5318 111.682C31.5318 112.272 31.6246 112.786 31.8102 113.223C31.9991 113.661 32.2643 114 32.6056 114.242C32.9503 114.484 33.3547 114.605 33.8187 114.605C34.1236 114.605 34.4004 114.552 34.649 114.446C34.8975 114.34 35.108 114.188 35.2804 113.989C35.4527 113.79 35.5753 113.551 35.6483 113.273H36.8216C36.7553 113.723 36.5912 114.129 36.3294 114.491C36.0708 114.849 35.7278 115.134 35.3002 115.346C34.876 115.555 34.3822 115.659 33.8187 115.659ZM41.639 115.659C40.9496 115.659 40.3448 115.495 39.8244 115.167C39.3074 114.839 38.903 114.38 38.6113 113.79C38.323 113.2 38.1788 112.51 38.1788 111.722C38.1788 110.926 38.323 110.232 38.6113 109.638C38.903 109.045 39.3074 108.585 39.8244 108.256C40.3448 107.928 40.9496 107.764 41.639 107.764C42.3284 107.764 42.9316 107.928 43.4487 108.256C43.969 108.585 44.3734 109.045 44.6618 109.638C44.9534 110.232 45.0993 110.926 45.0993 111.722C45.0993 112.51 44.9534 113.2 44.6618 113.79C44.3734 114.38 43.969 114.839 43.4487 115.167C42.9316 115.495 42.3284 115.659 41.639 115.659ZM41.639 114.605C42.1627 114.605 42.5936 114.471 42.9316 114.202C43.2697 113.934 43.5199 113.581 43.6824 113.143C43.8448 112.706 43.926 112.232 43.926 111.722C43.926 111.211 43.8448 110.736 43.6824 110.295C43.5199 109.854 43.2697 109.498 42.9316 109.226C42.5936 108.954 42.1627 108.818 41.639 108.818C41.1154 108.818 40.6845 108.954 40.3464 109.226C40.0083 109.498 39.7581 109.854 39.5957 110.295C39.4333 110.736 39.3521 111.211 39.3521 111.722C39.3521 112.232 39.4333 112.706 39.5957 113.143C39.7581 113.581 40.0083 113.934 40.3464 114.202C40.6845 114.471 41.1154 114.605 41.639 114.605ZM48.0636 110.906V115.5H46.8903V107.864H48.0238V109.057H48.1232C48.3022 108.669 48.574 108.357 48.9386 108.122C49.3031 107.884 49.7738 107.764 50.3505 107.764C50.8675 107.764 51.32 107.87 51.7077 108.082C52.0955 108.291 52.3971 108.609 52.6126 109.037C52.828 109.461 52.9357 109.998 52.9357 110.648V115.5H51.7624V110.727C51.7624 110.127 51.6067 109.66 51.2951 109.325C50.9835 108.987 50.556 108.818 50.0124 108.818C49.6379 108.818 49.3031 108.899 49.0082 109.062C48.7165 109.224 48.4862 109.461 48.3171 109.773C48.1481 110.084 48.0636 110.462 48.0636 110.906ZM60.4888 109.574L59.4348 109.872C59.3685 109.696 59.2708 109.526 59.1415 109.36C59.0156 109.191 58.8432 109.052 58.6245 108.942C58.4057 108.833 58.1257 108.778 57.7843 108.778C57.3169 108.778 56.9275 108.886 56.6159 109.102C56.3077 109.314 56.1536 109.584 56.1536 109.912C56.1536 110.204 56.2596 110.434 56.4718 110.603C56.6839 110.772 57.0153 110.913 57.4661 111.026L58.5996 111.304C59.2824 111.47 59.7911 111.723 60.1259 112.065C60.4606 112.403 60.628 112.839 60.628 113.372C60.628 113.81 60.5021 114.201 60.2502 114.545C60.0016 114.89 59.6536 115.162 59.2061 115.361C58.7587 115.56 58.2383 115.659 57.6451 115.659C56.8662 115.659 56.2215 115.49 55.7111 115.152C55.2007 114.814 54.8775 114.32 54.7417 113.67L55.8553 113.392C55.9614 113.803 56.1619 114.111 56.4569 114.317C56.7551 114.522 57.1446 114.625 57.6252 114.625C58.1721 114.625 58.6062 114.509 58.9277 114.277C59.2525 114.042 59.415 113.76 59.415 113.432C59.415 113.167 59.3221 112.945 59.1365 112.766C58.9509 112.583 58.6659 112.447 58.2814 112.358L57.0087 112.06C56.3094 111.894 55.7956 111.637 55.4675 111.289C55.1427 110.938 54.9803 110.499 54.9803 109.972C54.9803 109.541 55.1013 109.16 55.3432 108.828C55.5885 108.497 55.9216 108.237 56.3425 108.048C56.7667 107.859 57.2473 107.764 57.7843 107.764C58.54 107.764 59.1332 107.93 59.5641 108.261C59.9983 108.593 60.3065 109.03 60.4888 109.574ZM65.7152 107.864V108.858H61.7578V107.864H65.7152ZM62.9112 106.034H64.0845V113.312C64.0845 113.644 64.1326 113.893 64.2287 114.058C64.3281 114.221 64.4541 114.33 64.6065 114.386C64.7623 114.439 64.9264 114.466 65.0987 114.466C65.228 114.466 65.334 114.459 65.4169 114.446C65.4998 114.429 65.5661 114.416 65.6158 114.406L65.8544 115.46C65.7749 115.49 65.6638 115.52 65.5213 115.55C65.3788 115.583 65.1982 115.599 64.9794 115.599C64.648 115.599 64.3232 115.528 64.005 115.386C63.6901 115.243 63.4283 115.026 63.2195 114.734C63.014 114.443 62.9112 114.075 62.9112 113.631V106.034ZM69.7273 115.679C69.2434 115.679 68.8042 115.588 68.4098 115.406C68.0154 115.22 67.7022 114.953 67.4702 114.605C67.2382 114.254 67.1222 113.83 67.1222 113.332C67.1222 112.895 67.2083 112.54 67.3807 112.268C67.553 111.993 67.7834 111.778 68.0717 111.622C68.3601 111.466 68.6783 111.35 69.0263 111.274C69.3776 111.195 69.7306 111.132 70.0852 111.085C70.5492 111.026 70.9254 110.981 71.2138 110.951C71.5054 110.918 71.7176 110.863 71.8501 110.787C71.986 110.711 72.054 110.578 72.054 110.389V110.349C72.054 109.859 71.9197 109.478 71.6513 109.206C71.3861 108.934 70.9834 108.798 70.4432 108.798C69.883 108.798 69.4439 108.921 69.1257 109.166C68.8075 109.411 68.5838 109.673 68.4545 109.952L67.3409 109.554C67.5398 109.09 67.8049 108.729 68.1364 108.47C68.4711 108.208 68.8357 108.026 69.2301 107.923C69.6278 107.817 70.0189 107.764 70.4034 107.764C70.6487 107.764 70.9304 107.794 71.2486 107.854C71.5701 107.91 71.88 108.028 72.1783 108.207C72.4799 108.386 72.7301 108.656 72.929 109.017C73.1278 109.378 73.2273 109.862 73.2273 110.469V115.5H72.054V114.466H71.9943C71.9148 114.632 71.7822 114.809 71.5966 114.998C71.411 115.187 71.1641 115.348 70.8558 115.48C70.5476 115.613 70.1714 115.679 69.7273 115.679ZM69.9062 114.625C70.3703 114.625 70.7614 114.534 71.0795 114.352C71.401 114.169 71.643 113.934 71.8054 113.646C71.9711 113.357 72.054 113.054 72.054 112.736V111.662C72.0043 111.722 71.8949 111.776 71.7259 111.826C71.5601 111.872 71.3679 111.914 71.1491 111.95C70.9337 111.983 70.7232 112.013 70.5178 112.04C70.3156 112.063 70.1515 112.083 70.0256 112.099C69.7206 112.139 69.4356 112.204 69.1705 112.293C68.9086 112.379 68.6965 112.51 68.5341 112.686C68.375 112.858 68.2955 113.094 68.2955 113.392C68.2955 113.8 68.4463 114.108 68.7479 114.317C69.0528 114.522 69.4389 114.625 69.9062 114.625ZM76.5421 110.906V115.5H75.3688V107.864H76.5023V109.057H76.6017C76.7807 108.669 77.0525 108.357 77.4171 108.122C77.7817 107.884 78.2523 107.764 78.829 107.764C79.3461 107.764 79.7985 107.87 80.1863 108.082C80.574 108.291 80.8757 108.609 81.0911 109.037C81.3065 109.461 81.4142 109.998 81.4142 110.648V115.5H80.2409V110.727C80.2409 110.127 80.0852 109.66 79.7736 109.325C79.4621 108.987 79.0345 108.818 78.4909 108.818C78.1164 108.818 77.7817 108.899 77.4867 109.062C77.195 109.224 76.9647 109.461 76.7956 109.773C76.6266 110.084 76.5421 110.462 76.5421 110.906ZM86.8793 107.864V108.858H82.9219V107.864H86.8793ZM84.0753 106.034H85.2486V113.312C85.2486 113.644 85.2966 113.893 85.3928 114.058C85.4922 114.221 85.6181 114.33 85.7706 114.386C85.9264 114.439 86.0904 114.466 86.2628 114.466C86.392 114.466 86.4981 114.459 86.581 114.446C86.6638 114.429 86.7301 114.416 86.7798 114.406L87.0185 115.46C86.9389 115.49 86.8279 115.52 86.6854 115.55C86.5429 115.583 86.3622 115.599 86.1435 115.599C85.812 115.599 85.4872 115.528 85.169 115.386C84.8542 115.243 84.5923 115.026 84.3835 114.734C84.178 114.443 84.0753 114.075 84.0753 113.631V106.034ZM89.9815 105.318V115.5H88.8082V105.318H89.9815ZM92.8862 118.364C92.6873 118.364 92.51 118.347 92.3542 118.314C92.1984 118.284 92.0907 118.254 92.0311 118.224L92.3294 117.19C92.6144 117.263 92.8663 117.29 93.085 117.27C93.3038 117.25 93.4977 117.152 93.6667 116.977C93.8391 116.804 93.9965 116.524 94.139 116.136L94.3578 115.54L91.5339 107.864H92.8066L94.9146 113.949H94.9941L97.1021 107.864H98.3748L95.1333 116.614C94.9875 117.008 94.8069 117.335 94.5914 117.593C94.376 117.855 94.1258 118.049 93.8407 118.175C93.559 118.301 93.2408 118.364 92.8862 118.364ZM107.182 107.864V108.858H103.225V107.864H107.182ZM104.378 106.034H105.551V113.312C105.551 113.644 105.599 113.893 105.695 114.058C105.795 114.221 105.921 114.33 106.073 114.386C106.229 114.439 106.393 114.466 106.566 114.466C106.695 114.466 106.801 114.459 106.884 114.446C106.967 114.429 107.033 114.416 107.083 114.406L107.321 115.46C107.242 115.49 107.131 115.52 106.988 115.55C106.846 115.583 106.665 115.599 106.446 115.599C106.115 115.599 105.79 115.528 105.472 115.386C105.157 115.243 104.895 115.026 104.686 114.734C104.481 114.443 104.378 114.075 104.378 113.631V106.034ZM108.947 115.5V107.864H110.08V109.017H110.16C110.299 108.639 110.551 108.333 110.916 108.097C111.28 107.862 111.691 107.744 112.149 107.744C112.235 107.744 112.343 107.746 112.472 107.749C112.601 107.753 112.699 107.758 112.765 107.764V108.957C112.725 108.947 112.634 108.933 112.492 108.913C112.352 108.889 112.205 108.878 112.049 108.878C111.678 108.878 111.347 108.956 111.055 109.112C110.767 109.264 110.538 109.476 110.369 109.748C110.203 110.016 110.12 110.323 110.12 110.668V115.5H108.947ZM115.144 118.364C114.945 118.364 114.768 118.347 114.612 118.314C114.456 118.284 114.349 118.254 114.289 118.224L114.587 117.19C114.872 117.263 115.124 117.29 115.343 117.27C115.562 117.25 115.756 117.152 115.925 116.977C116.097 116.804 116.254 116.524 116.397 116.136L116.616 115.54L113.792 107.864H115.064L117.172 113.949H117.252L119.36 107.864H120.633L117.391 116.614C117.245 117.008 117.065 117.335 116.849 117.593C116.634 117.855 116.384 118.049 116.099 118.175C115.817 118.301 115.499 118.364 115.144 118.364ZM129.44 107.864V108.858H125.482V107.864H129.44ZM126.636 106.034H127.809V113.312C127.809 113.644 127.857 113.893 127.953 114.058C128.053 114.221 128.179 114.33 128.331 114.386C128.487 114.439 128.651 114.466 128.823 114.466C128.953 114.466 129.059 114.459 129.142 114.446C129.224 114.429 129.291 114.416 129.34 114.406L129.579 115.46C129.499 115.49 129.388 115.52 129.246 115.55C129.103 115.583 128.923 115.599 128.704 115.599C128.373 115.599 128.048 115.528 127.73 115.386C127.415 115.243 127.153 115.026 126.944 114.734C126.739 114.443 126.636 114.075 126.636 113.631V106.034ZM134.225 115.659C133.536 115.659 132.931 115.495 132.41 115.167C131.893 114.839 131.489 114.38 131.197 113.79C130.909 113.2 130.765 112.51 130.765 111.722C130.765 110.926 130.909 110.232 131.197 109.638C131.489 109.045 131.893 108.585 132.41 108.256C132.931 107.928 133.536 107.764 134.225 107.764C134.914 107.764 135.518 107.928 136.035 108.256C136.555 108.585 136.959 109.045 137.248 109.638C137.539 110.232 137.685 110.926 137.685 111.722C137.685 112.51 137.539 113.2 137.248 113.79C136.959 114.38 136.555 114.839 136.035 115.167C135.518 115.495 134.914 115.659 134.225 115.659ZM134.225 114.605C134.749 114.605 135.18 114.471 135.518 114.202C135.856 113.934 136.106 113.581 136.268 113.143C136.431 112.706 136.512 112.232 136.512 111.722C136.512 111.211 136.431 110.736 136.268 110.295C136.106 109.854 135.856 109.498 135.518 109.226C135.18 108.954 134.749 108.818 134.225 108.818C133.701 108.818 133.27 108.954 132.932 109.226C132.594 109.498 132.344 109.854 132.182 110.295C132.019 110.736 131.938 111.211 131.938 111.722C131.938 112.232 132.019 112.706 132.182 113.143C132.344 113.581 132.594 113.934 132.932 114.202C133.27 114.471 133.701 114.605 134.225 114.605ZM143.414 115.5V107.864H144.587V115.5H143.414ZM144.01 106.591C143.782 106.591 143.584 106.513 143.419 106.357C143.256 106.201 143.175 106.014 143.175 105.795C143.175 105.577 143.256 105.389 143.419 105.234C143.584 105.078 143.782 105 144.01 105C144.239 105 144.435 105.078 144.597 105.234C144.763 105.389 144.846 105.577 144.846 105.795C144.846 106.014 144.763 106.201 144.597 106.357C144.435 106.513 144.239 106.591 144.01 106.591ZM146.736 115.5V107.864H147.869V109.057H147.969C148.128 108.649 148.385 108.333 148.74 108.107C149.094 107.879 149.52 107.764 150.017 107.764C150.521 107.764 150.94 107.879 151.275 108.107C151.613 108.333 151.877 108.649 152.066 109.057H152.145C152.341 108.662 152.634 108.349 153.025 108.117C153.416 107.882 153.885 107.764 154.432 107.764C155.115 107.764 155.673 107.978 156.107 108.406C156.542 108.83 156.759 109.491 156.759 110.389V115.5H155.585V110.389C155.585 109.826 155.431 109.423 155.123 109.181C154.815 108.939 154.452 108.818 154.034 108.818C153.497 108.818 153.081 108.981 152.786 109.305C152.491 109.627 152.344 110.035 152.344 110.528V115.5H151.151V110.27C151.151 109.836 151.01 109.486 150.728 109.221C150.446 108.952 150.084 108.818 149.639 108.818C149.334 108.818 149.049 108.899 148.784 109.062C148.522 109.224 148.31 109.45 148.148 109.738C147.989 110.023 147.909 110.353 147.909 110.727V115.5H146.736ZM158.904 118.364V107.864H160.037V109.077H160.177C160.263 108.944 160.382 108.775 160.535 108.57C160.69 108.361 160.912 108.175 161.201 108.013C161.492 107.847 161.887 107.764 162.384 107.764C163.027 107.764 163.594 107.925 164.084 108.246C164.575 108.568 164.958 109.024 165.233 109.614C165.508 110.204 165.645 110.9 165.645 111.702C165.645 112.51 165.508 113.211 165.233 113.805C164.958 114.395 164.577 114.852 164.089 115.177C163.602 115.498 163.04 115.659 162.404 115.659C161.913 115.659 161.521 115.578 161.226 115.415C160.931 115.25 160.704 115.062 160.545 114.854C160.385 114.642 160.263 114.466 160.177 114.327H160.077V118.364H158.904ZM160.057 111.682C160.057 112.259 160.142 112.767 160.311 113.208C160.48 113.646 160.727 113.989 161.052 114.237C161.376 114.482 161.774 114.605 162.245 114.605C162.735 114.605 163.145 114.476 163.473 114.217C163.804 113.955 164.053 113.604 164.219 113.163C164.388 112.719 164.472 112.225 164.472 111.682C164.472 111.145 164.389 110.661 164.224 110.23C164.061 109.796 163.814 109.453 163.483 109.201C163.155 108.946 162.742 108.818 162.245 108.818C161.768 108.818 161.367 108.939 161.042 109.181C160.717 109.42 160.472 109.754 160.306 110.185C160.14 110.613 160.057 111.112 160.057 111.682ZM167.435 115.5V107.864H168.569V109.017H168.648C168.787 108.639 169.039 108.333 169.404 108.097C169.769 107.862 170.18 107.744 170.637 107.744C170.723 107.744 170.831 107.746 170.96 107.749C171.089 107.753 171.187 107.758 171.253 107.764V108.957C171.214 108.947 171.122 108.933 170.98 108.913C170.841 108.889 170.693 108.878 170.537 108.878C170.166 108.878 169.835 108.956 169.543 109.112C169.255 109.264 169.026 109.476 168.857 109.748C168.691 110.016 168.608 110.323 168.608 110.668V115.5H167.435ZM175.514 115.659C174.825 115.659 174.22 115.495 173.699 115.167C173.182 114.839 172.778 114.38 172.486 113.79C172.198 113.2 172.054 112.51 172.054 111.722C172.054 110.926 172.198 110.232 172.486 109.638C172.778 109.045 173.182 108.585 173.699 108.256C174.22 107.928 174.825 107.764 175.514 107.764C176.203 107.764 176.807 107.928 177.324 108.256C177.844 108.585 178.248 109.045 178.537 109.638C178.828 110.232 178.974 110.926 178.974 111.722C178.974 112.51 178.828 113.2 178.537 113.79C178.248 114.38 177.844 114.839 177.324 115.167C176.807 115.495 176.203 115.659 175.514 115.659ZM175.514 114.605C176.038 114.605 176.469 114.471 176.807 114.202C177.145 113.934 177.395 113.581 177.557 113.143C177.72 112.706 177.801 112.232 177.801 111.722C177.801 111.211 177.72 110.736 177.557 110.295C177.395 109.854 177.145 109.498 176.807 109.226C176.469 108.954 176.038 108.818 175.514 108.818C174.99 108.818 174.559 108.954 174.221 109.226C173.883 109.498 173.633 109.854 173.471 110.295C173.308 110.736 173.227 111.211 173.227 111.722C173.227 112.232 173.308 112.706 173.471 113.143C173.633 113.581 173.883 113.934 174.221 114.202C174.559 114.471 174.99 114.605 175.514 114.605ZM186.736 107.864L183.912 115.5H182.719L179.895 107.864H181.168L183.276 113.949H183.355L185.463 107.864H186.736ZM191.213 115.659C190.477 115.659 189.843 115.497 189.309 115.172C188.779 114.844 188.369 114.386 188.081 113.8C187.796 113.21 187.653 112.524 187.653 111.741C187.653 110.959 187.796 110.27 188.081 109.673C188.369 109.073 188.77 108.606 189.284 108.271C189.801 107.933 190.404 107.764 191.094 107.764C191.491 107.764 191.884 107.83 192.272 107.963C192.66 108.096 193.013 108.311 193.331 108.609C193.649 108.904 193.903 109.295 194.092 109.783C194.281 110.27 194.375 110.87 194.375 111.582V112.08H188.489V111.065H193.182C193.182 110.634 193.096 110.25 192.923 109.912C192.754 109.574 192.512 109.307 192.197 109.112C191.886 108.916 191.518 108.818 191.094 108.818C190.626 108.818 190.222 108.934 189.881 109.166C189.543 109.395 189.282 109.693 189.1 110.061C188.918 110.429 188.827 110.823 188.827 111.244V111.92C188.827 112.497 188.926 112.986 189.125 113.387C189.327 113.785 189.607 114.088 189.965 114.297C190.323 114.502 190.739 114.605 191.213 114.605C191.521 114.605 191.8 114.562 192.048 114.476C192.3 114.386 192.517 114.254 192.7 114.078C192.882 113.899 193.023 113.677 193.122 113.412L194.256 113.73C194.136 114.115 193.936 114.453 193.654 114.744C193.372 115.033 193.024 115.258 192.61 115.42C192.196 115.58 191.73 115.659 191.213 115.659Z" fill="#C1C2D3"/>
<path d="M24.0227 136.227H30.0909L36.5 151.864H36.7727L43.1818 136.227H49.25V159.5H44.4773V144.352H44.2841L38.2614 159.386H35.0114L28.9886 144.295H28.7955V159.5H24.0227V136.227ZM55.8817 166.045C55.2681 166.045 54.6923 165.996 54.1544 165.898C53.6241 165.807 53.1847 165.689 52.8363 165.545L53.9272 161.932C54.4953 162.106 55.0067 162.201 55.4613 162.216C55.9234 162.231 56.3211 162.125 56.6544 161.898C56.9953 161.67 57.2719 161.284 57.484 160.739L57.7681 160L51.5067 142.045H56.5976L60.2113 154.864H60.3931L64.0408 142.045H69.1658L62.3817 161.386C62.0559 162.326 61.6128 163.144 61.0522 163.841C60.4991 164.545 59.7984 165.087 58.9499 165.466C58.1014 165.852 57.0787 166.045 55.8817 166.045ZM87.6934 142.045V145.682H77.182V142.045H87.6934ZM79.5684 137.864H84.4093V154.136C84.4093 154.583 84.4775 154.932 84.6139 155.182C84.7502 155.424 84.9396 155.595 85.182 155.693C85.432 155.792 85.7199 155.841 86.0457 155.841C86.273 155.841 86.5002 155.822 86.7275 155.784C86.9548 155.739 87.129 155.705 87.2502 155.682L88.0116 159.284C87.7692 159.36 87.4283 159.447 86.9889 159.545C86.5495 159.652 86.0154 159.716 85.3866 159.739C84.2199 159.784 83.1972 159.629 82.3184 159.273C81.4472 158.917 80.7692 158.364 80.2843 157.614C79.7995 156.864 79.5608 155.917 79.5684 154.773V137.864ZM98.2939 159.841C96.4984 159.841 94.953 159.477 93.6575 158.75C92.3696 158.015 91.3772 156.977 90.6802 155.636C89.9833 154.288 89.6348 152.693 89.6348 150.852C89.6348 149.057 89.9833 147.481 90.6802 146.125C91.3772 144.769 92.3583 143.712 93.6234 142.955C94.8961 142.197 96.3886 141.818 98.1007 141.818C99.2522 141.818 100.324 142.004 101.317 142.375C102.317 142.739 103.188 143.288 103.93 144.023C104.68 144.758 105.264 145.682 105.68 146.795C106.097 147.902 106.305 149.197 106.305 150.682V152.011H91.5666V149.011H101.748C101.748 148.314 101.597 147.697 101.294 147.159C100.991 146.621 100.57 146.201 100.033 145.898C99.5022 145.587 98.8848 145.432 98.1802 145.432C97.4454 145.432 96.7939 145.602 96.2257 145.943C95.6651 146.277 95.2257 146.727 94.9075 147.295C94.5893 147.856 94.4264 148.481 94.4189 149.17V152.023C94.4189 152.886 94.578 153.633 94.8961 154.261C95.2219 154.89 95.6802 155.375 96.2711 155.716C96.862 156.057 97.5628 156.227 98.3734 156.227C98.9113 156.227 99.4037 156.152 99.8507 156C100.298 155.848 100.68 155.621 100.998 155.318C101.317 155.015 101.559 154.644 101.726 154.205L106.203 154.5C105.976 155.576 105.51 156.515 104.805 157.318C104.108 158.114 103.207 158.735 102.101 159.182C101.002 159.621 99.7333 159.841 98.2939 159.841ZM117.031 159.841C115.243 159.841 113.705 159.462 112.417 158.705C111.137 157.939 110.152 156.879 109.463 155.523C108.781 154.167 108.44 152.606 108.44 150.841C108.44 149.053 108.784 147.485 109.474 146.136C110.171 144.78 111.159 143.723 112.44 142.966C113.72 142.201 115.243 141.818 117.008 141.818C118.531 141.818 119.864 142.095 121.008 142.648C122.152 143.201 123.057 143.977 123.724 144.977C124.391 145.977 124.758 147.152 124.826 148.5H120.258C120.129 147.629 119.788 146.928 119.235 146.398C118.69 145.86 117.974 145.591 117.088 145.591C116.338 145.591 115.682 145.795 115.122 146.205C114.569 146.606 114.137 147.193 113.826 147.966C113.516 148.739 113.36 149.674 113.36 150.773C113.36 151.886 113.512 152.833 113.815 153.614C114.125 154.394 114.561 154.989 115.122 155.398C115.682 155.807 116.338 156.011 117.088 156.011C117.641 156.011 118.137 155.898 118.576 155.67C119.023 155.443 119.391 155.114 119.678 154.682C119.974 154.242 120.167 153.716 120.258 153.102H124.826C124.75 154.436 124.387 155.61 123.735 156.625C123.091 157.633 122.201 158.42 121.065 158.989C119.928 159.557 118.584 159.841 117.031 159.841ZM132.446 149.409V159.5H127.606V136.227H132.31V145.125H132.515C132.909 144.095 133.545 143.288 134.424 142.705C135.303 142.114 136.405 141.818 137.731 141.818C138.943 141.818 140 142.083 140.901 142.614C141.81 143.136 142.515 143.89 143.015 144.875C143.522 145.852 143.772 147.023 143.765 148.386V159.5H138.924V149.25C138.931 148.174 138.659 147.337 138.106 146.739C137.56 146.14 136.795 145.841 135.81 145.841C135.151 145.841 134.568 145.981 134.06 146.261C133.56 146.542 133.166 146.951 132.878 147.489C132.598 148.019 132.454 148.659 132.446 149.409ZM168.863 147.023L164.431 147.295C164.356 146.917 164.193 146.576 163.943 146.273C163.693 145.962 163.363 145.716 162.954 145.534C162.553 145.345 162.072 145.25 161.511 145.25C160.761 145.25 160.128 145.409 159.613 145.727C159.098 146.038 158.841 146.455 158.841 146.977C158.841 147.394 159.007 147.746 159.341 148.034C159.674 148.322 160.246 148.553 161.056 148.727L164.216 149.364C165.913 149.712 167.178 150.273 168.011 151.045C168.844 151.818 169.261 152.833 169.261 154.091C169.261 155.235 168.924 156.239 168.25 157.102C167.583 157.966 166.666 158.64 165.5 159.125C164.341 159.602 163.003 159.841 161.488 159.841C159.178 159.841 157.337 159.36 155.966 158.398C154.602 157.428 153.803 156.11 153.568 154.443L158.329 154.193C158.473 154.898 158.822 155.436 159.375 155.807C159.928 156.17 160.636 156.352 161.5 156.352C162.348 156.352 163.03 156.189 163.545 155.864C164.068 155.53 164.333 155.102 164.341 154.58C164.333 154.14 164.147 153.78 163.784 153.5C163.42 153.212 162.86 152.992 162.102 152.841L159.079 152.239C157.375 151.898 156.106 151.307 155.272 150.466C154.447 149.625 154.034 148.553 154.034 147.25C154.034 146.129 154.337 145.163 154.943 144.352C155.556 143.542 156.416 142.917 157.522 142.477C158.636 142.038 159.939 141.818 161.431 141.818C163.636 141.818 165.371 142.284 166.636 143.216C167.909 144.148 168.651 145.417 168.863 147.023ZM181.273 142.045V145.682H170.762V142.045H181.273ZM173.148 137.864H177.989V154.136C177.989 154.583 178.057 154.932 178.194 155.182C178.33 155.424 178.52 155.595 178.762 155.693C179.012 155.792 179.3 155.841 179.626 155.841C179.853 155.841 180.08 155.822 180.307 155.784C180.535 155.739 180.709 155.705 180.83 155.682L181.592 159.284C181.349 159.36 181.008 159.447 180.569 159.545C180.129 159.652 179.595 159.716 178.967 159.739C177.8 159.784 176.777 159.629 175.898 159.273C175.027 158.917 174.349 158.364 173.864 157.614C173.379 156.864 173.141 155.917 173.148 154.773V137.864ZM189.084 159.83C187.97 159.83 186.978 159.636 186.107 159.25C185.236 158.856 184.546 158.277 184.039 157.511C183.539 156.739 183.289 155.777 183.289 154.625C183.289 153.655 183.467 152.841 183.823 152.182C184.179 151.523 184.664 150.992 185.277 150.591C185.891 150.189 186.588 149.886 187.368 149.682C188.156 149.477 188.982 149.333 189.845 149.25C190.861 149.144 191.679 149.045 192.3 148.955C192.921 148.856 193.372 148.712 193.652 148.523C193.933 148.333 194.073 148.053 194.073 147.682V147.614C194.073 146.894 193.845 146.337 193.391 145.943C192.944 145.549 192.308 145.352 191.482 145.352C190.611 145.352 189.917 145.545 189.402 145.932C188.887 146.311 188.546 146.788 188.38 147.364L183.902 147C184.13 145.939 184.577 145.023 185.243 144.25C185.91 143.47 186.77 142.871 187.823 142.455C188.883 142.03 190.111 141.818 191.505 141.818C192.474 141.818 193.402 141.932 194.289 142.159C195.183 142.386 195.974 142.739 196.664 143.216C197.361 143.693 197.91 144.307 198.311 145.057C198.713 145.799 198.914 146.689 198.914 147.727V159.5H194.323V157.08H194.186C193.906 157.625 193.531 158.106 193.061 158.523C192.592 158.932 192.027 159.254 191.368 159.489C190.709 159.716 189.948 159.83 189.084 159.83ZM190.47 156.489C191.183 156.489 191.811 156.348 192.357 156.068C192.902 155.78 193.33 155.394 193.641 154.909C193.952 154.424 194.107 153.875 194.107 153.261V151.409C193.955 151.508 193.747 151.598 193.482 151.682C193.224 151.758 192.933 151.83 192.607 151.898C192.281 151.958 191.955 152.015 191.63 152.068C191.304 152.114 191.008 152.155 190.743 152.193C190.175 152.277 189.679 152.409 189.255 152.591C188.83 152.773 188.501 153.019 188.266 153.33C188.031 153.633 187.914 154.011 187.914 154.466C187.914 155.125 188.152 155.629 188.63 155.977C189.114 156.318 189.728 156.489 190.47 156.489ZM210.236 159.841C208.448 159.841 206.91 159.462 205.622 158.705C204.342 157.939 203.357 156.879 202.667 155.523C201.986 154.167 201.645 152.606 201.645 150.841C201.645 149.053 201.989 147.485 202.679 146.136C203.376 144.78 204.364 143.723 205.645 142.966C206.925 142.201 208.448 141.818 210.213 141.818C211.736 141.818 213.069 142.095 214.213 142.648C215.357 143.201 216.262 143.977 216.929 144.977C217.596 145.977 217.963 147.152 218.031 148.5H213.463C213.334 147.629 212.993 146.928 212.44 146.398C211.895 145.86 211.179 145.591 210.292 145.591C209.542 145.591 208.887 145.795 208.327 146.205C207.774 146.606 207.342 147.193 207.031 147.966C206.721 148.739 206.565 149.674 206.565 150.773C206.565 151.886 206.717 152.833 207.02 153.614C207.33 154.394 207.766 154.989 208.327 155.398C208.887 155.807 209.542 156.011 210.292 156.011C210.846 156.011 211.342 155.898 211.781 155.67C212.228 155.443 212.596 155.114 212.883 154.682C213.179 154.242 213.372 153.716 213.463 153.102H218.031C217.955 154.436 217.592 155.61 216.94 156.625C216.296 157.633 215.406 158.42 214.27 158.989C213.133 159.557 211.789 159.841 210.236 159.841ZM225.197 154.477L225.208 148.67H225.913L231.504 142.045H237.061L229.549 150.818H228.401L225.197 154.477ZM220.811 159.5V136.227H225.651V159.5H220.811ZM231.72 159.5L226.583 151.898L229.811 148.477L237.39 159.5H231.72Z" fill="white"/>
</g>
<rect x="0.5" y="0.5" width="522" height="277" rx="23.5" stroke="url(#paint1_linear_2001_3900)"/>
<defs>
<linearGradient id="paint0_linear_2001_3900" x1="108.452" y1="1" x2="457.018" y2="157.719" gradientUnits="userSpaceOnUse">
<stop stop-color="#04071D"/>
<stop offset="1" stop-color="#0C0E23"/>
</linearGradient>
<linearGradient id="paint1_linear_2001_3900" x1="261.5" y1="1" x2="261.5" y2="277" gradientUnits="userSpaceOnUse">
<stop stop-color="#363749" stop-opacity="0.43"/>
<stop offset="1" stop-color="#363749" stop-opacity="0.49"/>
</linearGradient>
<clipPath id="clip0_2001_3900">
<rect x="1" y="1" width="521" height="276" rx="23" fill="white"/>
</clipPath>
<clipPath id="clip1_2001_3900">
<rect width="140.175" height="295.006" fill="white" transform="translate(212.375 -18.7529)"/>
</clipPath>
<clipPath id="clip2_2001_3900">
<rect width="140.175" height="295.006" fill="white" transform="translate(362.197 -18.7529)"/>
</clipPath>
</defs>
</svg>
