<svg width="521" height="276" viewBox="0 0 521 276" fill="none" xmlns="http://www.w3.org/2000/svg">
<g clip-path="url(#clip0_2001_3900)">
<rect width="521" height="276" rx="23" fill="url(#paint0_linear_2001_3900)"/>
<g clip-path="url(#clip1_2001_3900)">
<rect x="211.375" y="-19.7529" width="140.175" height="72.3536" rx="6.96848" fill="#10132E"/>
<path d="M254.458 21.7134V11.5774H258.259C259.037 11.5774 259.691 11.7127 260.219 11.9832C260.75 12.2538 261.151 12.6332 261.421 13.1216C261.695 13.6066 261.832 14.1724 261.832 14.8191C261.832 15.4691 261.694 16.0333 261.416 16.5118C261.143 16.9869 260.738 17.3548 260.204 17.6154C259.669 17.8728 259.013 18.0015 258.234 18.0015H255.527V16.4771H257.987C258.442 16.4771 258.815 16.4144 259.105 16.289C259.395 16.1604 259.61 15.9739 259.749 15.7298C259.89 15.4823 259.961 15.1788 259.961 14.8191C259.961 14.4595 259.89 14.1526 259.749 13.8986C259.607 13.6412 259.391 13.4466 259.1 13.3146C258.81 13.1793 258.435 13.1117 257.977 13.1117H256.294V21.7134H254.458ZM259.694 17.1205L262.203 21.7134H260.154L257.69 17.1205H259.694ZM266.7 21.8619C265.937 21.8619 265.279 21.7035 264.725 21.3867C264.174 21.0667 263.75 20.6147 263.453 20.0306C263.156 19.4433 263.008 18.7521 263.008 17.9569C263.008 17.175 263.156 16.4887 263.453 15.8981C263.753 15.3042 264.172 14.8422 264.71 14.5123C265.248 14.179 265.88 14.0124 266.606 14.0124C267.074 14.0124 267.516 14.0883 267.932 14.2401C268.351 14.3886 268.721 14.6195 269.041 14.933C269.364 15.2464 269.618 15.6457 269.803 16.1307C269.988 16.6124 270.08 17.1865 270.08 17.853V18.4024H263.849V17.1948H268.363C268.359 16.8516 268.285 16.5464 268.14 16.2791C267.995 16.0086 267.792 15.7958 267.531 15.6407C267.274 15.4856 266.974 15.4081 266.63 15.4081C266.264 15.4081 265.942 15.4972 265.665 15.6753C265.388 15.8502 265.172 16.0812 265.017 16.3682C264.865 16.652 264.788 16.9638 264.784 17.3036V18.3578C264.784 18.7999 264.865 19.1794 265.027 19.4961C265.189 19.8096 265.415 20.0504 265.705 20.2187C265.995 20.3837 266.335 20.4662 266.724 20.4662C266.985 20.4662 267.221 20.4299 267.432 20.3573C267.643 20.2814 267.826 20.1709 267.982 20.0257C268.137 19.8805 268.254 19.7007 268.333 19.4862L270.006 19.6743C269.9 20.1164 269.699 20.5025 269.402 20.8324C269.108 21.1591 268.732 21.4131 268.274 21.5946C267.815 21.7728 267.29 21.8619 266.7 21.8619ZM273.783 21.8668C273.301 21.8668 272.868 21.781 272.482 21.6094C272.099 21.4346 271.795 21.1772 271.571 20.8374C271.35 20.4975 271.239 20.0785 271.239 19.5803C271.239 19.1513 271.319 18.7966 271.477 18.5162C271.635 18.2357 271.851 18.0114 272.125 17.8431C272.399 17.6748 272.708 17.5478 273.051 17.462C273.397 17.3729 273.755 17.3086 274.125 17.269C274.57 17.2228 274.931 17.1816 275.209 17.1453C275.486 17.1057 275.687 17.0463 275.812 16.9671C275.941 16.8846 276.005 16.7576 276.005 16.586V16.5563C276.005 16.1835 275.895 15.8948 275.674 15.6902C275.453 15.4856 275.134 15.3833 274.719 15.3833C274.28 15.3833 273.932 15.479 273.674 15.6704C273.42 15.8618 273.249 16.0878 273.16 16.3484L271.487 16.1109C271.619 15.649 271.837 15.2629 272.14 14.9528C272.444 14.6393 272.815 14.4051 273.254 14.25C273.692 14.0916 274.178 14.0124 274.709 14.0124C275.075 14.0124 275.44 14.0553 275.802 14.1411C276.165 14.2269 276.497 14.3688 276.797 14.5667C277.098 14.7614 277.338 15.027 277.52 15.3635C277.705 15.7001 277.797 16.1208 277.797 16.6256V21.7134H276.075V20.6691H276.015C275.906 20.8803 275.753 21.0782 275.555 21.263C275.36 21.4445 275.115 21.5913 274.818 21.7035C274.524 21.8124 274.179 21.8668 273.783 21.8668ZM274.248 20.5503C274.608 20.5503 274.92 20.4794 275.184 20.3375C275.448 20.1923 275.651 20.001 275.793 19.7634C275.938 19.5258 276.01 19.2668 276.01 18.9864V18.0906C275.954 18.1368 275.859 18.1796 275.723 18.2192C275.591 18.2588 275.443 18.2935 275.278 18.3232C275.113 18.3529 274.95 18.3793 274.788 18.4024C274.626 18.4255 274.486 18.4453 274.367 18.4617C274.1 18.498 273.861 18.5574 273.65 18.6399C273.438 18.7224 273.272 18.8379 273.15 18.9864C273.028 19.1315 272.967 19.3196 272.967 19.5506C272.967 19.8805 273.087 20.1296 273.328 20.2979C273.569 20.4662 273.876 20.5503 274.248 20.5503ZM282.915 21.8619C282.156 21.8619 281.504 21.6952 280.96 21.362C280.418 21.0287 280.001 20.5685 279.707 19.9812C279.417 19.3906 279.272 18.7109 279.272 17.9421C279.272 17.17 279.42 16.4887 279.717 15.8981C280.014 15.3042 280.433 14.8422 280.974 14.5123C281.519 14.179 282.162 14.0124 282.905 14.0124C283.522 14.0124 284.068 14.1262 284.543 14.3539C285.021 14.5783 285.402 14.8967 285.686 15.3091C285.97 15.7182 286.131 16.1967 286.171 16.7444H284.459C284.389 16.3781 284.224 16.0729 283.964 15.8288C283.706 15.5813 283.362 15.4576 282.929 15.4576C282.563 15.4576 282.241 15.5566 281.964 15.7545C281.687 15.9492 281.471 16.2297 281.316 16.5959C281.164 16.9621 281.088 17.401 281.088 17.9124C281.088 18.4304 281.164 18.8758 281.316 19.2487C281.468 19.6182 281.681 19.9036 281.954 20.1049C282.232 20.3029 282.557 20.4018 282.929 20.4018C283.193 20.4018 283.429 20.3523 283.637 20.2534C283.848 20.1511 284.025 20.0043 284.167 19.8129C284.309 19.6215 284.406 19.3889 284.459 19.115H286.171C286.128 19.6529 285.97 20.1296 285.696 20.5454C285.422 20.9578 285.049 21.2811 284.577 21.5154C284.106 21.7464 283.551 21.8619 282.915 21.8619ZM291.438 14.1114V15.4972H287.068V14.1114H291.438ZM288.147 12.2901H289.939V19.4268C289.939 19.6677 289.975 19.8525 290.048 19.9812C290.123 20.1065 290.222 20.1923 290.344 20.2385C290.467 20.2847 290.602 20.3078 290.75 20.3078C290.863 20.3078 290.965 20.2996 291.057 20.2831C291.153 20.2666 291.225 20.2517 291.275 20.2385L291.577 21.6391C291.481 21.6721 291.344 21.7084 291.166 21.748C290.991 21.7876 290.777 21.8107 290.523 21.8173C290.074 21.8305 289.67 21.7629 289.31 21.6144C288.95 21.4626 288.665 21.2284 288.454 20.9116C288.246 20.5949 288.144 20.1989 288.147 19.7238V12.2901ZM297.015 11.5774H298.836V18.7043C298.833 19.3576 298.694 19.9201 298.42 20.3919C298.147 20.8605 297.764 21.2218 297.272 21.4758C296.784 21.7266 296.215 21.852 295.565 21.852C294.971 21.852 294.436 21.7464 293.961 21.5352C293.489 21.3207 293.115 21.004 292.838 20.585C292.561 20.1659 292.422 19.6446 292.422 19.021H294.248C294.251 19.2949 294.311 19.5308 294.426 19.7287C294.545 19.9267 294.708 20.0785 294.916 20.1841C295.124 20.2897 295.363 20.3424 295.634 20.3424C295.928 20.3424 296.177 20.2814 296.381 20.1593C296.586 20.0339 296.741 19.8492 296.847 19.605C296.955 19.3609 297.011 19.0606 297.015 18.7043V11.5774ZM306.337 14.3638C306.29 13.9316 306.096 13.595 305.753 13.3542C305.413 13.1133 304.971 12.9929 304.426 12.9929C304.043 12.9929 303.715 13.0506 303.441 13.1661C303.167 13.2816 302.958 13.4383 302.813 13.6363C302.668 13.8342 302.593 14.0603 302.59 14.3143C302.59 14.5255 302.638 14.7086 302.734 14.8637C302.833 15.0188 302.966 15.1507 303.134 15.2596C303.303 15.3652 303.489 15.4543 303.694 15.5269C303.898 15.5995 304.105 15.6605 304.312 15.71L305.263 15.9476C305.645 16.0366 306.013 16.1571 306.366 16.3088C306.723 16.4606 307.041 16.652 307.322 16.883C307.605 17.1139 307.83 17.3927 307.995 17.7194C308.16 18.046 308.242 18.4288 308.242 18.8676C308.242 19.4615 308.09 19.9845 307.787 20.4365C307.483 20.8852 307.044 21.2366 306.47 21.4907C305.899 21.7414 305.208 21.8668 304.397 21.8668C303.608 21.8668 302.923 21.7447 302.343 21.5006C301.765 21.2564 301.313 20.9001 300.987 20.4315C300.663 19.963 300.488 19.3922 300.462 18.7191H302.268C302.295 19.0722 302.404 19.3658 302.595 19.6001C302.786 19.8343 303.036 20.0092 303.342 20.1247C303.653 20.2402 303.999 20.2979 304.382 20.2979C304.781 20.2979 305.131 20.2385 305.431 20.1197C305.734 19.9977 305.972 19.8294 306.144 19.6149C306.315 19.3972 306.403 19.1431 306.406 18.8527C306.403 18.5888 306.325 18.371 306.173 18.1994C306.022 18.0246 305.809 17.8794 305.535 17.7639C305.264 17.6451 304.948 17.5395 304.585 17.4472L303.431 17.1502C302.597 16.9357 301.937 16.6107 301.452 16.1752C300.97 15.7364 300.729 15.154 300.729 14.4281C300.729 13.8309 300.891 13.308 301.214 12.8592C301.541 12.4105 301.985 12.0624 302.546 11.815C303.106 11.5642 303.742 11.4388 304.451 11.4388C305.17 11.4388 305.8 11.5642 306.342 11.815C306.886 12.0624 307.313 12.4072 307.623 12.8493C307.934 13.2882 308.094 13.793 308.103 14.3638H306.337Z" fill="white"/>
<rect x="211.375" y="64.7954" width="140.175" height="72.3536" rx="6.96848" fill="#10132E"/>
<path d="M277.503 99.5454H275.652C275.599 99.2418 275.501 98.9729 275.36 98.7387C275.218 98.5011 275.041 98.2999 274.83 98.1349C274.619 97.9699 274.378 97.8462 274.107 97.7637C273.84 97.6779 273.551 97.635 273.241 97.635C272.69 97.635 272.202 97.7736 271.776 98.0507C271.351 98.3246 271.017 98.7271 270.777 99.2583C270.536 99.7863 270.415 100.431 270.415 101.193C270.415 101.969 270.536 102.622 270.777 103.153C271.021 103.681 271.354 104.081 271.776 104.351C272.202 104.618 272.689 104.752 273.236 104.752C273.54 104.752 273.824 104.712 274.088 104.633C274.355 104.551 274.594 104.43 274.805 104.272C275.02 104.114 275.2 103.919 275.345 103.688C275.493 103.457 275.595 103.193 275.652 102.896L277.503 102.906C277.433 103.388 277.283 103.84 277.052 104.262C276.825 104.684 276.526 105.057 276.156 105.381C275.787 105.701 275.355 105.951 274.86 106.133C274.365 106.311 273.815 106.4 273.212 106.4C272.321 106.4 271.526 106.194 270.826 105.781C270.127 105.369 269.576 104.773 269.173 103.995C268.771 103.216 268.569 102.282 268.569 101.193C268.569 100.101 268.772 99.1676 269.178 98.3922C269.584 97.6136 270.137 97.018 270.836 96.6056C271.535 96.1931 272.327 95.9869 273.212 95.9869C273.776 95.9869 274.3 96.0661 274.785 96.2245C275.27 96.3829 275.703 96.6155 276.082 96.9223C276.462 97.2259 276.773 97.5987 277.018 98.0408C277.265 98.4797 277.427 98.9812 277.503 99.5454ZM284.693 98.9119C284.646 98.4797 284.452 98.1431 284.109 97.9023C283.769 97.6614 283.327 97.541 282.782 97.541C282.399 97.541 282.071 97.5987 281.797 97.7142C281.523 97.8297 281.314 97.9864 281.169 98.1844C281.024 98.3823 280.949 98.6084 280.946 98.8624C280.946 99.0736 280.994 99.2567 281.09 99.4118C281.189 99.5668 281.322 99.6988 281.49 99.8077C281.659 99.9133 281.845 100.002 282.05 100.075C282.254 100.148 282.46 100.209 282.668 100.258L283.619 100.496C284.001 100.585 284.369 100.705 284.722 100.857C285.079 101.009 285.397 101.2 285.677 101.431C285.961 101.662 286.186 101.941 286.351 102.267C286.516 102.594 286.598 102.977 286.598 103.416C286.598 104.01 286.446 104.533 286.143 104.985C285.839 105.433 285.4 105.785 284.826 106.039C284.255 106.29 283.564 106.415 282.752 106.415C281.964 106.415 281.279 106.293 280.699 106.049C280.121 105.804 279.669 105.448 279.342 104.98C279.019 104.511 278.844 103.94 278.818 103.267H280.624C280.651 103.62 280.76 103.914 280.951 104.148C281.142 104.382 281.391 104.557 281.698 104.673C282.008 104.788 282.355 104.846 282.738 104.846C283.137 104.846 283.487 104.787 283.787 104.668C284.09 104.546 284.328 104.377 284.5 104.163C284.671 103.945 284.759 103.691 284.762 103.401C284.759 103.137 284.681 102.919 284.529 102.748C284.377 102.573 284.165 102.427 283.891 102.312C283.62 102.193 283.303 102.088 282.941 101.995L281.787 101.698C280.953 101.484 280.293 101.159 279.808 100.723C279.326 100.284 279.085 99.7021 279.085 98.9762C279.085 98.379 279.247 97.8561 279.57 97.4073C279.897 96.9586 280.341 96.6105 280.901 96.3631C281.462 96.1123 282.098 95.9869 282.807 95.9869C283.526 95.9869 284.156 96.1123 284.697 96.3631C285.242 96.6105 285.669 96.9553 285.979 97.3974C286.289 97.8363 286.45 98.3411 286.459 98.9119H284.693ZM293.743 98.9119C293.697 98.4797 293.503 98.1431 293.159 97.9023C292.82 97.6614 292.377 97.541 291.833 97.541C291.45 97.541 291.122 97.5987 290.848 97.7142C290.574 97.8297 290.365 97.9864 290.22 98.1844C290.074 98.3823 290 98.6084 289.997 98.8624C289.997 99.0736 290.045 99.2567 290.14 99.4118C290.239 99.5668 290.373 99.6988 290.541 99.8077C290.71 99.9133 290.896 100.002 291.101 100.075C291.305 100.148 291.511 100.209 291.719 100.258L292.669 100.496C293.052 100.585 293.42 100.705 293.773 100.857C294.129 101.009 294.448 101.2 294.728 101.431C295.012 101.662 295.236 101.941 295.401 102.267C295.566 102.594 295.649 102.977 295.649 103.416C295.649 104.01 295.497 104.533 295.194 104.985C294.89 105.433 294.451 105.785 293.877 106.039C293.306 106.29 292.615 106.415 291.803 106.415C291.015 106.415 290.33 106.293 289.749 106.049C289.172 105.804 288.72 105.448 288.393 104.98C288.07 104.511 287.895 103.94 287.869 103.267H289.675C289.702 103.62 289.81 103.914 290.002 104.148C290.193 104.382 290.442 104.557 290.749 104.673C291.059 104.788 291.406 104.846 291.788 104.846C292.188 104.846 292.537 104.787 292.838 104.668C293.141 104.546 293.379 104.377 293.55 104.163C293.722 103.945 293.809 103.691 293.813 103.401C293.809 103.137 293.732 102.919 293.58 102.748C293.428 102.573 293.215 102.427 292.942 102.312C292.671 102.193 292.354 102.088 291.991 101.995L290.838 101.698C290.003 101.484 289.344 101.159 288.859 100.723C288.377 100.284 288.136 99.7021 288.136 98.9762C288.136 98.379 288.298 97.8561 288.621 97.4073C288.948 96.9586 289.391 96.6105 289.952 96.3631C290.513 96.1123 291.148 95.9869 291.858 95.9869C292.577 95.9869 293.207 96.1123 293.748 96.3631C294.293 96.6105 294.72 96.9553 295.03 97.3974C295.34 97.8363 295.5 98.3411 295.51 98.9119H293.743Z" fill="white"/>
<rect x="211.375" y="149.344" width="140.175" height="72.3536" rx="6.96848" fill="#10132E"/>
<path d="M263.105 190.81V180.674H264.941V184.965H269.638V180.674H271.479V190.81H269.638V186.504H264.941V190.81H263.105ZM273.03 182.213V180.674H281.117V182.213H277.984V190.81H276.163V182.213H273.03ZM282.676 180.674H284.923L287.932 188.019H288.051L291.06 180.674H293.307V190.81H291.545V183.847H291.451L288.65 190.78H287.334L284.532 183.832H284.438V190.81H282.676V180.674ZM295.307 190.81V180.674H297.143V189.271H301.607V190.81H295.307Z" fill="white"/>
<rect x="211.375" y="233.892" width="140.175" height="72.3536" rx="6.96848" fill="#10132E"/>
<path d="M267.269 265.223V275.359H265.636L260.86 268.454H260.776V275.359H258.94V265.223H260.583L265.354 272.132H265.443V265.223H267.269ZM272.556 275.507C271.794 275.507 271.136 275.349 270.582 275.032C270.031 274.712 269.607 274.26 269.31 273.676C269.013 273.089 268.864 272.397 268.864 271.602C268.864 270.82 269.013 270.134 269.31 269.543C269.61 268.949 270.029 268.487 270.567 268.158C271.105 267.824 271.737 267.658 272.462 267.658C272.931 267.658 273.373 267.734 273.789 267.885C274.208 268.034 274.577 268.265 274.897 268.578C275.221 268.892 275.475 269.291 275.66 269.776C275.844 270.258 275.937 270.832 275.937 271.498V272.048H269.706V270.84H274.219C274.216 270.497 274.142 270.192 273.997 269.924C273.851 269.654 273.649 269.441 273.388 269.286C273.131 269.131 272.83 269.053 272.487 269.053C272.121 269.053 271.799 269.142 271.522 269.321C271.245 269.495 271.029 269.726 270.874 270.013C270.722 270.297 270.644 270.609 270.641 270.949V272.003C270.641 272.445 270.722 272.825 270.884 273.141C271.045 273.455 271.271 273.696 271.562 273.864C271.852 274.029 272.192 274.111 272.581 274.111C272.842 274.111 273.078 274.075 273.289 274.003C273.5 273.927 273.683 273.816 273.838 273.671C273.993 273.526 274.11 273.346 274.19 273.131L275.862 273.32C275.757 273.762 275.556 274.148 275.259 274.478C274.965 274.804 274.589 275.058 274.13 275.24C273.672 275.418 273.147 275.507 272.556 275.507ZM278.754 267.757L280.288 270.563L281.847 267.757H283.743L281.451 271.558L283.782 275.359H281.897L280.288 272.622L278.695 275.359H276.794L279.11 271.558L276.854 267.757H278.754ZM288.925 267.757V269.142H284.555V267.757H288.925ZM285.633 265.935H287.425V273.072C287.425 273.313 287.461 273.498 287.534 273.626C287.61 273.752 287.709 273.838 287.831 273.884C287.953 273.93 288.088 273.953 288.237 273.953C288.349 273.953 288.451 273.945 288.544 273.928C288.639 273.912 288.712 273.897 288.761 273.884L289.063 275.284C288.968 275.317 288.831 275.354 288.652 275.393C288.478 275.433 288.263 275.456 288.009 275.463C287.56 275.476 287.156 275.408 286.797 275.26C286.437 275.108 286.151 274.874 285.94 274.557C285.732 274.24 285.63 273.844 285.633 273.369V265.935ZM294.501 265.223H296.323V272.35C296.319 273.003 296.181 273.565 295.907 274.037C295.633 274.506 295.25 274.867 294.759 275.121C294.27 275.372 293.701 275.497 293.051 275.497C292.457 275.497 291.923 275.392 291.448 275.18C290.976 274.966 290.601 274.649 290.324 274.23C290.047 273.811 289.908 273.29 289.908 272.666H291.735C291.738 272.94 291.797 273.176 291.913 273.374C292.032 273.572 292.195 273.724 292.403 273.829C292.611 273.935 292.85 273.988 293.12 273.988C293.414 273.988 293.663 273.927 293.868 273.805C294.072 273.679 294.227 273.494 294.333 273.25C294.442 273.006 294.498 272.706 294.501 272.35V265.223ZM303.823 268.009C303.777 267.577 303.582 267.24 303.239 266.999C302.899 266.759 302.457 266.638 301.913 266.638C301.53 266.638 301.202 266.696 300.928 266.811C300.654 266.927 300.444 267.084 300.299 267.282C300.154 267.48 300.08 267.706 300.076 267.96C300.076 268.171 300.124 268.354 300.22 268.509C300.319 268.664 300.453 268.796 300.621 268.905C300.789 269.01 300.976 269.1 301.18 269.172C301.385 269.245 301.591 269.306 301.799 269.355L302.749 269.593C303.132 269.682 303.5 269.802 303.853 269.954C304.209 270.106 304.527 270.297 304.808 270.528C305.092 270.759 305.316 271.038 305.481 271.365C305.646 271.691 305.728 272.074 305.728 272.513C305.728 273.107 305.577 273.63 305.273 274.082C304.97 274.53 304.531 274.882 303.957 275.136C303.386 275.387 302.695 275.512 301.883 275.512C301.094 275.512 300.41 275.39 299.829 275.146C299.252 274.902 298.8 274.545 298.473 274.077C298.15 273.608 297.975 273.037 297.948 272.364H299.755C299.781 272.717 299.89 273.011 300.081 273.245C300.273 273.48 300.522 273.654 300.829 273.77C301.139 273.885 301.485 273.943 301.868 273.943C302.267 273.943 302.617 273.884 302.917 273.765C303.221 273.643 303.458 273.475 303.63 273.26C303.802 273.042 303.889 272.788 303.892 272.498C303.889 272.234 303.811 272.016 303.66 271.845C303.508 271.67 303.295 271.525 303.021 271.409C302.751 271.29 302.434 271.185 302.071 271.092L300.918 270.795C300.083 270.581 299.423 270.256 298.938 269.82C298.456 269.382 298.216 268.799 298.216 268.073C298.216 267.476 298.377 266.953 298.701 266.505C299.027 266.056 299.471 265.708 300.032 265.46C300.593 265.209 301.228 265.084 301.937 265.084C302.657 265.084 303.287 265.209 303.828 265.46C304.372 265.708 304.8 266.052 305.11 266.495C305.42 266.933 305.58 267.438 305.59 268.009H303.823Z" fill="white"/>
</g>
<g clip-path="url(#clip2_2001_3900)">
<rect x="361.197" y="-55.7568" width="140.175" height="72.3536" rx="6.96848" fill="#10132E"/>
<rect x="361.197" y="28.7915" width="140.175" height="72.3536" rx="6.96848" fill="#10132E"/>
<path d="M428.446 60.1218H430.267V67.2487C430.264 67.902 430.125 68.4645 429.851 68.9364C429.577 69.4049 429.195 69.7662 428.703 70.0203C428.215 70.271 427.645 70.3964 426.995 70.3964C426.402 70.3964 425.867 70.2908 425.392 70.0796C424.92 69.8652 424.546 69.5484 424.268 69.1294C423.991 68.7104 423.853 68.189 423.853 67.5654H425.679C425.682 67.8393 425.742 68.0752 425.857 68.2732C425.976 68.4711 426.139 68.6229 426.347 68.7285C426.555 68.8341 426.794 68.8869 427.065 68.8869C427.358 68.8869 427.608 68.8258 427.812 68.7038C428.017 68.5784 428.172 68.3936 428.277 68.1495C428.386 67.9053 428.442 67.605 428.446 67.2487V60.1218ZM437.767 62.9082C437.721 62.476 437.527 62.1395 437.183 61.8986C436.844 61.6577 436.401 61.5373 435.857 61.5373C435.474 61.5373 435.146 61.5951 434.872 61.7105C434.598 61.826 434.389 61.9827 434.244 62.1807C434.098 62.3787 434.024 62.6047 434.021 62.8587C434.021 63.0699 434.069 63.253 434.164 63.4081C434.263 63.5632 434.397 63.6952 434.565 63.804C434.734 63.9096 434.92 63.9987 435.125 64.0713C435.329 64.1439 435.535 64.2049 435.743 64.2544L436.693 64.492C437.076 64.5811 437.444 64.7015 437.797 64.8533C438.153 65.0051 438.472 65.1964 438.752 65.4274C439.036 65.6583 439.26 65.9372 439.425 66.2638C439.59 66.5905 439.673 66.9732 439.673 67.412C439.673 68.0059 439.521 68.5289 439.218 68.9809C438.914 69.4296 438.475 69.781 437.901 70.0351C437.33 70.2859 436.639 70.4112 435.827 70.4112C435.039 70.4112 434.354 70.2892 433.773 70.045C433.196 69.8008 432.744 69.4445 432.417 68.976C432.094 68.5074 431.919 67.9366 431.893 67.2635H433.699C433.726 67.6166 433.834 67.9102 434.026 68.1445C434.217 68.3788 434.466 68.5536 434.773 68.6691C435.083 68.7846 435.43 68.8423 435.812 68.8423C436.212 68.8423 436.561 68.7829 436.862 68.6642C437.165 68.5421 437.403 68.3738 437.574 68.1593C437.746 67.9416 437.833 67.6875 437.837 67.3972C437.833 67.1332 437.756 66.9154 437.604 66.7439C437.452 66.569 437.24 66.4238 436.966 66.3083C436.695 66.1896 436.378 66.084 436.015 65.9916L434.862 65.6946C434.027 65.4802 433.368 65.1552 432.883 64.7197C432.401 64.2808 432.16 63.6985 432.16 62.9726C432.16 62.3754 432.322 61.8524 432.645 61.4037C432.972 60.955 433.415 60.6069 433.976 60.3594C434.537 60.1086 435.172 59.9833 435.882 59.9833C436.601 59.9833 437.231 60.1086 437.772 60.3594C438.317 60.6069 438.744 60.9517 439.054 61.3938C439.364 61.8326 439.524 62.3374 439.534 62.9082H437.767Z" fill="white"/>
<rect x="361.197" y="113.34" width="140.175" height="72.3536" rx="6.96848" fill="#10132E"/>
<path d="M408.487 154.806V144.67H412.288C413.066 144.67 413.719 144.816 414.247 145.106C414.779 145.396 415.179 145.796 415.45 146.304C415.724 146.808 415.861 147.383 415.861 148.026C415.861 148.676 415.724 149.253 415.45 149.758C415.176 150.263 414.772 150.661 414.237 150.951C413.703 151.238 413.045 151.382 412.263 151.382H409.744V149.872H412.015C412.471 149.872 412.843 149.793 413.134 149.634C413.424 149.476 413.639 149.258 413.777 148.981C413.919 148.704 413.99 148.386 413.99 148.026C413.99 147.666 413.919 147.35 413.777 147.076C413.639 146.802 413.423 146.589 413.129 146.437C412.839 146.282 412.464 146.205 412.005 146.205H410.323V154.806H408.487ZM418.49 157.657C418.246 157.657 418.02 157.637 417.812 157.598C417.607 157.561 417.444 157.519 417.322 157.469L417.738 156.073C417.998 156.149 418.231 156.186 418.436 156.182C418.64 156.179 418.82 156.115 418.975 155.989C419.133 155.867 419.267 155.663 419.376 155.376L419.529 154.965L416.773 147.204H418.673L420.425 152.945H420.504L422.261 147.204H424.167L421.123 155.727C420.981 156.129 420.793 156.474 420.559 156.761C420.325 157.052 420.038 157.273 419.698 157.425C419.361 157.58 418.959 157.657 418.49 157.657ZM429.203 147.204V148.59H424.833V147.204H429.203ZM425.911 145.383H427.703V152.52C427.703 152.761 427.739 152.945 427.812 153.074C427.888 153.2 427.987 153.285 428.109 153.332C428.231 153.378 428.366 153.401 428.515 153.401C428.627 153.401 428.729 153.393 428.822 153.376C428.917 153.36 428.99 153.345 429.039 153.332L429.341 154.732C429.246 154.765 429.109 154.801 428.93 154.841C428.756 154.881 428.541 154.904 428.287 154.91C427.838 154.924 427.434 154.856 427.074 154.707C426.715 154.556 426.429 154.321 426.218 154.005C426.01 153.688 425.908 153.292 425.911 152.817V145.383ZM432.656 150.352V154.806H430.864V144.67H432.616V148.496H432.705C432.884 148.067 433.159 147.729 433.532 147.482C433.908 147.231 434.387 147.105 434.967 147.105C435.495 147.105 435.955 147.216 436.348 147.437C436.741 147.658 437.044 147.981 437.259 148.407C437.476 148.833 437.585 149.352 437.585 149.966V154.806H435.794V150.243C435.794 149.732 435.662 149.334 435.398 149.05C435.137 148.763 434.771 148.62 434.299 148.62C433.982 148.62 433.699 148.689 433.448 148.828C433.2 148.963 433.006 149.159 432.864 149.417C432.725 149.674 432.656 149.986 432.656 150.352ZM442.728 154.955C441.985 154.955 441.342 154.792 440.797 154.465C440.253 154.138 439.831 153.681 439.53 153.094C439.233 152.507 439.085 151.82 439.085 151.035C439.085 150.25 439.233 149.562 439.53 148.971C439.831 148.381 440.253 147.922 440.797 147.595C441.342 147.269 441.985 147.105 442.728 147.105C443.47 147.105 444.113 147.269 444.658 147.595C445.202 147.922 445.623 148.381 445.92 148.971C446.22 149.562 446.37 150.25 446.37 151.035C446.37 151.82 446.22 152.507 445.92 153.094C445.623 153.681 445.202 154.138 444.658 154.465C444.113 154.792 443.47 154.955 442.728 154.955ZM442.737 153.52C443.14 153.52 443.477 153.409 443.747 153.188C444.018 152.964 444.219 152.663 444.351 152.287C444.486 151.911 444.554 151.492 444.554 151.03C444.554 150.565 444.486 150.144 444.351 149.768C444.219 149.389 444.018 149.087 443.747 148.862C443.477 148.638 443.14 148.526 442.737 148.526C442.325 148.526 441.982 148.638 441.708 148.862C441.438 149.087 441.235 149.389 441.099 149.768C440.967 150.144 440.901 150.565 440.901 151.03C440.901 151.492 440.967 151.911 441.099 152.287C441.235 152.663 441.438 152.964 441.708 153.188C441.982 153.409 442.325 153.52 442.737 153.52ZM449.682 150.352V154.806H447.891V147.204H449.603V148.496H449.692C449.867 148.071 450.146 147.732 450.529 147.482C450.915 147.231 451.392 147.105 451.959 147.105C452.484 147.105 452.941 147.218 453.33 147.442C453.723 147.666 454.026 147.991 454.241 148.417C454.458 148.843 454.566 149.359 454.562 149.966V154.806H452.771V150.243C452.771 149.735 452.639 149.338 452.375 149.05C452.114 148.763 451.753 148.62 451.291 148.62C450.978 148.62 450.699 148.689 450.455 148.828C450.214 148.963 450.024 149.159 449.885 149.417C449.75 149.674 449.682 149.986 449.682 150.352Z" fill="white"/>
<rect x="361.197" y="197.888" width="140.175" height="72.3536" rx="6.96848" fill="#10132E"/>
<path d="M424.107 232.005C424.061 231.573 423.867 231.236 423.523 230.996C423.184 230.755 422.741 230.634 422.197 230.634C421.814 230.634 421.486 230.692 421.212 230.807C420.938 230.923 420.729 231.08 420.584 231.278C420.438 231.476 420.364 231.702 420.361 231.956C420.361 232.167 420.409 232.35 420.504 232.505C420.603 232.66 420.737 232.792 420.905 232.901C421.074 233.007 421.26 233.096 421.465 233.168C421.669 233.241 421.875 233.302 422.083 233.351L423.033 233.589C423.416 233.678 423.784 233.798 424.137 233.95C424.493 234.102 424.812 234.293 425.092 234.524C425.376 234.755 425.6 235.034 425.765 235.361C425.93 235.687 426.013 236.07 426.013 236.509C426.013 237.103 425.861 237.626 425.558 238.078C425.254 238.527 424.815 238.878 424.241 239.132C423.67 239.383 422.979 239.508 422.167 239.508C421.379 239.508 420.694 239.386 420.113 239.142C419.536 238.898 419.084 238.541 418.757 238.073C418.434 237.604 418.259 237.034 418.233 236.36H420.039C420.066 236.714 420.174 237.007 420.366 237.241C420.557 237.476 420.806 237.651 421.113 237.766C421.423 237.882 421.77 237.939 422.153 237.939C422.552 237.939 422.901 237.88 423.202 237.761C423.505 237.639 423.743 237.471 423.914 237.256C424.086 237.039 424.173 236.784 424.177 236.494C424.173 236.23 424.096 236.012 423.944 235.841C423.792 235.666 423.58 235.521 423.306 235.405C423.035 235.286 422.718 235.181 422.355 235.089L421.202 234.792C420.367 234.577 419.708 234.252 419.223 233.817C418.741 233.378 418.5 232.795 418.5 232.07C418.5 231.472 418.662 230.949 418.985 230.501C419.312 230.052 419.755 229.704 420.316 229.456C420.877 229.206 421.512 229.08 422.222 229.08C422.941 229.08 423.571 229.206 424.112 229.456C424.657 229.704 425.084 230.049 425.394 230.491C425.704 230.93 425.864 231.434 425.874 232.005H424.107ZM431.426 235.95H433.089L434.074 237.227L434.777 238.058L436.464 240.226H434.683L433.534 238.771L433.044 238.078L431.426 235.95ZM436.707 234.287C436.707 235.379 436.502 236.314 436.093 237.093C435.687 237.868 435.133 238.462 434.43 238.875C433.731 239.287 432.937 239.493 432.05 239.493C431.162 239.493 430.367 239.287 429.664 238.875C428.965 238.459 428.41 237.863 428.001 237.088C427.595 236.309 427.392 235.376 427.392 234.287C427.392 233.195 427.595 232.261 428.001 231.485C428.41 230.707 428.965 230.111 429.664 229.699C430.367 229.286 431.162 229.08 432.05 229.08C432.937 229.08 433.731 229.286 434.43 229.699C435.133 230.111 435.687 230.707 436.093 231.485C436.502 232.261 436.707 233.195 436.707 234.287ZM434.861 234.287C434.861 233.518 434.74 232.87 434.5 232.342C434.262 231.81 433.932 231.41 433.51 231.139C433.087 230.865 432.601 230.728 432.05 230.728C431.499 230.728 431.012 230.865 430.59 231.139C430.167 231.41 429.836 231.81 429.595 232.342C429.357 232.87 429.239 233.518 429.239 234.287C429.239 235.056 429.357 235.706 429.595 236.237C429.836 236.765 430.167 237.166 430.59 237.439C431.012 237.71 431.499 237.845 432.05 237.845C432.601 237.845 433.087 237.71 433.51 237.439C433.932 237.166 434.262 236.765 434.5 236.237C434.74 235.706 434.861 235.056 434.861 234.287ZM438.456 239.355V229.219H440.293V237.816H444.757V239.355H438.456Z" fill="white"/>
</g>
<path d="M23.4659 104.318V114.5H22.233V104.318H23.4659ZM32.8187 114.659C32.1028 114.659 31.4863 114.49 30.9693 114.152C30.4522 113.814 30.0545 113.348 29.7761 112.755C29.4977 112.162 29.3585 111.484 29.3585 110.722C29.3585 109.946 29.501 109.262 29.786 108.668C30.0744 108.072 30.4754 107.606 30.9892 107.271C31.5062 106.933 32.1094 106.764 32.7988 106.764C33.3358 106.764 33.8197 106.864 34.2505 107.062C34.6814 107.261 35.0344 107.54 35.3095 107.898C35.5846 108.256 35.7553 108.673 35.8216 109.151H34.6483C34.5588 108.803 34.3599 108.494 34.0517 108.226C33.7467 107.954 33.3358 107.818 32.8187 107.818C32.3613 107.818 31.9603 107.937 31.6156 108.176C31.2742 108.411 31.0074 108.745 30.8152 109.175C30.6262 109.603 30.5318 110.105 30.5318 110.682C30.5318 111.272 30.6246 111.786 30.8102 112.223C30.9991 112.661 31.2643 113 31.6056 113.242C31.9503 113.484 32.3547 113.605 32.8187 113.605C33.1236 113.605 33.4004 113.552 33.649 113.446C33.8975 113.34 34.108 113.188 34.2804 112.989C34.4527 112.79 34.5753 112.551 34.6483 112.273H35.8216C35.7553 112.723 35.5912 113.129 35.3294 113.491C35.0708 113.849 34.7278 114.134 34.3002 114.346C33.876 114.555 33.3822 114.659 32.8187 114.659ZM40.639 114.659C39.9496 114.659 39.3448 114.495 38.8244 114.167C38.3074 113.839 37.903 113.38 37.6113 112.79C37.323 112.2 37.1788 111.51 37.1788 110.722C37.1788 109.926 37.323 109.232 37.6113 108.638C37.903 108.045 38.3074 107.585 38.8244 107.256C39.3448 106.928 39.9496 106.764 40.639 106.764C41.3284 106.764 41.9316 106.928 42.4487 107.256C42.969 107.585 43.3734 108.045 43.6618 108.638C43.9534 109.232 44.0993 109.926 44.0993 110.722C44.0993 111.51 43.9534 112.2 43.6618 112.79C43.3734 113.38 42.969 113.839 42.4487 114.167C41.9316 114.495 41.3284 114.659 40.639 114.659ZM40.639 113.605C41.1627 113.605 41.5936 113.471 41.9316 113.202C42.2697 112.934 42.5199 112.581 42.6824 112.143C42.8448 111.706 42.926 111.232 42.926 110.722C42.926 110.211 42.8448 109.736 42.6824 109.295C42.5199 108.854 42.2697 108.498 41.9316 108.226C41.5936 107.954 41.1627 107.818 40.639 107.818C40.1154 107.818 39.6845 107.954 39.3464 108.226C39.0083 108.498 38.7581 108.854 38.5957 109.295C38.4333 109.736 38.3521 110.211 38.3521 110.722C38.3521 111.232 38.4333 111.706 38.5957 112.143C38.7581 112.581 39.0083 112.934 39.3464 113.202C39.6845 113.471 40.1154 113.605 40.639 113.605ZM47.0636 109.906V114.5H45.8903V106.864H47.0238V108.057H47.1232C47.3022 107.669 47.574 107.357 47.9386 107.122C48.3031 106.884 48.7738 106.764 49.3505 106.764C49.8675 106.764 50.32 106.87 50.7077 107.082C51.0955 107.291 51.3971 107.609 51.6126 108.037C51.828 108.461 51.9357 108.998 51.9357 109.648V114.5H50.7624V109.727C50.7624 109.127 50.6067 108.66 50.2951 108.325C49.9835 107.987 49.556 107.818 49.0124 107.818C48.6379 107.818 48.3031 107.899 48.0082 108.062C47.7165 108.224 47.4862 108.461 47.3171 108.773C47.1481 109.084 47.0636 109.462 47.0636 109.906ZM59.4888 108.574L58.4348 108.872C58.3685 108.696 58.2708 108.526 58.1415 108.36C58.0156 108.191 57.8432 108.052 57.6245 107.942C57.4057 107.833 57.1257 107.778 56.7843 107.778C56.3169 107.778 55.9275 107.886 55.6159 108.102C55.3077 108.314 55.1536 108.584 55.1536 108.912C55.1536 109.204 55.2596 109.434 55.4718 109.603C55.6839 109.772 56.0153 109.913 56.4661 110.026L57.5996 110.304C58.2824 110.47 58.7911 110.723 59.1259 111.065C59.4606 111.403 59.628 111.839 59.628 112.372C59.628 112.81 59.5021 113.201 59.2502 113.545C59.0016 113.89 58.6536 114.162 58.2061 114.361C57.7587 114.56 57.2383 114.659 56.6451 114.659C55.8662 114.659 55.2215 114.49 54.7111 114.152C54.2007 113.814 53.8775 113.32 53.7417 112.67L54.8553 112.392C54.9614 112.803 55.1619 113.111 55.4569 113.317C55.7551 113.522 56.1446 113.625 56.6252 113.625C57.1721 113.625 57.6062 113.509 57.9277 113.277C58.2525 113.042 58.415 112.76 58.415 112.432C58.415 112.167 58.3221 111.945 58.1365 111.766C57.9509 111.583 57.6659 111.447 57.2814 111.358L56.0087 111.06C55.3094 110.894 54.7956 110.637 54.4675 110.289C54.1427 109.938 53.9803 109.499 53.9803 108.972C53.9803 108.541 54.1013 108.16 54.3432 107.828C54.5885 107.497 54.9216 107.237 55.3425 107.048C55.7667 106.859 56.2473 106.764 56.7843 106.764C57.54 106.764 58.1332 106.93 58.5641 107.261C58.9983 107.593 59.3065 108.03 59.4888 108.574ZM64.7152 106.864V107.858H60.7578V106.864H64.7152ZM61.9112 105.034H63.0845V112.312C63.0845 112.644 63.1326 112.893 63.2287 113.058C63.3281 113.221 63.4541 113.33 63.6065 113.386C63.7623 113.439 63.9264 113.466 64.0987 113.466C64.228 113.466 64.334 113.459 64.4169 113.446C64.4998 113.429 64.5661 113.416 64.6158 113.406L64.8544 114.46C64.7749 114.49 64.6638 114.52 64.5213 114.55C64.3788 114.583 64.1982 114.599 63.9794 114.599C63.648 114.599 63.3232 114.528 63.005 114.386C62.6901 114.243 62.4283 114.026 62.2195 113.734C62.014 113.443 61.9112 113.075 61.9112 112.631V105.034ZM68.7273 114.679C68.2434 114.679 67.8042 114.588 67.4098 114.406C67.0154 114.22 66.7022 113.953 66.4702 113.605C66.2382 113.254 66.1222 112.83 66.1222 112.332C66.1222 111.895 66.2083 111.54 66.3807 111.268C66.553 110.993 66.7834 110.778 67.0717 110.622C67.3601 110.466 67.6783 110.35 68.0263 110.274C68.3776 110.195 68.7306 110.132 69.0852 110.085C69.5492 110.026 69.9254 109.981 70.2138 109.951C70.5054 109.918 70.7176 109.863 70.8501 109.787C70.986 109.711 71.054 109.578 71.054 109.389V109.349C71.054 108.859 70.9197 108.478 70.6513 108.206C70.3861 107.934 69.9834 107.798 69.4432 107.798C68.883 107.798 68.4439 107.921 68.1257 108.166C67.8075 108.411 67.5838 108.673 67.4545 108.952L66.3409 108.554C66.5398 108.09 66.8049 107.729 67.1364 107.47C67.4711 107.208 67.8357 107.026 68.2301 106.923C68.6278 106.817 69.0189 106.764 69.4034 106.764C69.6487 106.764 69.9304 106.794 70.2486 106.854C70.5701 106.91 70.88 107.028 71.1783 107.207C71.4799 107.386 71.7301 107.656 71.929 108.017C72.1278 108.378 72.2273 108.862 72.2273 109.469V114.5H71.054V113.466H70.9943C70.9148 113.632 70.7822 113.809 70.5966 113.998C70.411 114.187 70.1641 114.348 69.8558 114.48C69.5476 114.613 69.1714 114.679 68.7273 114.679ZM68.9062 113.625C69.3703 113.625 69.7614 113.534 70.0795 113.352C70.401 113.169 70.643 112.934 70.8054 112.646C70.9711 112.357 71.054 112.054 71.054 111.736V110.662C71.0043 110.722 70.8949 110.776 70.7259 110.826C70.5601 110.872 70.3679 110.914 70.1491 110.95C69.9337 110.983 69.7232 111.013 69.5178 111.04C69.3156 111.063 69.1515 111.083 69.0256 111.099C68.7206 111.139 68.4356 111.204 68.1705 111.293C67.9086 111.379 67.6965 111.51 67.5341 111.686C67.375 111.858 67.2955 112.094 67.2955 112.392C67.2955 112.8 67.4463 113.108 67.7479 113.317C68.0528 113.522 68.4389 113.625 68.9062 113.625ZM75.5421 109.906V114.5H74.3688V106.864H75.5023V108.057H75.6017C75.7807 107.669 76.0525 107.357 76.4171 107.122C76.7817 106.884 77.2523 106.764 77.829 106.764C78.3461 106.764 78.7985 106.87 79.1863 107.082C79.574 107.291 79.8757 107.609 80.0911 108.037C80.3065 108.461 80.4142 108.998 80.4142 109.648V114.5H79.2409V109.727C79.2409 109.127 79.0852 108.66 78.7736 108.325C78.4621 107.987 78.0345 107.818 77.4909 107.818C77.1164 107.818 76.7817 107.899 76.4867 108.062C76.195 108.224 75.9647 108.461 75.7956 108.773C75.6266 109.084 75.5421 109.462 75.5421 109.906ZM85.8793 106.864V107.858H81.9219V106.864H85.8793ZM83.0753 105.034H84.2486V112.312C84.2486 112.644 84.2966 112.893 84.3928 113.058C84.4922 113.221 84.6181 113.33 84.7706 113.386C84.9264 113.439 85.0904 113.466 85.2628 113.466C85.392 113.466 85.4981 113.459 85.581 113.446C85.6638 113.429 85.7301 113.416 85.7798 113.406L86.0185 114.46C85.9389 114.49 85.8279 114.52 85.6854 114.55C85.5429 114.583 85.3622 114.599 85.1435 114.599C84.812 114.599 84.4872 114.528 84.169 114.386C83.8542 114.243 83.5923 114.026 83.3835 113.734C83.178 113.443 83.0753 113.075 83.0753 112.631V105.034ZM88.9815 104.318V114.5H87.8082V104.318H88.9815ZM91.8862 117.364C91.6873 117.364 91.51 117.347 91.3542 117.314C91.1984 117.284 91.0907 117.254 91.0311 117.224L91.3294 116.19C91.6144 116.263 91.8663 116.29 92.085 116.27C92.3038 116.25 92.4977 116.152 92.6667 115.977C92.8391 115.804 92.9965 115.524 93.139 115.136L93.3578 114.54L90.5339 106.864H91.8066L93.9146 112.949H93.9941L96.1021 106.864H97.3748L94.1333 115.614C93.9875 116.008 93.8069 116.335 93.5914 116.593C93.376 116.855 93.1258 117.049 92.8407 117.175C92.559 117.301 92.2408 117.364 91.8862 117.364ZM106.182 106.864V107.858H102.225V106.864H106.182ZM103.378 105.034H104.551V112.312C104.551 112.644 104.599 112.893 104.695 113.058C104.795 113.221 104.921 113.33 105.073 113.386C105.229 113.439 105.393 113.466 105.566 113.466C105.695 113.466 105.801 113.459 105.884 113.446C105.967 113.429 106.033 113.416 106.083 113.406L106.321 114.46C106.242 114.49 106.131 114.52 105.988 114.55C105.846 114.583 105.665 114.599 105.446 114.599C105.115 114.599 104.79 114.528 104.472 114.386C104.157 114.243 103.895 114.026 103.686 113.734C103.481 113.443 103.378 113.075 103.378 112.631V105.034ZM107.947 114.5V106.864H109.08V108.017H109.16C109.299 107.639 109.551 107.333 109.916 107.097C110.28 106.862 110.691 106.744 111.149 106.744C111.235 106.744 111.343 106.746 111.472 106.749C111.601 106.753 111.699 106.758 111.765 106.764V107.957C111.725 107.947 111.634 107.933 111.492 107.913C111.352 107.889 111.205 107.878 111.049 107.878C110.678 107.878 110.347 107.956 110.055 108.112C109.767 108.264 109.538 108.476 109.369 108.748C109.203 109.016 109.12 109.323 109.12 109.668V114.5H107.947ZM114.144 117.364C113.945 117.364 113.768 117.347 113.612 117.314C113.456 117.284 113.349 117.254 113.289 117.224L113.587 116.19C113.872 116.263 114.124 116.29 114.343 116.27C114.562 116.25 114.756 116.152 114.925 115.977C115.097 115.804 115.254 115.524 115.397 115.136L115.616 114.54L112.792 106.864H114.064L116.172 112.949H116.252L118.36 106.864H119.633L116.391 115.614C116.245 116.008 116.065 116.335 115.849 116.593C115.634 116.855 115.384 117.049 115.099 117.175C114.817 117.301 114.499 117.364 114.144 117.364ZM128.44 106.864V107.858H124.482V106.864H128.44ZM125.636 105.034H126.809V112.312C126.809 112.644 126.857 112.893 126.953 113.058C127.053 113.221 127.179 113.33 127.331 113.386C127.487 113.439 127.651 113.466 127.823 113.466C127.953 113.466 128.059 113.459 128.142 113.446C128.224 113.429 128.291 113.416 128.34 113.406L128.579 114.46C128.499 114.49 128.388 114.52 128.246 114.55C128.103 114.583 127.923 114.599 127.704 114.599C127.373 114.599 127.048 114.528 126.73 114.386C126.415 114.243 126.153 114.026 125.944 113.734C125.739 113.443 125.636 113.075 125.636 112.631V105.034ZM133.225 114.659C132.536 114.659 131.931 114.495 131.41 114.167C130.893 113.839 130.489 113.38 130.197 112.79C129.909 112.2 129.765 111.51 129.765 110.722C129.765 109.926 129.909 109.232 130.197 108.638C130.489 108.045 130.893 107.585 131.41 107.256C131.931 106.928 132.536 106.764 133.225 106.764C133.914 106.764 134.518 106.928 135.035 107.256C135.555 107.585 135.959 108.045 136.248 108.638C136.539 109.232 136.685 109.926 136.685 110.722C136.685 111.51 136.539 112.2 136.248 112.79C135.959 113.38 135.555 113.839 135.035 114.167C134.518 114.495 133.914 114.659 133.225 114.659ZM133.225 113.605C133.749 113.605 134.18 113.471 134.518 113.202C134.856 112.934 135.106 112.581 135.268 112.143C135.431 111.706 135.512 111.232 135.512 110.722C135.512 110.211 135.431 109.736 135.268 109.295C135.106 108.854 134.856 108.498 134.518 108.226C134.18 107.954 133.749 107.818 133.225 107.818C132.701 107.818 132.27 107.954 131.932 108.226C131.594 108.498 131.344 108.854 131.182 109.295C131.019 109.736 130.938 110.211 130.938 110.722C130.938 111.232 131.019 111.706 131.182 112.143C131.344 112.581 131.594 112.934 131.932 113.202C132.27 113.471 132.701 113.605 133.225 113.605ZM142.414 114.5V106.864H143.587V114.5H142.414ZM143.01 105.591C142.782 105.591 142.584 105.513 142.419 105.357C142.256 105.201 142.175 105.014 142.175 104.795C142.175 104.577 142.256 104.389 142.419 104.234C142.584 104.078 142.782 104 143.01 104C143.239 104 143.435 104.078 143.597 104.234C143.763 104.389 143.846 104.577 143.846 104.795C143.846 105.014 143.763 105.201 143.597 105.357C143.435 105.513 143.239 105.591 143.01 105.591ZM145.736 114.5V106.864H146.869V108.057H146.969C147.128 107.649 147.385 107.333 147.74 107.107C148.094 106.879 148.52 106.764 149.017 106.764C149.521 106.764 149.94 106.879 150.275 107.107C150.613 107.333 150.877 107.649 151.066 108.057H151.145C151.341 107.662 151.634 107.349 152.025 107.117C152.416 106.882 152.885 106.764 153.432 106.764C154.115 106.764 154.673 106.978 155.107 107.406C155.542 107.83 155.759 108.491 155.759 109.389V114.5H154.585V109.389C154.585 108.826 154.431 108.423 154.123 108.181C153.815 107.939 153.452 107.818 153.034 107.818C152.497 107.818 152.081 107.981 151.786 108.305C151.491 108.627 151.344 109.035 151.344 109.528V114.5H150.151V109.27C150.151 108.836 150.01 108.486 149.728 108.221C149.446 107.952 149.084 107.818 148.639 107.818C148.334 107.818 148.049 107.899 147.784 108.062C147.522 108.224 147.31 108.45 147.148 108.738C146.989 109.023 146.909 109.353 146.909 109.727V114.5H145.736ZM157.904 117.364V106.864H159.037V108.077H159.177C159.263 107.944 159.382 107.775 159.535 107.57C159.69 107.361 159.912 107.175 160.201 107.013C160.492 106.847 160.887 106.764 161.384 106.764C162.027 106.764 162.594 106.925 163.084 107.246C163.575 107.568 163.958 108.024 164.233 108.614C164.508 109.204 164.645 109.9 164.645 110.702C164.645 111.51 164.508 112.211 164.233 112.805C163.958 113.395 163.577 113.852 163.089 114.177C162.602 114.498 162.04 114.659 161.404 114.659C160.913 114.659 160.521 114.578 160.226 114.415C159.931 114.25 159.704 114.062 159.545 113.854C159.385 113.642 159.263 113.466 159.177 113.327H159.077V117.364H157.904ZM159.057 110.682C159.057 111.259 159.142 111.767 159.311 112.208C159.48 112.646 159.727 112.989 160.052 113.237C160.376 113.482 160.774 113.605 161.245 113.605C161.735 113.605 162.145 113.476 162.473 113.217C162.804 112.955 163.053 112.604 163.219 112.163C163.388 111.719 163.472 111.225 163.472 110.682C163.472 110.145 163.389 109.661 163.224 109.23C163.061 108.796 162.814 108.453 162.483 108.201C162.155 107.946 161.742 107.818 161.245 107.818C160.768 107.818 160.367 107.939 160.042 108.181C159.717 108.42 159.472 108.754 159.306 109.185C159.14 109.613 159.057 110.112 159.057 110.682ZM166.435 114.5V106.864H167.569V108.017H167.648C167.787 107.639 168.039 107.333 168.404 107.097C168.769 106.862 169.18 106.744 169.637 106.744C169.723 106.744 169.831 106.746 169.96 106.749C170.089 106.753 170.187 106.758 170.253 106.764V107.957C170.214 107.947 170.122 107.933 169.98 107.913C169.841 107.889 169.693 107.878 169.537 107.878C169.166 107.878 168.835 107.956 168.543 108.112C168.255 108.264 168.026 108.476 167.857 108.748C167.691 109.016 167.608 109.323 167.608 109.668V114.5H166.435ZM174.514 114.659C173.825 114.659 173.22 114.495 172.699 114.167C172.182 113.839 171.778 113.38 171.486 112.79C171.198 112.2 171.054 111.51 171.054 110.722C171.054 109.926 171.198 109.232 171.486 108.638C171.778 108.045 172.182 107.585 172.699 107.256C173.22 106.928 173.825 106.764 174.514 106.764C175.203 106.764 175.807 106.928 176.324 107.256C176.844 107.585 177.248 108.045 177.537 108.638C177.828 109.232 177.974 109.926 177.974 110.722C177.974 111.51 177.828 112.2 177.537 112.79C177.248 113.38 176.844 113.839 176.324 114.167C175.807 114.495 175.203 114.659 174.514 114.659ZM174.514 113.605C175.038 113.605 175.469 113.471 175.807 113.202C176.145 112.934 176.395 112.581 176.557 112.143C176.72 111.706 176.801 111.232 176.801 110.722C176.801 110.211 176.72 109.736 176.557 109.295C176.395 108.854 176.145 108.498 175.807 108.226C175.469 107.954 175.038 107.818 174.514 107.818C173.99 107.818 173.559 107.954 173.221 108.226C172.883 108.498 172.633 108.854 172.471 109.295C172.308 109.736 172.227 110.211 172.227 110.722C172.227 111.232 172.308 111.706 172.471 112.143C172.633 112.581 172.883 112.934 173.221 113.202C173.559 113.471 173.99 113.605 174.514 113.605ZM185.736 106.864L182.912 114.5H181.719L178.895 106.864H180.168L182.276 112.949H182.355L184.463 106.864H185.736ZM190.213 114.659C189.477 114.659 188.843 114.497 188.309 114.172C187.779 113.844 187.369 113.386 187.081 112.8C186.796 112.21 186.653 111.524 186.653 110.741C186.653 109.959 186.796 109.27 187.081 108.673C187.369 108.073 187.77 107.606 188.284 107.271C188.801 106.933 189.404 106.764 190.094 106.764C190.491 106.764 190.884 106.83 191.272 106.963C191.66 107.096 192.013 107.311 192.331 107.609C192.649 107.904 192.903 108.295 193.092 108.783C193.281 109.27 193.375 109.87 193.375 110.582V111.08H187.489V110.065H192.182C192.182 109.634 192.096 109.25 191.923 108.912C191.754 108.574 191.512 108.307 191.197 108.112C190.886 107.916 190.518 107.818 190.094 107.818C189.626 107.818 189.222 107.934 188.881 108.166C188.543 108.395 188.282 108.693 188.1 109.061C187.918 109.429 187.827 109.823 187.827 110.244V110.92C187.827 111.497 187.926 111.986 188.125 112.387C188.327 112.785 188.607 113.088 188.965 113.297C189.323 113.502 189.739 113.605 190.213 113.605C190.521 113.605 190.8 113.562 191.048 113.476C191.3 113.386 191.517 113.254 191.7 113.078C191.882 112.899 192.023 112.677 192.122 112.412L193.256 112.73C193.136 113.115 192.936 113.453 192.654 113.744C192.372 114.033 192.024 114.258 191.61 114.42C191.196 114.58 190.73 114.659 190.213 114.659Z" fill="#C1C2D3"/>
<path d="M23.0227 135.227H29.0909L35.5 150.864H35.7727L42.1818 135.227H48.25V158.5H43.4773V143.352H43.2841L37.2614 158.386H34.0114L27.9886 143.295H27.7955V158.5H23.0227V135.227ZM54.8817 165.045C54.2681 165.045 53.6923 164.996 53.1544 164.898C52.6241 164.807 52.1847 164.689 51.8363 164.545L52.9272 160.932C53.4953 161.106 54.0067 161.201 54.4613 161.216C54.9234 161.231 55.3211 161.125 55.6544 160.898C55.9953 160.67 56.2719 160.284 56.484 159.739L56.7681 159L50.5067 141.045H55.5976L59.2113 153.864H59.3931L63.0408 141.045H68.1658L61.3817 160.386C61.0559 161.326 60.6128 162.144 60.0522 162.841C59.4991 163.545 58.7984 164.087 57.9499 164.466C57.1014 164.852 56.0787 165.045 54.8817 165.045ZM86.6934 141.045V144.682H76.182V141.045H86.6934ZM78.5684 136.864H83.4093V153.136C83.4093 153.583 83.4775 153.932 83.6139 154.182C83.7502 154.424 83.9396 154.595 84.182 154.693C84.432 154.792 84.7199 154.841 85.0457 154.841C85.273 154.841 85.5002 154.822 85.7275 154.784C85.9548 154.739 86.129 154.705 86.2502 154.682L87.0116 158.284C86.7692 158.36 86.4283 158.447 85.9889 158.545C85.5495 158.652 85.0154 158.716 84.3866 158.739C83.2199 158.784 82.1972 158.629 81.3184 158.273C80.4472 157.917 79.7692 157.364 79.2843 156.614C78.7995 155.864 78.5608 154.917 78.5684 153.773V136.864ZM97.2939 158.841C95.4984 158.841 93.953 158.477 92.6575 157.75C91.3696 157.015 90.3772 155.977 89.6802 154.636C88.9833 153.288 88.6348 151.693 88.6348 149.852C88.6348 148.057 88.9833 146.481 89.6802 145.125C90.3772 143.769 91.3583 142.712 92.6234 141.955C93.8961 141.197 95.3886 140.818 97.1007 140.818C98.2522 140.818 99.3242 141.004 100.317 141.375C101.317 141.739 102.188 142.288 102.93 143.023C103.68 143.758 104.264 144.682 104.68 145.795C105.097 146.902 105.305 148.197 105.305 149.682V151.011H90.5666V148.011H100.748C100.748 147.314 100.597 146.697 100.294 146.159C99.9908 145.621 99.5704 145.201 99.0325 144.898C98.5022 144.587 97.8848 144.432 97.1802 144.432C96.4454 144.432 95.7939 144.602 95.2257 144.943C94.6651 145.277 94.2257 145.727 93.9075 146.295C93.5893 146.856 93.4264 147.481 93.4189 148.17V151.023C93.4189 151.886 93.578 152.633 93.8961 153.261C94.2219 153.89 94.6802 154.375 95.2711 154.716C95.862 155.057 96.5628 155.227 97.3734 155.227C97.9113 155.227 98.4037 155.152 98.8507 155C99.2977 154.848 99.6802 154.621 99.9984 154.318C100.317 154.015 100.559 153.644 100.726 153.205L105.203 153.5C104.976 154.576 104.51 155.515 103.805 156.318C103.108 157.114 102.207 157.735 101.101 158.182C100.002 158.621 98.7333 158.841 97.2939 158.841ZM116.031 158.841C114.243 158.841 112.705 158.462 111.417 157.705C110.137 156.939 109.152 155.879 108.463 154.523C107.781 153.167 107.44 151.606 107.44 149.841C107.44 148.053 107.784 146.485 108.474 145.136C109.171 143.78 110.159 142.723 111.44 141.966C112.72 141.201 114.243 140.818 116.008 140.818C117.531 140.818 118.864 141.095 120.008 141.648C121.152 142.201 122.057 142.977 122.724 143.977C123.391 144.977 123.758 146.152 123.826 147.5H119.258C119.129 146.629 118.788 145.928 118.235 145.398C117.69 144.86 116.974 144.591 116.088 144.591C115.338 144.591 114.682 144.795 114.122 145.205C113.569 145.606 113.137 146.193 112.826 146.966C112.516 147.739 112.36 148.674 112.36 149.773C112.36 150.886 112.512 151.833 112.815 152.614C113.125 153.394 113.561 153.989 114.122 154.398C114.682 154.807 115.338 155.011 116.088 155.011C116.641 155.011 117.137 154.898 117.576 154.67C118.023 154.443 118.391 154.114 118.678 153.682C118.974 153.242 119.167 152.716 119.258 152.102H123.826C123.75 153.436 123.387 154.61 122.735 155.625C122.091 156.633 121.201 157.42 120.065 157.989C118.928 158.557 117.584 158.841 116.031 158.841ZM131.446 148.409V158.5H126.606V135.227H131.31V144.125H131.515C131.909 143.095 132.545 142.288 133.424 141.705C134.303 141.114 135.405 140.818 136.731 140.818C137.943 140.818 139 141.083 139.901 141.614C140.81 142.136 141.515 142.89 142.015 143.875C142.522 144.852 142.772 146.023 142.765 147.386V158.5H137.924V148.25C137.931 147.174 137.659 146.337 137.106 145.739C136.56 145.14 135.795 144.841 134.81 144.841C134.151 144.841 133.568 144.981 133.06 145.261C132.56 145.542 132.166 145.951 131.878 146.489C131.598 147.019 131.454 147.659 131.446 148.409ZM167.863 146.023L163.431 146.295C163.356 145.917 163.193 145.576 162.943 145.273C162.693 144.962 162.363 144.716 161.954 144.534C161.553 144.345 161.072 144.25 160.511 144.25C159.761 144.25 159.128 144.409 158.613 144.727C158.098 145.038 157.841 145.455 157.841 145.977C157.841 146.394 158.007 146.746 158.341 147.034C158.674 147.322 159.246 147.553 160.056 147.727L163.216 148.364C164.913 148.712 166.178 149.273 167.011 150.045C167.844 150.818 168.261 151.833 168.261 153.091C168.261 154.235 167.924 155.239 167.25 156.102C166.583 156.966 165.666 157.64 164.5 158.125C163.341 158.602 162.003 158.841 160.488 158.841C158.178 158.841 156.337 158.36 154.966 157.398C153.602 156.428 152.803 155.11 152.568 153.443L157.329 153.193C157.473 153.898 157.822 154.436 158.375 154.807C158.928 155.17 159.636 155.352 160.5 155.352C161.348 155.352 162.03 155.189 162.545 154.864C163.068 154.53 163.333 154.102 163.341 153.58C163.333 153.14 163.147 152.78 162.784 152.5C162.42 152.212 161.86 151.992 161.102 151.841L158.079 151.239C156.375 150.898 155.106 150.307 154.272 149.466C153.447 148.625 153.034 147.553 153.034 146.25C153.034 145.129 153.337 144.163 153.943 143.352C154.556 142.542 155.416 141.917 156.522 141.477C157.636 141.038 158.939 140.818 160.431 140.818C162.636 140.818 164.371 141.284 165.636 142.216C166.909 143.148 167.651 144.417 167.863 146.023ZM180.273 141.045V144.682H169.762V141.045H180.273ZM172.148 136.864H176.989V153.136C176.989 153.583 177.057 153.932 177.194 154.182C177.33 154.424 177.52 154.595 177.762 154.693C178.012 154.792 178.3 154.841 178.626 154.841C178.853 154.841 179.08 154.822 179.307 154.784C179.535 154.739 179.709 154.705 179.83 154.682L180.592 158.284C180.349 158.36 180.008 158.447 179.569 158.545C179.129 158.652 178.595 158.716 177.967 158.739C176.8 158.784 175.777 158.629 174.898 158.273C174.027 157.917 173.349 157.364 172.864 156.614C172.379 155.864 172.141 154.917 172.148 153.773V136.864ZM188.084 158.83C186.97 158.83 185.978 158.636 185.107 158.25C184.236 157.856 183.546 157.277 183.039 156.511C182.539 155.739 182.289 154.777 182.289 153.625C182.289 152.655 182.467 151.841 182.823 151.182C183.179 150.523 183.664 149.992 184.277 149.591C184.891 149.189 185.588 148.886 186.368 148.682C187.156 148.477 187.982 148.333 188.845 148.25C189.861 148.144 190.679 148.045 191.3 147.955C191.921 147.856 192.372 147.712 192.652 147.523C192.933 147.333 193.073 147.053 193.073 146.682V146.614C193.073 145.894 192.845 145.337 192.391 144.943C191.944 144.549 191.308 144.352 190.482 144.352C189.611 144.352 188.917 144.545 188.402 144.932C187.887 145.311 187.546 145.788 187.38 146.364L182.902 146C183.13 144.939 183.577 144.023 184.243 143.25C184.91 142.47 185.77 141.871 186.823 141.455C187.883 141.03 189.111 140.818 190.505 140.818C191.474 140.818 192.402 140.932 193.289 141.159C194.183 141.386 194.974 141.739 195.664 142.216C196.361 142.693 196.91 143.307 197.311 144.057C197.713 144.799 197.914 145.689 197.914 146.727V158.5H193.323V156.08H193.186C192.906 156.625 192.531 157.106 192.061 157.523C191.592 157.932 191.027 158.254 190.368 158.489C189.709 158.716 188.948 158.83 188.084 158.83ZM189.47 155.489C190.183 155.489 190.811 155.348 191.357 155.068C191.902 154.78 192.33 154.394 192.641 153.909C192.952 153.424 193.107 152.875 193.107 152.261V150.409C192.955 150.508 192.747 150.598 192.482 150.682C192.224 150.758 191.933 150.83 191.607 150.898C191.281 150.958 190.955 151.015 190.63 151.068C190.304 151.114 190.008 151.155 189.743 151.193C189.175 151.277 188.679 151.409 188.255 151.591C187.83 151.773 187.501 152.019 187.266 152.33C187.031 152.633 186.914 153.011 186.914 153.466C186.914 154.125 187.152 154.629 187.63 154.977C188.114 155.318 188.728 155.489 189.47 155.489ZM209.236 158.841C207.448 158.841 205.91 158.462 204.622 157.705C203.342 156.939 202.357 155.879 201.667 154.523C200.986 153.167 200.645 151.606 200.645 149.841C200.645 148.053 200.989 146.485 201.679 145.136C202.376 143.78 203.364 142.723 204.645 141.966C205.925 141.201 207.448 140.818 209.213 140.818C210.736 140.818 212.069 141.095 213.213 141.648C214.357 142.201 215.262 142.977 215.929 143.977C216.596 144.977 216.963 146.152 217.031 147.5H212.463C212.334 146.629 211.993 145.928 211.44 145.398C210.895 144.86 210.179 144.591 209.292 144.591C208.542 144.591 207.887 144.795 207.327 145.205C206.774 145.606 206.342 146.193 206.031 146.966C205.721 147.739 205.565 148.674 205.565 149.773C205.565 150.886 205.717 151.833 206.02 152.614C206.33 153.394 206.766 153.989 207.327 154.398C207.887 154.807 208.542 155.011 209.292 155.011C209.846 155.011 210.342 154.898 210.781 154.67C211.228 154.443 211.596 154.114 211.883 153.682C212.179 153.242 212.372 152.716 212.463 152.102H217.031C216.955 153.436 216.592 154.61 215.94 155.625C215.296 156.633 214.406 157.42 213.27 157.989C212.133 158.557 210.789 158.841 209.236 158.841ZM224.197 153.477L224.208 147.67H224.913L230.504 141.045H236.061L228.549 149.818H227.401L224.197 153.477ZM219.811 158.5V135.227H224.651V158.5H219.811ZM230.72 158.5L225.583 150.898L228.811 147.477L236.39 158.5H230.72Z" fill="white"/>
</g>
<defs>
<linearGradient id="paint0_linear_2001_3900" x1="107.452" y1="3.08499e-06" x2="456.018" y2="156.719" gradientUnits="userSpaceOnUse">
<stop stop-color="#04071D"/>
<stop offset="1" stop-color="#0C0E23"/>
</linearGradient>
<clipPath id="clip0_2001_3900">
<rect width="521" height="276" rx="23" fill="white"/>
</clipPath>
<clipPath id="clip1_2001_3900">
<rect width="140.175" height="295.006" fill="white" transform="translate(211.375 -19.7529)"/>
</clipPath>
<clipPath id="clip2_2001_3900">
<rect width="140.175" height="295.006" fill="white" transform="translate(361.197 -19.7529)"/>
</clipPath>
</defs>
</svg>
