<svg width="100" height="100" viewBox="0 0 100 100" fill="none" xmlns="http://www.w3.org/2000/svg">
<g id="gsap">
<g id="Union">
<path d="M50.2091 44.1959C50.3133 44.0952 50.3743 43.9579 50.379 43.8129H50.381C50.4513 41.0528 49.8125 38.897 48.484 37.4046C47.081 35.8293 44.9323 35.0204 42.0969 35C39.2665 35 36.8285 35.8843 35.0455 37.5573C33.3593 39.1405 32.4077 41.3322 32.3649 43.7283C32.2926 47.8599 34.6267 50.4873 37.2299 53.0304C39.2451 55.1037 39.615 56.1287 39.5946 57.2983C39.5701 58.6514 38.9262 59.4278 37.8269 59.4278C37.3735 59.4278 37.0098 59.287 36.749 59.0099C36.3414 58.582 36.1611 57.8087 36.2273 56.7737C36.2384 56.7045 36.2345 56.6337 36.2158 56.5662C36.2079 56.5374 36.1973 56.5095 36.1844 56.4827C36.1669 56.4469 36.1451 56.4133 36.1193 56.3824C36.0678 56.3175 36.0025 56.2648 35.9282 56.2282C35.8538 56.1914 35.7723 56.1717 35.6894 56.1705H29.7394C29.5942 56.17 29.4547 56.2262 29.3503 56.3272C29.2459 56.4279 29.1848 56.5655 29.18 56.7105C29.0404 59.5795 29.7088 61.8025 31.1668 63.3175C32.6033 64.8092 34.7632 65.5652 37.5905 65.5652C43.1269 65.5652 46.7652 62.1062 46.8599 56.7553C46.918 53.4461 45.7107 50.9427 42.698 48.1166C40.4097 45.8975 39.6058 44.6056 39.6313 43.1843C39.6537 41.9097 40.4199 41.1802 41.6078 41.1802C42.7958 41.1802 43.3765 41.9973 43.3765 43.6753C43.3765 44.0472 43.6914 44.3529 44.0683 44.3529H49.8207C49.9656 44.3531 50.1049 44.2967 50.2091 44.1959Z" fill="#FFFCE1"/>
<path d="M32.2589 49.2891V49.2759H32.2559C32.261 48.9988 32.0684 48.7451 31.7953 48.7095C31.7719 48.7043 31.7465 48.7043 31.722 48.7043H21.1974V48.7165C20.9253 48.7491 20.7043 48.9337 20.6502 49.1772L19.554 53.9391C19.5394 54.0032 19.5399 54.0699 19.5552 54.1338C19.5706 54.1977 19.6005 54.2574 19.6426 54.3079C19.6976 54.3726 19.7659 54.4246 19.843 54.4602C19.9201 54.4957 20.004 54.5139 20.0889 54.5136H21.6925C21.7852 54.5136 21.9065 54.5271 21.9503 54.584C21.9921 54.639 21.989 54.7624 21.9452 54.9213C21.6334 56.0655 20.8917 57.3197 19.9707 58.045C19.0487 58.7693 17.5265 59.2034 16.4598 58.5495C15.2566 57.8107 15.0528 56.0287 15.0028 54.7614C14.8979 52.0389 15.4307 49.3055 16.4771 46.789C17.226 44.9877 18.6381 41.7376 21.0323 41.7376C22.3894 41.7376 23.072 42.8582 23.123 45.1608C23.1242 45.2123 23.1347 45.2628 23.1536 45.31C23.1748 45.3628 23.2063 45.4113 23.2471 45.4523C23.3242 45.5299 23.4282 45.5752 23.5377 45.5784H29.7832C29.9292 45.5784 30.0693 45.5212 30.1737 45.4192C30.2782 45.3172 30.3388 45.1784 30.3424 45.0324C30.3384 41.7028 29.5783 39.1599 28.0807 37.4707C26.6645 35.8741 24.6288 35.0744 22.0359 35.0968C13.5123 35.0968 9.08544 43.7089 8.14807 52.2439C7.62851 56.7899 8.48635 60.5635 10.5628 62.8683C12.1338 64.6125 13.9861 65.4958 16.7328 65.4958C19.7903 65.4958 22.0787 64.8172 23.935 63.3623C26.1173 61.6537 27.7699 58.8081 28.9905 54.6676C29.004 54.6218 29.032 54.5818 29.0701 54.5532C29.1083 54.5243 29.1547 54.5089 29.2024 54.5087H30.5259C30.8356 54.5087 31.1046 54.3119 31.1637 54.043L32.2589 49.2891Z" fill="#FFFCE1"/>
<path fill-rule="evenodd" clip-rule="evenodd" d="M68.2087 64.5585L68.2464 36.0992C68.2475 36.028 68.2343 35.9572 68.2076 35.891C68.1956 35.8614 68.181 35.8328 68.164 35.8059C68.1432 35.7728 68.1188 35.7422 68.0912 35.7144C68.0679 35.6908 68.0426 35.6696 68.0155 35.651C67.9842 35.6293 67.9506 35.6109 67.9152 35.5965C67.8493 35.5694 67.7787 35.5557 67.7074 35.5562H58.8048C58.5052 35.5562 58.3738 35.8139 58.2882 35.984L45.3979 64.3841V64.3894L45.3928 64.3966C45.2501 64.7458 45.5211 65.1199 45.8991 65.1199H52.1222C52.4584 65.1199 52.6816 65.0179 52.7906 64.806L54.0264 61.8361C54.1782 61.4398 54.2068 61.403 54.6387 61.403H60.5847C60.9983 61.403 61.0065 61.4112 61.0004 61.8157L60.8669 64.5769C60.8664 64.6073 60.8686 64.6376 60.8732 64.6675C60.8795 64.7075 60.8903 64.7468 60.9056 64.7846C60.9321 64.8508 60.9716 64.9107 61.0217 64.9615C61.0718 65.012 61.1315 65.052 61.1973 65.0791C61.2631 65.1065 61.3337 65.1202 61.4048 65.1199H67.6921C67.7699 65.1209 67.847 65.1047 67.918 65.0727C67.9889 65.0406 68.0519 64.9936 68.1027 64.9344C68.1465 64.8831 68.1786 64.8229 68.1969 64.758C68.2152 64.6931 68.2192 64.6252 68.2087 64.5585ZM57.195 55.0569C57.1481 55.0569 57.1012 55.0554 57.0544 55.0517C57.0326 55.0499 57.0115 55.0432 56.9925 55.0325C56.9735 55.0216 56.9571 55.0067 56.9445 54.9887C56.9384 54.9803 56.9332 54.9711 56.9291 54.9616C56.9247 54.9512 56.9214 54.9402 56.9194 54.929C56.9172 54.9169 56.9165 54.9047 56.9173 54.8925C56.918 54.8828 56.9195 54.8733 56.922 54.8641C56.929 54.8407 56.9377 54.8124 56.9487 54.7793C56.9568 54.7549 56.9662 54.7281 56.977 54.6992L61.4354 43.6671C61.4755 43.5584 61.5217 43.4519 61.574 43.3482C61.6463 43.1995 61.7339 43.1893 61.7614 43.2995C61.7849 43.391 61.25 54.6268 61.25 54.6268C61.2082 55.0477 61.1889 55.0649 60.7742 55.0997L57.1991 55.0589H57.1909L57.195 55.0569Z" fill="#FFFCE1"/>
<path fill-rule="evenodd" clip-rule="evenodd" d="M76.1648 35.5562H80.8912L80.8963 35.5532C87.8671 35.5532 91.3475 38.7127 91.2375 44.9479C91.1091 52.2541 86.6568 57.6234 79.9528 58.8611C79.0002 59.0365 78.0313 59.1046 77.0634 59.0997L73.8265 59.0852C73.7735 59.085 73.7224 59.1056 73.6843 59.1424C73.6462 59.1795 73.6241 59.23 73.6228 59.283C73.6221 59.3188 73.6316 59.3541 73.6501 59.3847C73.6687 59.4153 73.6956 59.4402 73.7277 59.4561L74.122 59.6611L75.1408 60.1929L76.1648 60.7257C76.2705 60.7809 76.3765 60.8361 76.4826 60.8906C76.7088 61.009 76.7964 61.2045 76.7455 61.4572L76.0282 64.6941C75.9691 64.964 75.7521 65.1199 75.4342 65.1199H69.527C69.4423 65.1199 69.3586 65.1015 69.2817 65.0659C69.2049 65.0304 69.1366 64.9786 69.0818 64.9142C69.0395 64.8635 69.0095 64.8038 68.9939 64.7396C68.9784 64.6754 68.9778 64.6088 68.9921 64.5443L75.5698 35.9863C75.635 35.6888 75.9151 35.5562 76.1648 35.5562ZM79.1561 52.5506H79.2824C82.3848 52.4252 84.076 48.7593 84.1382 45.2026C84.1738 43.1477 83.424 41.9443 82.0791 41.9035H77.7582C77.7059 41.9035 77.6556 41.9239 77.6181 41.9605C77.5806 41.9971 77.5588 42.0468 77.5575 42.0993C77.5566 42.1351 77.5658 42.1707 77.584 42.2015C77.6022 42.2326 77.6286 42.2577 77.6604 42.2744C77.6604 42.2744 80.3929 43.7151 80.5804 43.8191C80.7271 43.8994 80.7292 44.036 80.6813 44.2735C80.6808 44.2787 80.2626 46.1169 79.8221 48.0551C79.3304 50.2182 78.8111 52.5061 78.8137 52.5098C78.8219 52.52 78.8718 52.5506 79.1561 52.5506Z" fill="#FFFCE1"/>
</g>
</g>
</svg>
