<svg width="51" height="51" viewBox="0 0 51 51" fill="none" xmlns="http://www.w3.org/2000/svg">
<circle cx="25.0741" cy="25.0741" r="24.8107" fill="url(#paint0_linear_2001_175)" stroke="url(#paint1_linear_2001_175)" stroke-width="0.526653"/>
<path fill-rule="evenodd" clip-rule="evenodd" d="M25.0432 17.7783C21.6206 17.7783 19.482 19.5003 18.626 22.9444C19.9095 21.2224 21.4068 20.5767 23.1179 21.007C24.0941 21.2524 24.7922 21.9652 25.5642 22.7545C26.8226 24.0396 28.2792 25.5269 31.4598 25.5269C34.8819 25.5269 37.021 23.8049 37.8765 20.3613C36.5935 22.0834 35.0962 22.729 33.3851 22.2982C32.4084 22.0528 31.7103 21.34 30.9383 20.5513C29.6799 19.2651 28.2238 17.7783 25.0432 17.7783ZM18.626 25.5269C15.2039 25.5269 13.0649 27.2489 12.2094 30.6929C13.4929 28.9709 14.9902 28.3253 16.7007 28.7555C17.6774 29.001 18.3755 29.7138 19.1476 30.503C20.406 31.7882 21.862 33.2755 25.0432 33.2755C28.4653 33.2755 30.6043 31.554 31.4598 28.1099C30.1763 29.8319 28.679 30.4776 26.968 30.0473C25.9917 29.8014 25.2936 29.0885 24.5216 28.2998C23.2632 27.0147 21.8067 25.5269 18.626 25.5269Z" fill="#38BDF8"/>
<defs>
<linearGradient id="paint0_linear_2001_175" x1="10.6521" y1="0.526673" x2="48.0181" y2="9.42658" gradientUnits="userSpaceOnUse">
<stop stop-color="#04071D"/>
<stop offset="1" stop-color="#0C0E23"/>
</linearGradient>
<linearGradient id="paint1_linear_2001_175" x1="25.0741" y1="0.526672" x2="25.0741" y2="49.6214" gradientUnits="userSpaceOnUse">
<stop stop-color="#66699C" stop-opacity="0.43"/>
<stop offset="1" stop-color="#363749" stop-opacity="0.49"/>
</linearGradient>
</defs>
</svg>
