<svg width="189" height="51" viewBox="0 0 189 51" fill="none" xmlns="http://www.w3.org/2000/svg">
<circle cx="25.0741" cy="25.0741" r="24.8107" fill="url(#paint0_linear_2001_166)" stroke="url(#paint1_linear_2001_166)" stroke-width="0.526653"/>
<path d="M26.0117 27.91C27.3422 27.91 28.4207 26.831 28.4207 25.4999C28.4207 24.1688 27.3422 23.0898 26.0117 23.0898C24.6812 23.0898 23.6027 24.1688 23.6027 25.4999C23.6027 26.831 24.6812 27.91 26.0117 27.91Z" fill="#00D8FF"/>
<path d="M26.0116 31.0211C22.6283 31.0211 19.6722 30.6226 17.4599 29.8641C16.0251 29.3744 14.8061 28.7214 13.9375 27.9773C13.0162 27.1899 12.5267 26.3305 12.5267 25.4999C12.5267 23.906 14.2735 22.3457 17.2056 21.3279C19.605 20.4925 22.7339 20.0268 26.0068 20.0268C29.222 20.0268 32.3077 20.4781 34.6927 21.3039C36.0892 21.784 37.265 22.4081 38.1 23.0994C39.0069 23.858 39.4868 24.6886 39.4868 25.4999C39.4868 27.1563 37.5337 28.8318 34.3856 29.8737C32.1589 30.613 29.1836 31.0211 26.0116 31.0211ZM26.0116 21.179C22.9067 21.179 19.8354 21.6303 17.5895 22.4129C14.8925 23.3539 13.6832 24.6406 13.6832 25.4999C13.6832 26.3929 14.9837 27.7996 17.8342 28.7742C19.9266 29.4896 22.7579 29.8689 26.0116 29.8689C29.0636 29.8689 31.9094 29.4848 34.0257 28.779C36.9866 27.7948 38.3399 26.3881 38.3399 25.4999C38.3399 25.0438 37.9944 24.5061 37.3657 23.9828C36.6411 23.3779 35.5853 22.8258 34.3232 22.3889C32.0534 21.6111 29.102 21.179 26.0116 21.179Z" fill="#00D8FF"/>
<path d="M20.5458 37.5119C20.0563 37.5119 19.6244 37.4063 19.2597 37.1951C17.8824 36.3981 17.4025 34.1032 17.9832 31.0546C18.4583 28.5532 19.6196 25.615 21.256 22.7776C22.8636 19.993 24.7928 17.5445 26.698 15.8882C27.8113 14.9184 28.939 14.2078 29.9564 13.8333C31.065 13.4253 32.0247 13.4253 32.7254 13.8285C34.1602 14.6543 34.6353 17.1892 33.9635 20.4347C33.4884 22.7392 32.3559 25.519 30.7722 28.27C29.083 31.1986 27.2594 33.5607 25.4982 35.1018C24.3561 36.1004 23.1804 36.8302 22.1054 37.2095C21.5439 37.4111 21.0161 37.5119 20.5458 37.5119ZM21.7503 23.0657L22.2494 23.3537C20.6993 26.0423 19.5524 28.9277 19.1109 31.2706C18.5782 34.0792 19.0917 35.7692 19.8307 36.1964C20.0131 36.3021 20.253 36.3597 20.5458 36.3597C21.5008 36.3597 23.0028 35.7548 24.74 34.2376C26.4052 32.7829 28.1472 30.5168 29.774 27.6987C31.3001 25.0533 32.3846 22.3935 32.8357 20.2091C33.4644 17.1508 32.9221 15.2784 32.1495 14.8319C31.756 14.6063 31.1177 14.6351 30.3499 14.9184C29.4621 15.2448 28.4592 15.8834 27.4514 16.762C25.6422 18.3367 23.7946 20.6796 22.2494 23.3585L21.7503 23.0657Z" fill="#00D8FF"/>
<path d="M31.4778 37.5267C30.1725 37.5267 28.5169 36.7393 26.7893 35.251C24.8601 33.5898 22.8974 31.1173 21.2561 28.2799C19.6437 25.4953 18.492 22.6003 18.0073 20.1182C17.7242 18.6683 17.6714 17.3384 17.8537 16.2678C18.0553 15.1011 18.5304 14.2706 19.2358 13.8625C20.6659 13.0319 23.0989 13.8865 25.5751 16.0902C27.3315 17.6505 29.1743 20.0222 30.7627 22.7684C32.4567 25.697 33.5941 28.4576 34.0452 30.7524C34.3379 32.2408 34.3859 33.6234 34.1795 34.7469C33.9588 35.9423 33.4597 36.7921 32.7399 37.2098C32.38 37.421 31.9529 37.5267 31.4778 37.5267ZM22.2543 27.7038C23.8091 30.3924 25.7383 32.8265 27.5427 34.3772C29.707 36.24 31.425 36.6433 32.1688 36.2112C32.9414 35.7647 33.5077 33.9355 32.9222 30.9781C32.4903 28.808 31.401 26.1675 29.7694 23.3493C28.2385 20.7039 26.4773 18.433 24.8121 16.9543C22.4799 14.8803 20.5891 14.4146 19.8165 14.8611C19.423 15.0867 19.1302 15.6581 18.9911 16.4646C18.8327 17.396 18.8807 18.5867 19.1398 19.8974C19.6005 22.2547 20.7043 25.0248 22.2543 27.7038Z" fill="#00D8FF"/>
<circle cx="71.0741" cy="25.0741" r="24.8107" fill="url(#paint2_linear_2001_166)" stroke="url(#paint3_linear_2001_166)" stroke-width="0.526653"/>
<path fill-rule="evenodd" clip-rule="evenodd" d="M71.0432 17.7783C67.6206 17.7783 65.482 19.5003 64.626 22.9444C65.9095 21.2224 67.4068 20.5767 69.1179 21.007C70.0941 21.2524 70.7922 21.9652 71.5642 22.7545C72.8226 24.0396 74.2792 25.5269 77.4598 25.5269C80.8819 25.5269 83.021 23.8049 83.8765 20.3613C82.5935 22.0834 81.0962 22.729 79.3851 22.2982C78.4084 22.0528 77.7103 21.34 76.9383 20.5513C75.6799 19.2651 74.2238 17.7783 71.0432 17.7783ZM64.626 25.5269C61.2039 25.5269 59.0649 27.2489 58.2094 30.6929C59.4929 28.9709 60.9902 28.3253 62.7007 28.7555C63.6774 29.001 64.3755 29.7138 65.1476 30.503C66.406 31.7882 67.862 33.2755 71.0432 33.2755C74.4653 33.2755 76.6043 31.554 77.4598 28.1099C76.1763 29.8319 74.679 30.4776 72.968 30.0473C71.9917 29.8014 71.2936 29.0885 70.5216 28.2998C69.2632 27.0147 67.8067 25.5269 64.626 25.5269Z" fill="#38BDF8"/>
<circle cx="117.074" cy="25.0741" r="24.8107" fill="url(#paint4_linear_2001_166)" stroke="url(#paint5_linear_2001_166)" stroke-width="0.526653"/>
<g clip-path="url(#clip0_2001_166)">
<path d="M111.965 36.8404L106.277 14.2167L128.777 20.5354" fill="white"/>
<path d="M114.744 27.1168L116.165 32.7755" stroke="black" stroke-width="0.48" stroke-miterlimit="10"/>
<path d="M120.358 28.7068L114.744 27.1168" stroke="black" stroke-width="0.48" stroke-miterlimit="10"/>
<path d="M116.165 32.7755L120.358 28.7067" stroke="black" stroke-width="0.48" stroke-miterlimit="10"/>
<path d="M116.165 32.7755L110.552 31.1855" stroke="black" stroke-width="0.48" stroke-miterlimit="10"/>
<path d="M110.552 31.1855L111.973 36.848L116.165 32.7755" stroke="black" stroke-width="0.48" stroke-miterlimit="10"/>
<path d="M110.552 31.1855L114.744 27.1168" stroke="black" stroke-width="0.48" stroke-miterlimit="10"/>
<path d="M114.744 27.1168L118.94 23.0443" stroke="black" stroke-width="0.48" stroke-miterlimit="10"/>
<path d="M118.94 23.0442L123.133 18.9755" stroke="black" stroke-width="0.48" stroke-miterlimit="10"/>
<path d="M117.519 17.3855L118.94 23.0442" stroke="black" stroke-width="0.48" stroke-miterlimit="10"/>
<path d="M118.94 23.0443L113.323 21.458" stroke="black" stroke-width="0.48" stroke-miterlimit="10"/>
<path d="M113.323 21.458L114.744 27.1168" stroke="black" stroke-width="0.48" stroke-miterlimit="10"/>
<path d="M114.744 27.1167L109.13 25.5267" stroke="black" stroke-width="0.48" stroke-miterlimit="10"/>
<path d="M109.13 25.5267L110.552 31.1855" stroke="black" stroke-width="0.48" stroke-miterlimit="10"/>
<path d="M107.709 19.868L109.13 25.5267" stroke="black" stroke-width="0.48" stroke-miterlimit="10"/>
<path d="M113.323 21.458L107.709 19.868" stroke="black" stroke-width="0.48" stroke-miterlimit="10"/>
<path d="M109.13 25.5268L113.323 21.458" stroke="black" stroke-width="0.48" stroke-miterlimit="10"/>
<path d="M113.323 21.4542L117.519 17.3855" stroke="black" stroke-width="0.48" stroke-miterlimit="10"/>
<path d="M117.519 17.3855L111.902 15.7955" stroke="black" stroke-width="0.48" stroke-miterlimit="10"/>
<path d="M111.902 15.7955L113.323 21.4542" stroke="black" stroke-width="0.48" stroke-miterlimit="10"/>
<path d="M107.709 19.8679L106.288 14.2054L111.902 15.7954" stroke="black" stroke-width="0.48" stroke-miterlimit="10"/>
<path d="M107.709 19.868L111.902 15.7955" stroke="black" stroke-width="0.48" stroke-miterlimit="10"/>
<path d="M124.554 24.6342L128.747 20.5655L123.133 18.9755" stroke="black" stroke-width="0.48" stroke-miterlimit="10"/>
<path d="M123.133 18.9755L124.554 24.6342" stroke="black" stroke-width="0.48" stroke-miterlimit="10"/>
<path d="M124.554 24.6343L118.94 23.0443" stroke="black" stroke-width="0.48" stroke-miterlimit="10"/>
<path d="M118.94 23.0443L120.358 28.7067" stroke="black" stroke-width="0.48" stroke-miterlimit="10"/>
<path d="M120.358 28.7067L124.554 24.6342" stroke="black" stroke-width="0.48" stroke-miterlimit="10"/>
<path d="M123.133 18.9755L117.519 17.3855" stroke="black" stroke-width="0.48" stroke-miterlimit="10"/>
</g>
<circle cx="163.074" cy="25.0741" r="24.8107" fill="url(#paint6_linear_2001_166)" stroke="url(#paint7_linear_2001_166)" stroke-width="0.526653"/>
<g clip-path="url(#clip1_2001_166)">
<path d="M170.826 17.4241L168.122 20.0646C168.037 20.1475 167.926 20.2001 167.807 20.214C167.687 20.2279 167.567 20.2024 167.464 20.1414C166.4 19.5148 165.174 19.2022 163.932 19.2416C162.69 19.2809 161.487 19.6704 160.467 20.363C159.839 20.7894 159.295 21.3212 158.858 21.9337C158.15 22.9302 157.751 24.1054 157.71 25.3179C157.67 26.5303 157.989 27.7284 158.629 28.768C158.691 28.868 158.717 28.9853 158.703 29.1015C158.689 29.2175 158.635 29.3256 158.551 29.4085L155.846 32.0489C155.792 32.1025 155.726 32.1439 155.654 32.1703C155.582 32.1968 155.504 32.2076 155.427 32.2022C155.35 32.1967 155.275 32.1751 155.207 32.1387C155.14 32.1023 155.081 32.0521 155.035 31.9914C153.572 30.0276 152.816 27.6461 152.884 25.2186C152.953 22.791 153.843 20.4541 155.416 18.5724C155.896 17.9967 156.435 17.4704 157.024 17.0017C158.951 15.4669 161.344 14.5981 163.83 14.5309C166.316 14.4636 168.754 15.2017 170.765 16.63C170.828 16.6747 170.88 16.7322 170.917 16.7983C170.955 16.8645 170.977 16.9379 170.983 17.0134C170.989 17.0888 170.978 17.1646 170.951 17.2355C170.924 17.3064 170.881 17.3708 170.826 17.4241Z" fill="url(#paint8_linear_2001_166)"/>
<path d="M170.824 33.6198L168.12 30.9793C168.035 30.8964 167.923 30.8438 167.804 30.8299C167.685 30.8159 167.564 30.8415 167.462 30.9025C166.459 31.4933 165.31 31.8056 164.138 31.8056C162.967 31.8056 161.818 31.4933 160.815 30.9025C160.712 30.8415 160.591 30.8159 160.472 30.8299C160.353 30.8438 160.242 30.8964 160.157 30.9793L157.453 33.6198C157.396 33.673 157.352 33.7378 157.324 33.8095C157.296 33.8812 157.284 33.9581 157.289 34.0347C157.295 34.1114 157.318 34.1858 157.356 34.2528C157.395 34.3199 157.448 34.3778 157.512 34.4226C159.437 35.7901 161.756 36.5268 164.136 36.5268C166.517 36.5268 168.836 35.7901 170.761 34.4226C170.825 34.3781 170.879 34.3204 170.917 34.2534C170.956 34.1865 170.979 34.1122 170.985 34.0356C170.991 33.9589 170.98 33.8819 170.952 33.8101C170.924 33.7383 170.88 33.6733 170.824 33.6198Z" fill="white"/>
<path d="M164.143 28.6637C165.92 28.6637 167.36 27.2573 167.36 25.5223C167.36 23.7874 165.92 22.3809 164.143 22.3809C162.366 22.3809 160.926 23.7874 160.926 25.5223C160.926 27.2573 162.366 28.6637 164.143 28.6637Z" fill="white"/>
</g>
<defs>
<linearGradient id="paint0_linear_2001_166" x1="10.6521" y1="0.526673" x2="48.0181" y2="9.42658" gradientUnits="userSpaceOnUse">
<stop stop-color="#04071D"/>
<stop offset="1" stop-color="#0C0E23"/>
</linearGradient>
<linearGradient id="paint1_linear_2001_166" x1="25.0741" y1="0.526672" x2="25.0741" y2="49.6214" gradientUnits="userSpaceOnUse">
<stop stop-color="#66699C" stop-opacity="0.43"/>
<stop offset="1" stop-color="#363749" stop-opacity="0.49"/>
</linearGradient>
<linearGradient id="paint2_linear_2001_166" x1="56.6521" y1="0.526673" x2="94.0181" y2="9.42658" gradientUnits="userSpaceOnUse">
<stop stop-color="#04071D"/>
<stop offset="1" stop-color="#0C0E23"/>
</linearGradient>
<linearGradient id="paint3_linear_2001_166" x1="71.0741" y1="0.526672" x2="71.0741" y2="49.6214" gradientUnits="userSpaceOnUse">
<stop stop-color="#66699C" stop-opacity="0.43"/>
<stop offset="1" stop-color="#363749" stop-opacity="0.49"/>
</linearGradient>
<linearGradient id="paint4_linear_2001_166" x1="102.652" y1="0.526673" x2="140.018" y2="9.42658" gradientUnits="userSpaceOnUse">
<stop stop-color="#04071D"/>
<stop offset="1" stop-color="#0C0E23"/>
</linearGradient>
<linearGradient id="paint5_linear_2001_166" x1="117.074" y1="0.526672" x2="117.074" y2="49.6214" gradientUnits="userSpaceOnUse">
<stop stop-color="#66699C" stop-opacity="0.43"/>
<stop offset="1" stop-color="#363749" stop-opacity="0.49"/>
</linearGradient>
<linearGradient id="paint6_linear_2001_166" x1="148.652" y1="0.526673" x2="186.018" y2="9.42658" gradientUnits="userSpaceOnUse">
<stop stop-color="#04071D"/>
<stop offset="1" stop-color="#0C0E23"/>
</linearGradient>
<linearGradient id="paint7_linear_2001_166" x1="163.074" y1="0.526672" x2="163.074" y2="49.6214" gradientUnits="userSpaceOnUse">
<stop stop-color="#66699C" stop-opacity="0.43"/>
<stop offset="1" stop-color="#363749" stop-opacity="0.49"/>
</linearGradient>
<linearGradient id="paint8_linear_2001_166" x1="168.285" y1="12.9144" x2="146.022" y2="35.7162" gradientUnits="userSpaceOnUse">
<stop stop-color="#17CCFC"/>
<stop offset="0.5" stop-color="#5D31FF"/>
<stop offset="1" stop-color="#F35AFF"/>
</linearGradient>
<clipPath id="clip0_2001_166">
<rect width="24" height="24" fill="white" transform="translate(105.527 13.5267)"/>
</clipPath>
<clipPath id="clip1_2001_166">
<rect width="20.9" height="22" fill="white" transform="translate(152.88 14.5267)"/>
</clipPath>
</defs>
</svg>
