<svg id="visual" viewBox="0 0 1500 100" width="1500" height="100" xmlns="http://www.w3.org/2000/svg" xmlns:xlink="http://www.w3.org/1999/xlink" version="1.1"><path d="M0 19L11.8 19.5C23.7 20 47.3 21 71.2 20.5C95 20 119 18 142.8 20C166.7 22 190.3 28 214.2 34.7C238 41.3 262 48.7 285.8 50.7C309.7 52.7 333.3 49.3 357.2 46.2C381 43 405 40 428.8 37.5C452.7 35 476.3 33 500 30.8C523.7 28.7 547.3 26.3 571.2 27.5C595 28.7 619 33.3 642.8 32.3C666.7 31.3 690.3 24.7 714.2 27.3C738 30 762 42 785.8 43C809.7 44 833.3 34 857.2 29.8C881 25.7 905 27.3 928.8 25.8C952.7 24.3 976.3 19.7 1000 22.3C1023.7 25 1047.3 35 1071.2 36.8C1095 38.7 1119 32.3 1142.8 32.3C1166.7 32.3 1190.3 38.7 1214.2 39.5C1238 40.3 1262 35.7 1285.8 33.2C1309.7 30.7 1333.3 30.3 1357.2 32.7C1381 35 1405 40 1428.8 40.7C1452.7 41.3 1476.3 37.7 1488.2 35.8L1500 34L1500 101L1488.2 101C1476.3 101 1452.7 101 1428.8 101C1405 101 1381 101 1357.2 101C1333.3 101 1309.7 101 1285.8 101C1262 101 1238 101 1214.2 101C1190.3 101 1166.7 101 1142.8 101C1119 101 1095 101 1071.2 101C1047.3 101 1023.7 101 1000 101C976.3 101 952.7 101 928.8 101C905 101 881 101 857.2 101C833.3 101 809.7 101 785.8 101C762 101 738 101 714.2 101C690.3 101 666.7 101 642.8 101C619 101 595 101 571.2 101C547.3 101 523.7 101 500 101C476.3 101 452.7 101 428.8 101C405 101 381 101 357.2 101C333.3 101 309.7 101 285.8 101C262 101 238 101 214.2 101C190.3 101 166.7 101 142.8 101C119 101 95 101 71.2 101C47.3 101 23.7 101 11.8 101L0 101Z" fill="#411681"></path><path d="M0 31L11.8 31.7C23.7 32.3 47.3 33.7 71.2 34.3C95 35 119 35 142.8 37.7C166.7 40.3 190.3 45.7 214.2 50.2C238 54.7 262 58.3 285.8 58.5C309.7 58.7 333.3 55.3 357.2 53.2C381 51 405 50 428.8 50C452.7 50 476.3 51 500 48.7C523.7 46.3 547.3 40.7 571.2 37.8C595 35 619 35 642.8 37.5C666.7 40 690.3 45 714.2 47.5C738 50 762 50 785.8 49C809.7 48 833.3 46 857.2 44.3C881 42.7 905 41.3 928.8 42.5C952.7 43.7 976.3 47.3 1000 50.2C1023.7 53 1047.3 55 1071.2 56.7C1095 58.3 1119 59.7 1142.8 57.8C1166.7 56 1190.3 51 1214.2 46.3C1238 41.7 1262 37.3 1285.8 38.8C1309.7 40.3 1333.3 47.7 1357.2 48.8C1381 50 1405 45 1428.8 46C1452.7 47 1476.3 54 1488.2 57.5L1500 61L1500 101L1488.2 101C1476.3 101 1452.7 101 1428.8 101C1405 101 1381 101 1357.2 101C1333.3 101 1309.7 101 1285.8 101C1262 101 1238 101 1214.2 101C1190.3 101 1166.7 101 1142.8 101C1119 101 1095 101 1071.2 101C1047.3 101 1023.7 101 1000 101C976.3 101 952.7 101 928.8 101C905 101 881 101 857.2 101C833.3 101 809.7 101 785.8 101C762 101 738 101 714.2 101C690.3 101 666.7 101 642.8 101C619 101 595 101 571.2 101C547.3 101 523.7 101 500 101C476.3 101 452.7 101 428.8 101C405 101 381 101 357.2 101C333.3 101 309.7 101 285.8 101C262 101 238 101 214.2 101C190.3 101 166.7 101 142.8 101C119 101 95 101 71.2 101C47.3 101 23.7 101 11.8 101L0 101Z" fill="#351773"></path><path d="M0 77L11.8 76.8C23.7 76.7 47.3 76.3 71.2 70.8C95 65.3 119 54.7 142.8 54C166.7 53.3 190.3 62.7 214.2 67.2C238 71.7 262 71.3 285.8 68.8C309.7 66.3 333.3 61.7 357.2 57C381 52.3 405 47.7 428.8 50.8C452.7 54 476.3 65 500 68.8C523.7 72.7 547.3 69.3 571.2 68.2C595 67 619 68 642.8 66.2C666.7 64.3 690.3 59.7 714.2 60.3C738 61 762 67 785.8 69C809.7 71 833.3 69 857.2 64.3C881 59.7 905 52.3 928.8 52.3C952.7 52.3 976.3 59.7 1000 63.3C1023.7 67 1047.3 67 1071.2 66.2C1095 65.3 1119 63.7 1142.8 60C1166.7 56.3 1190.3 50.7 1214.2 50.8C1238 51 1262 57 1285.8 60.7C1309.7 64.3 1333.3 65.7 1357.2 63.3C1381 61 1405 55 1428.8 56.5C1452.7 58 1476.3 67 1488.2 71.5L1500 76L1500 101L1488.2 101C1476.3 101 1452.7 101 1428.8 101C1405 101 1381 101 1357.2 101C1333.3 101 1309.7 101 1285.8 101C1262 101 1238 101 1214.2 101C1190.3 101 1166.7 101 1142.8 101C1119 101 1095 101 1071.2 101C1047.3 101 1023.7 101 1000 101C976.3 101 952.7 101 928.8 101C905 101 881 101 857.2 101C833.3 101 809.7 101 785.8 101C762 101 738 101 714.2 101C690.3 101 666.7 101 642.8 101C619 101 595 101 571.2 101C547.3 101 523.7 101 500 101C476.3 101 452.7 101 428.8 101C405 101 381 101 357.2 101C333.3 101 309.7 101 285.8 101C262 101 238 101 214.2 101C190.3 101 166.7 101 142.8 101C119 101 95 101 71.2 101C47.3 101 23.7 101 11.8 101L0 101Z" fill="#2b1765"></path><path d="M0 62L11.8 63C23.7 64 47.3 66 71.2 69.8C95 73.7 119 79.3 142.8 80.2C166.7 81 190.3 77 214.2 75.8C238 74.7 262 76.3 285.8 78.2C309.7 80 333.3 82 357.2 82.7C381 83.3 405 82.7 428.8 81.2C452.7 79.7 476.3 77.3 500 76C523.7 74.7 547.3 74.3 571.2 76C595 77.7 619 81.3 642.8 81.3C666.7 81.3 690.3 77.7 714.2 76.5C738 75.3 762 76.7 785.8 77C809.7 77.3 833.3 76.7 857.2 73.8C881 71 905 66 928.8 64.2C952.7 62.3 976.3 63.7 1000 67.3C1023.7 71 1047.3 77 1071.2 79.8C1095 82.7 1119 82.3 1142.8 79C1166.7 75.7 1190.3 69.3 1214.2 65.7C1238 62 1262 61 1285.8 63.8C1309.7 66.7 1333.3 73.3 1357.2 75.7C1381 78 1405 76 1428.8 72.5C1452.7 69 1476.3 64 1488.2 61.5L1500 59L1500 101L1488.2 101C1476.3 101 1452.7 101 1428.8 101C1405 101 1381 101 1357.2 101C1333.3 101 1309.7 101 1285.8 101C1262 101 1238 101 1214.2 101C1190.3 101 1166.7 101 1142.8 101C1119 101 1095 101 1071.2 101C1047.3 101 1023.7 101 1000 101C976.3 101 952.7 101 928.8 101C905 101 881 101 857.2 101C833.3 101 809.7 101 785.8 101C762 101 738 101 714.2 101C690.3 101 666.7 101 642.8 101C619 101 595 101 571.2 101C547.3 101 523.7 101 500 101C476.3 101 452.7 101 428.8 101C405 101 381 101 357.2 101C333.3 101 309.7 101 285.8 101C262 101 238 101 214.2 101C190.3 101 166.7 101 142.8 101C119 101 95 101 71.2 101C47.3 101 23.7 101 11.8 101L0 101Z" fill="#221657"></path><path d="M0 73L11.8 73C23.7 73 47.3 73 71.2 74.3C95 75.7 119 78.3 142.8 80.8C166.7 83.3 190.3 85.7 214.2 87.8C238 90 262 92 285.8 91.2C309.7 90.3 333.3 86.7 357.2 83.8C381 81 405 79 428.8 78.2C452.7 77.3 476.3 77.7 500 77.5C523.7 77.3 547.3 76.7 571.2 77.7C595 78.7 619 81.3 642.8 84.7C666.7 88 690.3 92 714.2 90.2C738 88.3 762 80.7 785.8 79.7C809.7 78.7 833.3 84.3 857.2 87C881 89.7 905 89.3 928.8 86.8C952.7 84.3 976.3 79.7 1000 77.2C1023.7 74.7 1047.3 74.3 1071.2 77C1095 79.7 1119 85.3 1142.8 85.7C1166.7 86 1190.3 81 1214.2 79.8C1238 78.7 1262 81.3 1285.8 82.3C1309.7 83.3 1333.3 82.7 1357.2 83.8C1381 85 1405 88 1428.8 89.2C1452.7 90.3 1476.3 89.7 1488.2 89.3L1500 89L1500 101L1488.2 101C1476.3 101 1452.7 101 1428.8 101C1405 101 1381 101 1357.2 101C1333.3 101 1309.7 101 1285.8 101C1262 101 1238 101 1214.2 101C1190.3 101 1166.7 101 1142.8 101C1119 101 1095 101 1071.2 101C1047.3 101 1023.7 101 1000 101C976.3 101 952.7 101 928.8 101C905 101 881 101 857.2 101C833.3 101 809.7 101 785.8 101C762 101 738 101 714.2 101C690.3 101 666.7 101 642.8 101C619 101 595 101 571.2 101C547.3 101 523.7 101 500 101C476.3 101 452.7 101 428.8 101C405 101 381 101 357.2 101C333.3 101 309.7 101 285.8 101C262 101 238 101 214.2 101C190.3 101 166.7 101 142.8 101C119 101 95 101 71.2 101C47.3 101 23.7 101 11.8 101L0 101Z" fill="#1b1448"></path></svg>