<svg id="visual" viewBox="0 0 1500 100" width="1500" height="100" xmlns="http://www.w3.org/2000/svg" xmlns:xlink="http://www.w3.org/1999/xlink" version="1.1"><path d="M0 9L136 9L273 16L409 22L545 14L682 18L818 8L955 8L1091 23L1227 21L1364 19L1500 15L1500 0L1364 0L1227 0L1091 0L955 0L818 0L682 0L545 0L409 0L273 0L136 0L0 0Z" fill="#1d1640"></path><path d="M0 42L136 33L273 64L409 62L545 51L682 55L818 29L955 53L1091 43L1227 35L1364 52L1500 36L1500 13L1364 17L1227 19L1091 21L955 6L818 6L682 16L545 12L409 20L273 14L136 7L0 7Z" fill="#231a54"></path><path d="M0 69L136 65L273 83L409 78L545 69L682 79L818 64L955 77L1091 77L1227 70L1364 71L1500 77L1500 34L1364 50L1227 33L1091 41L955 51L818 27L682 53L545 49L409 60L273 62L136 31L0 40Z" fill="#291d68"></path><path d="M0 89L136 87L273 92L409 92L545 88L682 88L818 95L955 95L1091 95L1227 88L1364 89L1500 90L1500 75L1364 69L1227 68L1091 75L955 75L818 62L682 77L545 67L409 76L273 81L136 63L0 67Z" fill="#2f207d"></path><path d="M0 101L136 101L273 101L409 101L545 101L682 101L818 101L955 101L1091 101L1227 101L1364 101L1500 101L1500 88L1364 87L1227 86L1091 93L955 93L818 93L682 86L545 86L409 90L273 90L136 85L0 87Z" fill="#362293"></path></svg>