<svg width="1220" height="1113" viewBox="0 0 1220 1113" fill="none" xmlns="http://www.w3.org/2000/svg">
<mask id="mask0_2001_6" style="mask-type:luminance" maskUnits="userSpaceOnUse" x="0" y="0" width="1260" height="1113">
<path d="M0 0H1259.87V1112.65H0V0Z" fill="white"/>
</mask>
<g mask="url(#mask0_2001_6)">
<path d="M308.031 752.47H215.452V849.235H308.031V752.47Z" fill="url(#paint0_radial_2001_6)" fill-opacity="0.06"/>
<path d="M678.346 462.176H585.767V558.941H678.346V462.176Z" fill="url(#paint1_radial_2001_6)" fill-opacity="0.06"/>
<path d="M585.767 1042.76H493.188V1139.53H585.767V1042.76Z" fill="url(#paint2_radial_2001_6)" fill-opacity="0.06"/>
<path d="M956.084 849.234H863.505V945.998H956.084V849.234Z" fill="url(#paint3_radial_2001_6)" fill-opacity="0.06"/>
<path d="M678.347 752.47H585.768V849.235H678.347V752.47Z" fill="url(#paint4_radial_2001_6)" fill-opacity="0.06"/>
<path d="M30.2931 75.1191H-62.2859V171.884M30.2931 75.1191V171.884M30.2931 75.1191H122.872M-62.2859 171.884H30.2931M-62.2859 171.884V268.648M30.2931 171.884H122.872M30.2931 171.884V268.648M122.872 75.1191V171.884M122.872 75.1191H215.451M122.872 171.884H215.451M122.872 171.884V268.648M30.2931 268.648H-62.2859M30.2931 268.648H122.872M30.2931 268.648V365.413M-62.2859 268.648V365.413M215.451 75.1191V171.884M215.451 75.1191H308.03M215.451 171.884H308.03M215.451 171.884V268.648M122.872 268.648H215.451M122.872 268.648V365.413M308.03 75.1191V171.884M308.03 75.1191H400.609M308.03 171.884H400.609M308.03 171.884V268.648M215.451 268.648H308.03M215.451 268.648V365.413M400.609 75.1191V171.884M400.609 75.1191H493.188M400.609 171.884H493.188M400.609 171.884V268.648M308.03 268.648H400.609M308.03 268.648V365.413M493.188 75.1191V171.884M493.188 75.1191H585.767M493.188 171.884H585.767M493.188 171.884V268.648M400.609 268.648H493.188M400.609 268.648V365.413M585.767 75.1191V171.884M585.767 75.1191H678.346M585.767 171.884H678.346M585.767 171.884V268.648M493.188 268.648H585.767M493.188 268.648V365.413M678.346 75.1191V171.884M678.346 75.1191H770.925M678.346 171.884H770.925M678.346 171.884V268.648M585.767 268.648H678.346M585.767 268.648V365.413M770.925 75.1191V171.884M770.925 75.1191H863.504M770.925 171.884H863.504M770.925 171.884V268.648M678.346 268.648H770.925M678.346 268.648V365.413M863.504 75.1191V171.884M863.504 75.1191H956.084M863.504 171.884H956.084M863.504 171.884V268.648M770.925 268.648H863.504M770.925 268.648V365.413M956.084 75.1191V171.884M956.084 75.1191H1048.66M956.084 171.884H1048.66M956.084 171.884V268.648M863.504 268.648H956.084M863.504 268.648V365.413M1048.66 75.1191V171.884M1048.66 75.1191H1141.24M1048.66 171.884H1141.24M1048.66 171.884V268.648M956.084 268.648H1048.66M956.084 268.648V365.413M1141.24 75.1191V171.884M1141.24 75.1191H1233.82M1141.24 171.884H1233.82M1141.24 171.884V268.648M1048.66 268.648H1141.24M1048.66 268.648V365.413M1233.82 75.1191V171.884M1233.82 75.1191H1326.4V171.884M1233.82 171.884H1326.4M1233.82 171.884V268.648M1141.24 268.648H1233.82M1141.24 268.648V365.413M1326.4 171.884V268.648M1233.82 268.648H1326.4M1233.82 268.648V365.413M1326.4 268.648V365.413M30.2931 365.413H-62.2859M30.2931 365.413H122.872M30.2931 365.413V462.176M-62.2859 365.413V462.176M122.872 365.413H215.451M122.872 365.413V462.176M215.451 365.413H308.03M215.451 365.413V462.176M308.03 365.413H400.609M308.03 365.413V462.176M400.609 365.413H493.188M400.609 365.413V462.176M493.188 365.413H585.767M493.188 365.413V462.176M585.767 365.413H678.346M585.767 365.413V462.176M678.346 365.413H770.925M678.346 365.413V462.176M770.925 365.413H863.504M770.925 365.413V462.176M863.504 365.413H956.084M863.504 365.413V462.176M956.084 365.413H1048.66M956.084 365.413V462.176M1048.66 365.413H1141.24M1048.66 365.413V462.176M1141.24 365.413H1233.82M1141.24 365.413V462.176M1233.82 365.413H1326.4M1233.82 365.413V462.176M1326.4 365.413V462.176M30.2931 462.176H-62.2859M30.2931 462.176H122.872M30.2931 462.176V558.941M-62.2859 462.176V558.941M122.872 462.176H215.451M122.872 462.176V558.941M215.451 462.176H308.03M215.451 462.176V558.941M308.03 462.176H400.609M308.03 462.176V558.941M400.609 462.176H493.188M400.609 462.176V558.941M493.188 462.176H585.767M493.188 462.176V558.941M585.767 462.176H678.346M585.767 462.176V558.941M678.346 462.176H770.925M678.346 462.176V558.941M770.925 462.176H863.504M770.925 462.176V558.941M863.504 462.176H956.084M863.504 462.176V558.941M956.084 462.176H1048.66M956.084 462.176V558.941M1048.66 462.176H1141.24M1048.66 462.176V558.941M1141.24 462.176H1233.82M1141.24 462.176V558.941M1233.82 462.176H1326.4M1233.82 462.176V558.941M1326.4 462.176V558.941M30.2931 558.941H-62.2859M30.2931 558.941H122.872M30.2931 558.941V655.706M-62.2859 558.941V655.706M122.872 558.941H215.451M122.872 558.941V655.706M215.451 558.941H308.03M215.451 558.941V655.706M308.03 558.941H400.609M308.03 558.941V655.706M400.609 558.941H493.188M400.609 558.941V655.706M493.188 558.941H585.767M493.188 558.941V655.706M585.767 558.941H678.346M585.767 558.941V655.706M678.346 558.941H770.925M678.346 558.941V655.706M770.925 558.941H863.504M770.925 558.941V655.706M863.504 558.941H956.084M863.504 558.941V655.706M956.084 558.941H1048.66M956.084 558.941V655.706M1048.66 558.941H1141.24M1048.66 558.941V655.706M1141.24 558.941H1233.82M1141.24 558.941V655.706M1233.82 558.941H1326.4M1233.82 558.941V655.706M1326.4 558.941V655.706M30.2931 655.706H-62.2859M30.2931 655.706H122.872M30.2931 655.706V752.469M-62.2859 655.706V752.469M122.872 655.706H215.451M122.872 655.706V752.469M215.451 655.706H308.03M215.451 655.706V752.469M308.03 655.706H400.609M308.03 655.706V752.469M400.609 655.706H493.188M400.609 655.706V752.469M493.188 655.706H585.767M493.188 655.706V752.469M585.767 655.706H678.346M585.767 655.706V752.469M678.346 655.706H770.925M678.346 655.706V752.469M770.925 655.706H863.504M770.925 655.706V752.469M863.504 655.706H956.084M863.504 655.706V752.469M956.084 655.706H1048.66M956.084 655.706V752.469M1048.66 655.706H1141.24M1048.66 655.706V752.469M1141.24 655.706H1233.82M1141.24 655.706V752.469M1233.82 655.706H1326.4M1233.82 655.706V752.469M1326.4 655.706V752.469M30.2931 752.469H-62.2859M30.2931 752.469H122.872M30.2931 752.469V849.234M-62.2859 752.469V849.234M122.872 752.469H215.451M122.872 752.469V849.234M215.451 752.469H308.03M215.451 752.469V849.234M308.03 752.469H400.609M308.03 752.469V849.234M400.609 752.469H493.188M400.609 752.469V849.234M493.188 752.469H585.767M493.188 752.469V849.234M585.767 752.469H678.346M585.767 752.469V849.234M678.346 752.469H770.925M678.346 752.469V849.234M770.925 752.469H863.504M770.925 752.469V849.234M863.504 752.469H956.084M863.504 752.469V849.234M956.084 752.469H1048.66M956.084 752.469V849.234M1048.66 752.469H1141.24M1048.66 752.469V849.234M1141.24 752.469H1233.82M1141.24 752.469V849.234M1233.82 752.469H1326.4M1233.82 752.469V849.234M1326.4 752.469V849.234M30.2931 849.234H-62.2859M30.2931 849.234H122.872M30.2931 849.234V945.998M-62.2859 849.234V945.998M122.872 849.234H215.451M122.872 849.234V945.998M215.451 849.234H308.03M215.451 849.234V945.998M308.03 849.234H400.609M308.03 849.234V945.998M400.609 849.234H493.188M400.609 849.234V945.998M493.188 849.234H585.767M493.188 849.234V945.998M585.767 849.234H678.346M585.767 849.234V945.998M678.346 849.234H770.925M678.346 849.234V945.998M770.925 849.234H863.504M770.925 849.234V945.998M863.504 849.234H956.084M863.504 849.234V945.998M956.084 849.234H1048.66M956.084 849.234V945.998M1048.66 849.234H1141.24M1048.66 849.234V945.998M1141.24 849.234H1233.82M1141.24 849.234V945.998M1233.82 849.234H1326.4M1233.82 849.234V945.998M1326.4 849.234V945.998M30.2931 945.998H-62.2859M30.2931 945.998H122.872M30.2931 945.998V1042.76M-62.2859 945.998V1042.76M122.872 945.998H215.451M122.872 945.998V1042.76M215.451 945.998H308.03M215.451 945.998V1042.76M308.03 945.998H400.609M308.03 945.998V1042.76M400.609 945.998H493.188M400.609 945.998V1042.76M493.188 945.998H585.767M493.188 945.998V1042.76M585.767 945.998H678.346M585.767 945.998V1042.76M678.346 945.998H770.925M678.346 945.998V1042.76M770.925 945.998H863.504M770.925 945.998V1042.76M863.504 945.998H956.084M863.504 945.998V1042.76M956.084 945.998H1048.66M956.084 945.998V1042.76M1048.66 945.998H1141.24M1048.66 945.998V1042.76M1141.24 945.998H1233.82M1141.24 945.998V1042.76M1233.82 945.998H1326.4M1233.82 945.998V1042.76M1326.4 945.998V1042.76M30.2931 1042.76H-62.2859M30.2931 1042.76H122.872M30.2931 1042.76V1139.53M-62.2859 1042.76V1139.53M122.872 1042.76V1139.53M122.872 1042.76H169.162H215.451M215.451 1042.76H308.03M215.451 1042.76V1139.53M308.03 1042.76H400.609M308.03 1042.76V1139.53M400.609 1042.76H493.188M400.609 1042.76V1139.53M493.188 1042.76H585.767M493.188 1042.76V1139.53M585.767 1042.76H678.346M585.767 1042.76V1139.53M678.346 1042.76H770.925M678.346 1042.76V1139.53M770.925 1042.76H863.504M770.925 1042.76V1139.53M863.504 1042.76H956.084M863.504 1042.76V1139.53M956.084 1042.76H1048.66M956.084 1042.76V1139.53M1048.66 1042.76H1141.24M1048.66 1042.76V1139.53M1141.24 1042.76H1233.82M1141.24 1042.76V1139.53M1233.82 1042.76H1326.4M1233.82 1042.76V1139.53M1326.4 1042.76V1139.53M30.2931 1139.53H-62.2859M30.2931 1139.53H122.872M30.2931 1139.53V1236.29M-62.2859 1139.53V1236.29M122.872 1139.53H215.451M122.872 1139.53V1236.29M215.451 1139.53H308.03M215.451 1139.53V1236.29M308.03 1139.53H400.609M308.03 1139.53V1236.29M400.609 1139.53H493.188M400.609 1139.53V1236.29M493.188 1139.53H585.767M493.188 1139.53V1236.29M585.767 1139.53H678.346M585.767 1139.53V1236.29M678.346 1139.53H770.925M678.346 1139.53V1236.29M770.925 1139.53H863.504M770.925 1139.53V1236.29M863.504 1139.53H956.084M863.504 1139.53V1236.29M956.084 1139.53H1048.66M956.084 1139.53V1236.29M1048.66 1139.53H1141.24M1048.66 1139.53V1236.29M1141.24 1139.53H1233.82M1141.24 1139.53V1236.29M1233.82 1139.53H1326.4M1233.82 1139.53V1236.29M1326.4 1139.53V1236.29M30.2931 1236.29H-62.2859M30.2931 1236.29H122.872M30.2931 1236.29V1333.06M-62.2859 1236.29V1333.06M122.872 1236.29H215.451M122.872 1236.29V1333.06M215.451 1236.29H308.03M215.451 1236.29V1333.06M308.03 1236.29H400.609M308.03 1236.29V1333.06M400.609 1236.29H493.188M400.609 1236.29V1333.06M493.188 1236.29H585.767M493.188 1236.29V1333.06M585.767 1236.29H678.346M585.767 1236.29V1333.06M678.346 1236.29H770.925M678.346 1236.29V1333.06M770.925 1236.29H863.504M770.925 1236.29V1333.06M863.504 1236.29H956.084M863.504 1236.29V1333.06M956.084 1236.29H1048.66M956.084 1236.29V1333.06M1048.66 1236.29H1141.24M1048.66 1236.29V1333.06M1141.24 1236.29H1233.82M1141.24 1236.29V1333.06M1233.82 1236.29H1326.4M1233.82 1236.29V1333.06M1326.4 1236.29V1333.06M30.2931 1333.06H-62.2859M30.2931 1333.06H122.872M30.2931 1333.06V1429.82M-62.2859 1333.06V1429.82M122.872 1333.06H215.451M122.872 1333.06V1429.82M215.451 1333.06H308.03M215.451 1333.06V1429.82M308.03 1333.06H400.609M308.03 1333.06V1429.82M400.609 1333.06H493.188M400.609 1333.06V1429.82M493.188 1333.06H585.767M493.188 1333.06V1429.82M585.767 1333.06H678.346M585.767 1333.06V1429.82M678.346 1333.06H770.925M678.346 1333.06V1429.82M770.925 1333.06H863.504M770.925 1333.06V1429.82M863.504 1333.06H956.084M863.504 1333.06V1429.82M956.084 1333.06H1048.66M956.084 1333.06V1429.82M1048.66 1333.06H1141.24M1048.66 1333.06V1429.82M1141.24 1333.06H1233.82M1141.24 1333.06V1429.82M1233.82 1333.06H1326.4M1233.82 1333.06V1429.82M1326.4 1333.06V1429.82M30.2931 1429.82H-62.2859M30.2931 1429.82H122.872M30.2931 1429.82V1526.58M-62.2859 1429.82V1526.58H30.2931M122.872 1429.82H215.451M122.872 1429.82V1526.58M215.451 1429.82H308.03M215.451 1429.82V1526.58M308.03 1429.82H400.609M308.03 1429.82V1526.58M400.609 1429.82H493.188M400.609 1429.82V1526.58M493.188 1429.82H585.767M493.188 1429.82V1526.58M585.767 1429.82H678.346M585.767 1429.82V1526.58M678.346 1429.82H770.925M678.346 1429.82V1526.58M770.925 1429.82H863.504M770.925 1429.82V1526.58M863.504 1429.82H956.084M863.504 1429.82V1526.58M956.084 1429.82H1048.66M956.084 1429.82V1526.58M1048.66 1429.82H1141.24M1048.66 1429.82V1526.58M1141.24 1429.82H1233.82M1141.24 1429.82V1526.58M1233.82 1429.82H1326.4M1233.82 1429.82V1526.58M1326.4 1429.82V1526.58H1233.82M30.2931 1526.58H122.872M122.872 1526.58H215.451M215.451 1526.58H308.03M308.03 1526.58H400.609M400.609 1526.58H493.188M493.188 1526.58H585.767M585.767 1526.58H678.346M678.346 1526.58H770.925M770.925 1526.58H863.504M863.504 1526.58H956.084M956.084 1526.58H1048.66M1048.66 1526.58H1141.24M1141.24 1526.58H1233.82" stroke="url(#paint5_radial_2001_6)" stroke-opacity="0.2"/>
</g>
<defs>
<radialGradient id="paint0_radial_2001_6" cx="0" cy="0" r="1" gradientUnits="userSpaceOnUse" gradientTransform="translate(263.361 851.534) rotate(90.677) scale(68.5865 119.024)">
<stop stop-color="white" stop-opacity="0.8"/>
<stop offset="1" stop-color="#05041F"/>
</radialGradient>
<radialGradient id="paint1_radial_2001_6" cx="0" cy="0" r="1" gradientUnits="userSpaceOnUse" gradientTransform="translate(632.686 560.266) rotate(90) scale(72.8153 126.361)">
<stop stop-color="white" stop-opacity="0.8"/>
<stop offset="1" stop-color="#05041F"/>
</radialGradient>
<radialGradient id="paint2_radial_2001_6" cx="0" cy="0" r="1" gradientUnits="userSpaceOnUse" gradientTransform="translate(539.591 1137.72) rotate(91.981) scale(70.317 122.039)">
<stop stop-color="white" stop-opacity="0.8"/>
<stop offset="1" stop-color="#05041F"/>
</radialGradient>
<radialGradient id="paint3_radial_2001_6" cx="0" cy="0" r="1" gradientUnits="userSpaceOnUse" gradientTransform="translate(912.225 947.208) rotate(90.6768) scale(68.5866 119.024)">
<stop stop-color="white" stop-opacity="0.8"/>
<stop offset="1" stop-color="#05041F"/>
</radialGradient>
<radialGradient id="paint4_radial_2001_6" cx="0" cy="0" r="1" gradientUnits="userSpaceOnUse" gradientTransform="translate(632.751 849.839) rotate(90) scale(74.5086 129.299)">
<stop stop-color="white" stop-opacity="0.8"/>
<stop offset="1" stop-color="#05041F"/>
</radialGradient>
<radialGradient id="paint5_radial_2001_6" cx="0" cy="0" r="1" gradientUnits="userSpaceOnUse" gradientTransform="translate(632.832 801.457) rotate(90) scale(513.94 491.711)">
<stop stop-color="white"/>
<stop offset="1" stop-color="white" stop-opacity="0"/>
</radialGradient>
</defs>
</svg>
