<svg width="523" height="258" viewBox="0 0 523 258" fill="none" xmlns="http://www.w3.org/2000/svg">
<g clip-path="url(#clip0_2001_3900)">
<rect x="1" y="1.5" width="521" height="255.5" rx="23" fill="url(#paint0_linear_2001_3900)"/>
<g clip-path="url(#clip1_2001_3900)">
<rect x="212.375" y="-18.2529" width="140.175" height="72.3536" rx="6.96848" fill="#10132E"/>
<path d="M255.458 23.2134V13.0774H259.259C260.037 13.0774 260.691 13.2127 261.219 13.4832C261.75 13.7538 262.151 14.1332 262.421 14.6216C262.695 15.1066 262.832 15.6724 262.832 16.3191C262.832 16.9691 262.694 17.5333 262.416 18.0118C262.143 18.4869 261.738 18.8548 261.204 19.1154C260.669 19.3728 260.013 19.5015 259.234 19.5015H256.527V17.9771H258.987C259.442 17.9771 259.815 17.9144 260.105 17.789C260.395 17.6604 260.61 17.4739 260.749 17.2298C260.89 16.9823 260.961 16.6788 260.961 16.3191C260.961 15.9595 260.89 15.6526 260.749 15.3986C260.607 15.1412 260.391 14.9466 260.1 14.8146C259.81 14.6793 259.435 14.6117 258.977 14.6117H257.294V23.2134H255.458ZM260.694 18.6205L263.203 23.2134H261.154L258.69 18.6205H260.694ZM267.7 23.3619C266.937 23.3619 266.279 23.2035 265.725 22.8867C265.174 22.5667 264.75 22.1147 264.453 21.5306C264.156 20.9433 264.008 20.2521 264.008 19.4569C264.008 18.675 264.156 17.9887 264.453 17.3981C264.753 16.8042 265.172 16.3422 265.71 16.0123C266.248 15.679 266.88 15.5124 267.606 15.5124C268.074 15.5124 268.516 15.5883 268.932 15.7401C269.351 15.8886 269.721 16.1195 270.041 16.433C270.364 16.7464 270.618 17.1457 270.803 17.6307C270.988 18.1124 271.08 18.6865 271.08 19.353V19.9024H264.849V18.6948H269.363C269.359 18.3516 269.285 18.0464 269.14 17.7791C268.995 17.5086 268.792 17.2958 268.531 17.1407C268.274 16.9856 267.974 16.9081 267.63 16.9081C267.264 16.9081 266.942 16.9972 266.665 17.1753C266.388 17.3502 266.172 17.5812 266.017 17.8682C265.865 18.152 265.788 18.4638 265.784 18.8036V19.8578C265.784 20.2999 265.865 20.6794 266.027 20.9961C266.189 21.3096 266.415 21.5504 266.705 21.7187C266.995 21.8837 267.335 21.9662 267.724 21.9662C267.985 21.9662 268.221 21.9299 268.432 21.8573C268.643 21.7814 268.826 21.6709 268.982 21.5257C269.137 21.3805 269.254 21.2007 269.333 20.9862L271.006 21.1743C270.9 21.6164 270.699 22.0025 270.402 22.3324C270.108 22.6591 269.732 22.9131 269.274 23.0946C268.815 23.2728 268.29 23.3619 267.7 23.3619ZM274.783 23.3668C274.301 23.3668 273.868 23.281 273.482 23.1094C273.099 22.9346 272.795 22.6772 272.571 22.3374C272.35 21.9975 272.239 21.5785 272.239 21.0803C272.239 20.6513 272.319 20.2966 272.477 20.0162C272.635 19.7357 272.851 19.5114 273.125 19.3431C273.399 19.1748 273.708 19.0478 274.051 18.962C274.397 18.8729 274.755 18.8086 275.125 18.769C275.57 18.7228 275.931 18.6816 276.209 18.6453C276.486 18.6057 276.687 18.5463 276.812 18.4671C276.941 18.3846 277.005 18.2576 277.005 18.086V18.0563C277.005 17.6835 276.895 17.3948 276.674 17.1902C276.453 16.9856 276.134 16.8833 275.719 16.8833C275.28 16.8833 274.932 16.979 274.674 17.1704C274.42 17.3618 274.249 17.5878 274.16 17.8484L272.487 17.6109C272.619 17.149 272.837 16.7629 273.14 16.4528C273.444 16.1393 273.815 15.9051 274.254 15.75C274.692 15.5916 275.178 15.5124 275.709 15.5124C276.075 15.5124 276.44 15.5553 276.802 15.6411C277.165 15.7269 277.497 15.8688 277.797 16.0667C278.098 16.2614 278.338 16.527 278.52 16.8635C278.705 17.2001 278.797 17.6208 278.797 18.1256V23.2134H277.075V22.1691H277.015C276.906 22.3803 276.753 22.5782 276.555 22.763C276.36 22.9445 276.115 23.0913 275.818 23.2035C275.524 23.3124 275.179 23.3668 274.783 23.3668ZM275.248 22.0503C275.608 22.0503 275.92 21.9794 276.184 21.8375C276.448 21.6923 276.651 21.501 276.793 21.2634C276.938 21.0258 277.01 20.7668 277.01 20.4864V19.5906C276.954 19.6368 276.859 19.6796 276.723 19.7192C276.591 19.7588 276.443 19.7935 276.278 19.8232C276.113 19.8529 275.95 19.8793 275.788 19.9024C275.626 19.9255 275.486 19.9453 275.367 19.9617C275.1 19.998 274.861 20.0574 274.65 20.1399C274.438 20.2224 274.272 20.3379 274.15 20.4864C274.028 20.6315 273.967 20.8196 273.967 21.0506C273.967 21.3805 274.087 21.6296 274.328 21.7979C274.569 21.9662 274.876 22.0503 275.248 22.0503ZM283.914 23.3619C283.156 23.3619 282.504 23.1952 281.96 22.862C281.418 22.5287 281.001 22.0685 280.707 21.4812C280.417 20.8906 280.272 20.2109 280.272 19.4421C280.272 18.67 280.42 17.9887 280.717 17.3981C281.014 16.8042 281.433 16.3422 281.974 16.0123C282.519 15.679 283.162 15.5124 283.905 15.5124C284.522 15.5124 285.068 15.6262 285.543 15.8539C286.021 16.0783 286.402 16.3967 286.686 16.8091C286.97 17.2182 287.131 17.6967 287.171 18.2444H285.459C285.389 17.8781 285.224 17.5729 284.964 17.3288C284.706 17.0813 284.362 16.9576 283.929 16.9576C283.563 16.9576 283.241 17.0566 282.964 17.2545C282.687 17.4492 282.471 17.7297 282.316 18.0959C282.164 18.4621 282.088 18.901 282.088 19.4124C282.088 19.9304 282.164 20.3758 282.316 20.7487C282.468 21.1182 282.68 21.4036 282.954 21.6049C283.232 21.8029 283.557 21.9018 283.929 21.9018C284.193 21.9018 284.429 21.8523 284.637 21.7534C284.848 21.6511 285.025 21.5043 285.167 21.3129C285.309 21.1215 285.406 20.8889 285.459 20.615H287.171C287.128 21.1529 286.97 21.6296 286.696 22.0454C286.422 22.4578 286.049 22.7811 285.577 23.0154C285.106 23.2464 284.551 23.3619 283.914 23.3619ZM292.438 15.6114V16.9972H288.068V15.6114H292.438ZM289.147 13.7901H290.939V20.9268C290.939 21.1677 290.975 21.3525 291.048 21.4812C291.123 21.6065 291.222 21.6923 291.344 21.7385C291.467 21.7847 291.602 21.8078 291.75 21.8078C291.863 21.8078 291.965 21.7996 292.057 21.7831C292.153 21.7666 292.225 21.7517 292.275 21.7385L292.577 23.1391C292.481 23.1721 292.344 23.2084 292.166 23.248C291.991 23.2876 291.777 23.3107 291.523 23.3173C291.074 23.3305 290.67 23.2629 290.31 23.1144C289.95 22.9626 289.665 22.7284 289.454 22.4116C289.246 22.0949 289.144 21.6989 289.147 21.2238V13.7901ZM298.015 13.0774H299.836V20.2043C299.833 20.8576 299.694 21.4201 299.42 21.8919C299.147 22.3605 298.764 22.7218 298.272 22.9758C297.784 23.2266 297.215 23.352 296.565 23.352C295.971 23.352 295.436 23.2464 294.961 23.0352C294.489 22.8207 294.115 22.504 293.838 22.085C293.561 21.6659 293.422 21.1446 293.422 20.521H295.248C295.251 20.7949 295.311 21.0308 295.426 21.2287C295.545 21.4267 295.708 21.5785 295.916 21.6841C296.124 21.7897 296.363 21.8424 296.634 21.8424C296.928 21.8424 297.177 21.7814 297.381 21.6593C297.586 21.5339 297.741 21.3492 297.847 21.105C297.955 20.8609 298.011 20.5606 298.015 20.2043V13.0774ZM307.337 15.8638C307.29 15.4316 307.096 15.095 306.753 14.8542C306.413 14.6133 305.971 14.4929 305.426 14.4929C305.043 14.4929 304.715 14.5506 304.441 14.6661C304.167 14.7816 303.958 14.9383 303.813 15.1363C303.668 15.3342 303.593 15.5603 303.59 15.8143C303.59 16.0255 303.638 16.2086 303.734 16.3637C303.833 16.5188 303.966 16.6507 304.134 16.7596C304.303 16.8652 304.489 16.9543 304.694 17.0269C304.898 17.0995 305.105 17.1605 305.312 17.21L306.263 17.4476C306.645 17.5366 307.013 17.6571 307.366 17.8088C307.723 17.9606 308.041 18.152 308.322 18.383C308.605 18.6139 308.83 18.8927 308.995 19.2194C309.16 19.546 309.242 19.9288 309.242 20.3676C309.242 20.9615 309.09 21.4845 308.787 21.9365C308.483 22.3852 308.044 22.7366 307.47 22.9907C306.899 23.2414 306.208 23.3668 305.397 23.3668C304.608 23.3668 303.923 23.2447 303.343 23.0006C302.765 22.7564 302.313 22.4001 301.987 21.9315C301.663 21.463 301.488 20.8922 301.462 20.2191H303.268C303.295 20.5722 303.404 20.8658 303.595 21.1001C303.786 21.3343 304.035 21.5092 304.342 21.6247C304.652 21.7402 304.999 21.7979 305.382 21.7979C305.781 21.7979 306.131 21.7385 306.431 21.6197C306.734 21.4977 306.972 21.3294 307.144 21.1149C307.315 20.8972 307.403 20.6431 307.406 20.3527C307.403 20.0888 307.325 19.871 307.173 19.6994C307.022 19.5246 306.809 19.3794 306.535 19.2639C306.264 19.1451 305.948 19.0395 305.585 18.9472L304.431 18.6502C303.597 18.4357 302.937 18.1107 302.452 17.6752C301.97 17.2364 301.729 16.654 301.729 15.9281C301.729 15.3309 301.891 14.808 302.214 14.3592C302.541 13.9105 302.985 13.5624 303.546 13.315C304.106 13.0642 304.742 12.9388 305.451 12.9388C306.17 12.9388 306.8 13.0642 307.342 13.315C307.886 13.5624 308.313 13.9072 308.623 14.3493C308.934 14.7882 309.094 15.293 309.103 15.8638H307.337Z" fill="white"/>
<rect x="212.375" y="66.2954" width="140.175" height="72.3536" rx="6.96848" fill="#10132E"/>
<path d="M278.503 101.045H276.652C276.599 100.742 276.501 100.473 276.36 100.239C276.218 100.001 276.041 99.7999 275.83 99.6349C275.619 99.4699 275.378 99.3462 275.107 99.2637C274.84 99.1779 274.551 99.135 274.241 99.135C273.69 99.135 273.202 99.2736 272.776 99.5507C272.351 99.8246 272.017 100.227 271.777 100.758C271.536 101.286 271.415 101.931 271.415 102.693C271.415 103.469 271.536 104.122 271.777 104.653C272.021 105.181 272.354 105.581 272.776 105.851C273.202 106.118 273.689 106.252 274.236 106.252C274.54 106.252 274.824 106.212 275.088 106.133C275.355 106.051 275.594 105.93 275.805 105.772C276.02 105.614 276.2 105.419 276.345 105.188C276.493 104.957 276.595 104.693 276.652 104.396L278.503 104.406C278.433 104.888 278.283 105.34 278.052 105.762C277.825 106.184 277.526 106.557 277.156 106.881C276.787 107.201 276.355 107.451 275.86 107.633C275.365 107.811 274.815 107.9 274.212 107.9C273.321 107.9 272.526 107.694 271.826 107.281C271.127 106.869 270.576 106.273 270.173 105.495C269.771 104.716 269.569 103.782 269.569 102.693C269.569 101.601 269.772 100.668 270.178 99.8922C270.584 99.1136 271.137 98.518 271.836 98.1056C272.535 97.6931 273.327 97.4869 274.212 97.4869C274.776 97.4869 275.3 97.5661 275.785 97.7245C276.27 97.8829 276.703 98.1155 277.082 98.4223C277.462 98.7259 277.773 99.0987 278.018 99.5408C278.265 99.9797 278.427 100.481 278.503 101.045ZM285.693 100.412C285.646 99.9797 285.452 99.6431 285.109 99.4023C284.769 99.1614 284.327 99.041 283.782 99.041C283.399 99.041 283.071 99.0987 282.797 99.2142C282.523 99.3297 282.314 99.4864 282.169 99.6844C282.024 99.8823 281.949 100.108 281.946 100.362C281.946 100.574 281.994 100.757 282.09 100.912C282.188 101.067 282.322 101.199 282.49 101.308C282.659 101.413 282.845 101.502 283.05 101.575C283.254 101.648 283.46 101.709 283.668 101.758L284.619 101.996C285.001 102.085 285.369 102.205 285.722 102.357C286.079 102.509 286.397 102.7 286.677 102.931C286.961 103.162 287.186 103.441 287.351 103.767C287.515 104.094 287.598 104.477 287.598 104.916C287.598 105.51 287.446 106.033 287.143 106.485C286.839 106.933 286.4 107.285 285.826 107.539C285.255 107.79 284.564 107.915 283.752 107.915C282.964 107.915 282.279 107.793 281.699 107.549C281.121 107.304 280.669 106.948 280.342 106.48C280.019 106.011 279.844 105.44 279.818 104.767H281.624C281.651 105.12 281.76 105.414 281.951 105.648C282.142 105.882 282.391 106.057 282.698 106.173C283.008 106.288 283.355 106.346 283.738 106.346C284.137 106.346 284.487 106.287 284.787 106.168C285.09 106.046 285.328 105.877 285.5 105.663C285.671 105.445 285.759 105.191 285.762 104.901C285.759 104.637 285.681 104.419 285.529 104.248C285.377 104.073 285.165 103.927 284.891 103.812C284.62 103.693 284.303 103.588 283.941 103.495L282.787 103.198C281.953 102.984 281.293 102.659 280.808 102.223C280.326 101.784 280.085 101.202 280.085 100.476C280.085 99.879 280.247 99.3561 280.57 98.9073C280.897 98.4586 281.341 98.1105 281.901 97.8631C282.462 97.6123 283.098 97.4869 283.807 97.4869C284.526 97.4869 285.156 97.6123 285.697 97.8631C286.242 98.1105 286.669 98.4553 286.979 98.8974C287.289 99.3363 287.45 99.8411 287.459 100.412H285.693ZM294.743 100.412C294.697 99.9797 294.503 99.6431 294.159 99.4023C293.82 99.1614 293.377 99.041 292.833 99.041C292.45 99.041 292.122 99.0987 291.848 99.2142C291.574 99.3297 291.365 99.4864 291.22 99.6844C291.074 99.8823 291 100.108 290.997 100.362C290.997 100.574 291.045 100.757 291.14 100.912C291.239 101.067 291.373 101.199 291.541 101.308C291.71 101.413 291.896 101.502 292.101 101.575C292.305 101.648 292.511 101.709 292.719 101.758L293.669 101.996C294.052 102.085 294.42 102.205 294.773 102.357C295.129 102.509 295.448 102.7 295.728 102.931C296.012 103.162 296.236 103.441 296.401 103.767C296.566 104.094 296.649 104.477 296.649 104.916C296.649 105.51 296.497 106.033 296.194 106.485C295.89 106.933 295.451 107.285 294.877 107.539C294.306 107.79 293.615 107.915 292.803 107.915C292.015 107.915 291.33 107.793 290.749 107.549C290.172 107.304 289.72 106.948 289.393 106.48C289.07 106.011 288.895 105.44 288.869 104.767H290.675C290.702 105.12 290.81 105.414 291.002 105.648C291.193 105.882 291.442 106.057 291.749 106.173C292.059 106.288 292.406 106.346 292.788 106.346C293.188 106.346 293.537 106.287 293.838 106.168C294.141 106.046 294.379 105.877 294.55 105.663C294.722 105.445 294.809 105.191 294.813 104.901C294.809 104.637 294.732 104.419 294.58 104.248C294.428 104.073 294.215 103.927 293.942 103.812C293.671 103.693 293.354 103.588 292.991 103.495L291.838 103.198C291.003 102.984 290.344 102.659 289.859 102.223C289.377 101.784 289.136 101.202 289.136 100.476C289.136 99.879 289.298 99.3561 289.621 98.9073C289.948 98.4586 290.391 98.1105 290.952 97.8631C291.513 97.6123 292.148 97.4869 292.858 97.4869C293.577 97.4869 294.207 97.6123 294.748 97.8631C295.293 98.1105 295.72 98.4553 296.03 98.8974C296.34 99.3363 296.5 99.8411 296.51 100.412H294.743Z" fill="white"/>
<rect x="212.375" y="150.844" width="140.175" height="72.3536" rx="6.96848" fill="#10132E"/>
<path d="M264.105 192.31V182.174H265.941V186.465H270.638V182.174H272.479V192.31H270.638V188.004H265.941V192.31H264.105ZM274.03 183.713V182.174H282.117V183.713H278.984V192.31H277.163V183.713H274.03ZM283.676 182.174H285.923L288.932 189.519H289.051L292.06 182.174H294.307V192.31H292.545V185.347H292.451L289.65 192.28H288.334L285.532 185.332H285.438V192.31H283.676V182.174ZM296.307 192.31V182.174H298.143V190.771H302.607V192.31H296.307Z" fill="white"/>
<rect x="212.375" y="235.392" width="140.175" height="72.3536" rx="6.96848" fill="#10132E"/>
</g>
<g clip-path="url(#clip2_2001_3900)">
<rect x="362.197" y="-54.2568" width="140.175" height="72.3536" rx="6.96848" fill="#10132E"/>
<rect x="362.197" y="30.2915" width="140.175" height="72.3536" rx="6.96848" fill="#10132E"/>
<path d="M429.446 61.6218H431.267V68.7487C431.264 69.402 431.125 69.9645 430.851 70.4364C430.577 70.9049 430.195 71.2662 429.703 71.5203C429.215 71.771 428.645 71.8964 427.995 71.8964C427.402 71.8964 426.867 71.7908 426.392 71.5796C425.92 71.3652 425.546 71.0484 425.268 70.6294C424.991 70.2104 424.853 69.689 424.853 69.0654H426.679C426.682 69.3393 426.742 69.5752 426.857 69.7732C426.976 69.9711 427.139 70.1229 427.347 70.2285C427.555 70.3341 427.794 70.3869 428.065 70.3869C428.358 70.3869 428.608 70.3258 428.812 70.2038C429.017 70.0784 429.172 69.8936 429.277 69.6495C429.386 69.4053 429.442 69.105 429.446 68.7487V61.6218ZM438.767 64.4082C438.721 63.976 438.527 63.6395 438.183 63.3986C437.844 63.1577 437.401 63.0373 436.857 63.0373C436.474 63.0373 436.146 63.0951 435.872 63.2105C435.598 63.326 435.389 63.4827 435.244 63.6807C435.098 63.8787 435.024 64.1047 435.021 64.3587C435.021 64.5699 435.069 64.753 435.164 64.9081C435.263 65.0632 435.397 65.1952 435.565 65.304C435.734 65.4096 435.92 65.4987 436.125 65.5713C436.329 65.6439 436.535 65.7049 436.743 65.7544L437.693 65.992C438.076 66.0811 438.444 66.2015 438.797 66.3533C439.153 66.5051 439.472 66.6964 439.752 66.9274C440.036 67.1583 440.26 67.4372 440.425 67.7638C440.59 68.0905 440.673 68.4732 440.673 68.912C440.673 69.5059 440.521 70.0289 440.218 70.4809C439.914 70.9296 439.475 71.281 438.901 71.5351C438.33 71.7859 437.639 71.9112 436.827 71.9112C436.039 71.9112 435.354 71.7892 434.773 71.545C434.196 71.3008 433.744 70.9445 433.417 70.476C433.094 70.0074 432.919 69.4366 432.893 68.7635H434.699C434.726 69.1166 434.834 69.4102 435.026 69.6445C435.217 69.8788 435.466 70.0536 435.773 70.1691C436.083 70.2846 436.43 70.3423 436.812 70.3423C437.212 70.3423 437.561 70.2829 437.862 70.1642C438.165 70.0421 438.403 69.8738 438.574 69.6593C438.746 69.4416 438.833 69.1875 438.837 68.8972C438.833 68.6332 438.756 68.4154 438.604 68.2439C438.452 68.069 438.24 67.9238 437.966 67.8083C437.695 67.6896 437.378 67.584 437.015 67.4916L435.862 67.1946C435.027 66.9802 434.368 66.6552 433.883 66.2197C433.401 65.7808 433.16 65.1985 433.16 64.4726C433.16 63.8754 433.322 63.3524 433.645 62.9037C433.972 62.455 434.415 62.1069 434.976 61.8594C435.537 61.6086 436.172 61.4833 436.882 61.4833C437.601 61.4833 438.231 61.6086 438.772 61.8594C439.317 62.1069 439.744 62.4517 440.054 62.8938C440.364 63.3326 440.524 63.8374 440.534 64.4082H438.767Z" fill="white"/>
<rect x="362.197" y="114.84" width="140.175" height="72.3536" rx="6.96848" fill="#10132E"/>
<path d="M409.487 156.306V146.17H413.287C414.066 146.17 414.719 146.316 415.247 146.606C415.779 146.896 416.179 147.296 416.45 147.804C416.724 148.308 416.861 148.883 416.861 149.526C416.861 150.176 416.724 150.753 416.45 151.258C416.176 151.763 415.772 152.161 415.237 152.451C414.703 152.738 414.045 152.882 413.263 152.882H410.744V151.372H413.015C413.471 151.372 413.843 151.293 414.134 151.134C414.424 150.976 414.639 150.758 414.777 150.481C414.919 150.204 414.99 149.886 414.99 149.526C414.99 149.166 414.919 148.85 414.777 148.576C414.639 148.302 414.423 148.089 414.129 147.937C413.839 147.782 413.464 147.705 413.005 147.705H411.323V156.306H409.487ZM419.49 159.157C419.246 159.157 419.02 159.137 418.812 159.098C418.607 159.061 418.444 159.019 418.322 158.969L418.738 157.573C418.998 157.649 419.231 157.686 419.436 157.682C419.64 157.679 419.82 157.615 419.975 157.489C420.133 157.367 420.267 157.163 420.376 156.876L420.529 156.465L417.773 148.704H419.673L421.425 154.445H421.504L423.261 148.704H425.167L422.123 157.227C421.981 157.629 421.793 157.974 421.559 158.261C421.325 158.552 421.038 158.773 420.698 158.925C420.361 159.08 419.959 159.157 419.49 159.157ZM430.203 148.704V150.09H425.832V148.704H430.203ZM426.911 146.883H428.703V154.02C428.703 154.261 428.739 154.445 428.812 154.574C428.888 154.7 428.987 154.785 429.109 154.832C429.231 154.878 429.366 154.901 429.515 154.901C429.627 154.901 429.729 154.893 429.822 154.876C429.917 154.86 429.99 154.845 430.039 154.832L430.341 156.232C430.246 156.265 430.109 156.301 429.93 156.341C429.756 156.381 429.541 156.404 429.287 156.41C428.838 156.424 428.434 156.356 428.074 156.207C427.715 156.056 427.429 155.821 427.218 155.505C427.01 155.188 426.908 154.792 426.911 154.317V146.883ZM433.656 151.852V156.306H431.864V146.17H433.616V149.996H433.705C433.884 149.567 434.159 149.229 434.532 148.982C434.908 148.731 435.387 148.605 435.967 148.605C436.495 148.605 436.955 148.716 437.348 148.937C437.741 149.158 438.044 149.481 438.259 149.907C438.476 150.333 438.585 150.852 438.585 151.466V156.306H436.794V151.743C436.794 151.232 436.662 150.834 436.398 150.55C436.137 150.263 435.771 150.12 435.299 150.12C434.982 150.12 434.699 150.189 434.448 150.328C434.2 150.463 434.006 150.659 433.864 150.917C433.725 151.174 433.656 151.486 433.656 151.852ZM443.728 156.455C442.985 156.455 442.342 156.292 441.797 155.965C441.253 155.638 440.831 155.181 440.53 154.594C440.233 154.007 440.085 153.32 440.085 152.535C440.085 151.75 440.233 151.062 440.53 150.471C440.831 149.881 441.253 149.422 441.797 149.095C442.342 148.769 442.985 148.605 443.728 148.605C444.47 148.605 445.113 148.769 445.658 149.095C446.202 149.422 446.623 149.881 446.92 150.471C447.22 151.062 447.37 151.75 447.37 152.535C447.37 153.32 447.22 154.007 446.92 154.594C446.623 155.181 446.202 155.638 445.658 155.965C445.113 156.292 444.47 156.455 443.728 156.455ZM443.737 155.02C444.14 155.02 444.477 154.909 444.747 154.688C445.018 154.464 445.219 154.163 445.351 153.787C445.486 153.411 445.554 152.992 445.554 152.53C445.554 152.065 445.486 151.644 445.351 151.268C445.219 150.889 445.018 150.587 444.747 150.362C444.477 150.138 444.14 150.026 443.737 150.026C443.325 150.026 442.982 150.138 442.708 150.362C442.437 150.587 442.235 150.889 442.099 151.268C441.967 151.644 441.901 152.065 441.901 152.53C441.901 152.992 441.967 153.411 442.099 153.787C442.235 154.163 442.437 154.464 442.708 154.688C442.982 154.909 443.325 155.02 443.737 155.02ZM450.682 151.852V156.306H448.891V148.704H450.603V149.996H450.692C450.867 149.571 451.146 149.232 451.529 148.982C451.915 148.731 452.392 148.605 452.959 148.605C453.484 148.605 453.941 148.718 454.33 148.942C454.723 149.166 455.026 149.491 455.241 149.917C455.458 150.343 455.566 150.859 455.562 151.466V156.306H453.771V151.743C453.771 151.235 453.639 150.838 453.375 150.55C453.114 150.263 452.753 150.12 452.291 150.12C451.978 150.12 451.699 150.189 451.455 150.328C451.214 150.463 451.024 150.659 450.885 150.917C450.75 151.174 450.682 151.486 450.682 151.852Z" fill="white"/>
<rect x="362.197" y="199.388" width="140.175" height="72.3536" rx="6.96848" fill="#10132E"/>
<path d="M425.107 233.505C425.061 233.073 424.867 232.736 424.523 232.496C424.184 232.255 423.741 232.134 423.197 232.134C422.814 232.134 422.486 232.192 422.212 232.307C421.938 232.423 421.729 232.58 421.584 232.778C421.438 232.976 421.364 233.202 421.361 233.456C421.361 233.667 421.409 233.85 421.504 234.005C421.603 234.16 421.737 234.292 421.905 234.401C422.074 234.507 422.26 234.596 422.465 234.668C422.669 234.741 422.875 234.802 423.083 234.851L424.033 235.089C424.416 235.178 424.784 235.298 425.137 235.45C425.493 235.602 425.812 235.793 426.092 236.024C426.376 236.255 426.6 236.534 426.765 236.861C426.93 237.187 427.013 237.57 427.013 238.009C427.013 238.603 426.861 239.126 426.558 239.578C426.254 240.027 425.815 240.378 425.241 240.632C424.67 240.883 423.979 241.008 423.167 241.008C422.379 241.008 421.694 240.886 421.113 240.642C420.536 240.398 420.084 240.041 419.757 239.573C419.434 239.104 419.259 238.534 419.233 237.86H421.039C421.066 238.214 421.174 238.507 421.366 238.741C421.557 238.976 421.806 239.151 422.113 239.266C422.423 239.382 422.77 239.439 423.153 239.439C423.552 239.439 423.901 239.38 424.202 239.261C424.505 239.139 424.743 238.971 424.914 238.756C425.086 238.539 425.173 238.284 425.177 237.994C425.173 237.73 425.096 237.512 424.944 237.341C424.792 237.166 424.58 237.021 424.306 236.905C424.035 236.786 423.718 236.681 423.355 236.589L422.202 236.292C421.367 236.077 420.708 235.752 420.223 235.317C419.741 234.878 419.5 234.295 419.5 233.57C419.5 232.972 419.662 232.449 419.985 232.001C420.312 231.552 420.755 231.204 421.316 230.956C421.877 230.706 422.512 230.58 423.222 230.58C423.941 230.58 424.571 230.706 425.112 230.956C425.657 231.204 426.084 231.549 426.394 231.991C426.704 232.43 426.864 232.934 426.874 233.505H425.107ZM432.426 237.45H434.089L435.074 238.727L435.777 239.558L437.464 241.726H435.683L434.534 240.271L434.044 239.578L432.426 237.45ZM437.707 235.787C437.707 236.879 437.502 237.814 437.093 238.593C436.687 239.368 436.133 239.962 435.43 240.375C434.731 240.787 433.937 240.993 433.05 240.993C432.162 240.993 431.367 240.787 430.664 240.375C429.965 239.959 429.41 239.363 429.001 238.588C428.595 237.809 428.392 236.876 428.392 235.787C428.392 234.695 428.595 233.761 429.001 232.985C429.41 232.207 429.965 231.611 430.664 231.199C431.367 230.786 432.162 230.58 433.05 230.58C433.937 230.58 434.731 230.786 435.43 231.199C436.133 231.611 436.687 232.207 437.093 232.985C437.502 233.761 437.707 234.695 437.707 235.787ZM435.861 235.787C435.861 235.018 435.74 234.37 435.5 233.842C435.262 233.31 434.932 232.91 434.51 232.639C434.087 232.365 433.601 232.228 433.05 232.228C432.499 232.228 432.012 232.365 431.59 232.639C431.167 232.91 430.836 233.31 430.595 233.842C430.357 234.37 430.239 235.018 430.239 235.787C430.239 236.556 430.357 237.206 430.595 237.737C430.836 238.265 431.167 238.666 431.59 238.939C432.012 239.21 432.499 239.345 433.05 239.345C433.601 239.345 434.087 239.21 434.51 238.939C434.932 238.666 435.262 238.265 435.5 237.737C435.74 237.206 435.861 236.556 435.861 235.787ZM439.456 240.855V230.719H441.293V239.316H445.757V240.855H439.456Z" fill="white"/>
</g>
<path d="M24.4659 95.8182V106H23.233V95.8182H24.4659ZM33.8187 106.159C33.1028 106.159 32.4863 105.99 31.9693 105.652C31.4522 105.314 31.0545 104.848 30.7761 104.255C30.4977 103.662 30.3585 102.984 30.3585 102.222C30.3585 101.446 30.501 100.762 30.786 100.168C31.0744 99.5717 31.4754 99.1061 31.9892 98.7713C32.5062 98.4332 33.1094 98.2642 33.7988 98.2642C34.3358 98.2642 34.8197 98.3636 35.2505 98.5625C35.6814 98.7614 36.0344 99.0398 36.3095 99.3977C36.5846 99.7557 36.7553 100.173 36.8216 100.651H35.6483C35.5588 100.303 35.3599 99.9943 35.0517 99.7259C34.7467 99.4541 34.3358 99.3182 33.8187 99.3182C33.3613 99.3182 32.9603 99.4375 32.6156 99.6761C32.2742 99.9115 32.0074 100.245 31.8152 100.675C31.6262 101.103 31.5318 101.605 31.5318 102.182C31.5318 102.772 31.6246 103.286 31.8102 103.723C31.9991 104.161 32.2643 104.5 32.6056 104.742C32.9503 104.984 33.3547 105.105 33.8187 105.105C34.1236 105.105 34.4004 105.052 34.649 104.946C34.8975 104.84 35.108 104.688 35.2804 104.489C35.4527 104.29 35.5753 104.051 35.6483 103.773H36.8216C36.7553 104.223 36.5912 104.629 36.3294 104.991C36.0708 105.349 35.7278 105.634 35.3002 105.846C34.876 106.055 34.3822 106.159 33.8187 106.159ZM41.639 106.159C40.9496 106.159 40.3448 105.995 39.8244 105.667C39.3074 105.339 38.903 104.88 38.6113 104.29C38.323 103.7 38.1788 103.01 38.1788 102.222C38.1788 101.426 38.323 100.732 38.6113 100.138C38.903 99.5452 39.3074 99.0845 39.8244 98.7564C40.3448 98.4283 40.9496 98.2642 41.639 98.2642C42.3284 98.2642 42.9316 98.4283 43.4487 98.7564C43.969 99.0845 44.3734 99.5452 44.6618 100.138C44.9534 100.732 45.0993 101.426 45.0993 102.222C45.0993 103.01 44.9534 103.7 44.6618 104.29C44.3734 104.88 43.969 105.339 43.4487 105.667C42.9316 105.995 42.3284 106.159 41.639 106.159ZM41.639 105.105C42.1627 105.105 42.5936 104.971 42.9316 104.702C43.2697 104.434 43.5199 104.081 43.6824 103.643C43.8448 103.206 43.926 102.732 43.926 102.222C43.926 101.711 43.8448 101.236 43.6824 100.795C43.5199 100.354 43.2697 99.9976 42.9316 99.7259C42.5936 99.4541 42.1627 99.3182 41.639 99.3182C41.1154 99.3182 40.6845 99.4541 40.3464 99.7259C40.0083 99.9976 39.7581 100.354 39.5957 100.795C39.4333 101.236 39.3521 101.711 39.3521 102.222C39.3521 102.732 39.4333 103.206 39.5957 103.643C39.7581 104.081 40.0083 104.434 40.3464 104.702C40.6845 104.971 41.1154 105.105 41.639 105.105ZM48.0636 101.406V106H46.8903V98.3636H48.0238V99.5568H48.1232C48.3022 99.169 48.574 98.8575 48.9386 98.6222C49.3031 98.3835 49.7738 98.2642 50.3505 98.2642C50.8675 98.2642 51.32 98.3703 51.7077 98.5824C52.0955 98.7912 52.3971 99.1094 52.6126 99.5369C52.828 99.9612 52.9357 100.498 52.9357 101.148V106H51.7624V101.227C51.7624 100.627 51.6067 100.16 51.2951 99.8253C50.9835 99.4872 50.556 99.3182 50.0124 99.3182C49.6379 99.3182 49.3031 99.3994 49.0082 99.5618C48.7165 99.7242 48.4862 99.9612 48.3171 100.273C48.1481 100.584 48.0636 100.962 48.0636 101.406ZM60.4888 100.074L59.4348 100.372C59.3685 100.196 59.2708 100.026 59.1415 99.8601C59.0156 99.6911 58.8432 99.5518 58.6245 99.4425C58.4057 99.3331 58.1257 99.2784 57.7843 99.2784C57.3169 99.2784 56.9275 99.3861 56.6159 99.6016C56.3077 99.8137 56.1536 100.084 56.1536 100.412C56.1536 100.704 56.2596 100.934 56.4718 101.103C56.6839 101.272 57.0153 101.413 57.4661 101.526L58.5996 101.804C59.2824 101.97 59.7911 102.223 60.1259 102.565C60.4606 102.903 60.628 103.339 60.628 103.872C60.628 104.31 60.5021 104.701 60.2502 105.045C60.0016 105.39 59.6536 105.662 59.2061 105.861C58.7587 106.06 58.2383 106.159 57.6451 106.159C56.8662 106.159 56.2215 105.99 55.7111 105.652C55.2007 105.314 54.8775 104.82 54.7417 104.17L55.8553 103.892C55.9614 104.303 56.1619 104.611 56.4569 104.817C56.7551 105.022 57.1446 105.125 57.6252 105.125C58.1721 105.125 58.6062 105.009 58.9277 104.777C59.2525 104.542 59.415 104.26 59.415 103.932C59.415 103.667 59.3221 103.445 59.1365 103.266C58.9509 103.083 58.6659 102.947 58.2814 102.858L57.0087 102.56C56.3094 102.394 55.7956 102.137 55.4675 101.789C55.1427 101.438 54.9803 100.999 54.9803 100.472C54.9803 100.041 55.1013 99.6596 55.3432 99.3281C55.5885 98.9967 55.9216 98.7365 56.3425 98.5476C56.7667 98.3587 57.2473 98.2642 57.7843 98.2642C58.54 98.2642 59.1332 98.4299 59.5641 98.7614C59.9983 99.0928 60.3065 99.5303 60.4888 100.074ZM65.7152 98.3636V99.358H61.7578V98.3636H65.7152ZM62.9112 96.5341H64.0845V103.812C64.0845 104.144 64.1326 104.393 64.2287 104.558C64.3281 104.721 64.4541 104.83 64.6065 104.886C64.7623 104.939 64.9264 104.966 65.0987 104.966C65.228 104.966 65.334 104.959 65.4169 104.946C65.4998 104.929 65.5661 104.916 65.6158 104.906L65.8544 105.96C65.7749 105.99 65.6638 106.02 65.5213 106.05C65.3788 106.083 65.1982 106.099 64.9794 106.099C64.648 106.099 64.3232 106.028 64.005 105.886C63.6901 105.743 63.4283 105.526 63.2195 105.234C63.014 104.943 62.9112 104.575 62.9112 104.131V96.5341ZM69.7273 106.179C69.2434 106.179 68.8042 106.088 68.4098 105.906C68.0154 105.72 67.7022 105.453 67.4702 105.105C67.2382 104.754 67.1222 104.33 67.1222 103.832C67.1222 103.395 67.2083 103.04 67.3807 102.768C67.553 102.493 67.7834 102.278 68.0717 102.122C68.3601 101.966 68.6783 101.85 69.0263 101.774C69.3776 101.695 69.7306 101.632 70.0852 101.585C70.5492 101.526 70.9254 101.481 71.2138 101.451C71.5054 101.418 71.7176 101.363 71.8501 101.287C71.986 101.211 72.054 101.078 72.054 100.889V100.849C72.054 100.359 71.9197 99.9777 71.6513 99.706C71.3861 99.4342 70.9834 99.2983 70.4432 99.2983C69.883 99.2983 69.4439 99.4209 69.1257 99.6662C68.8075 99.9115 68.5838 100.173 68.4545 100.452L67.3409 100.054C67.5398 99.59 67.8049 99.2287 68.1364 98.9702C68.4711 98.7083 68.8357 98.526 69.2301 98.4233C69.6278 98.3172 70.0189 98.2642 70.4034 98.2642C70.6487 98.2642 70.9304 98.294 71.2486 98.3537C71.5701 98.41 71.88 98.5277 72.1783 98.7067C72.4799 98.8857 72.7301 99.1558 72.929 99.517C73.1278 99.8783 73.2273 100.362 73.2273 100.969V106H72.054V104.966H71.9943C71.9148 105.132 71.7822 105.309 71.5966 105.498C71.411 105.687 71.1641 105.848 70.8558 105.98C70.5476 106.113 70.1714 106.179 69.7273 106.179ZM69.9062 105.125C70.3703 105.125 70.7614 105.034 71.0795 104.852C71.401 104.669 71.643 104.434 71.8054 104.146C71.9711 103.857 72.054 103.554 72.054 103.236V102.162C72.0043 102.222 71.8949 102.276 71.7259 102.326C71.5601 102.372 71.3679 102.414 71.1491 102.45C70.9337 102.483 70.7232 102.513 70.5178 102.54C70.3156 102.563 70.1515 102.583 70.0256 102.599C69.7206 102.639 69.4356 102.704 69.1705 102.793C68.9086 102.879 68.6965 103.01 68.5341 103.186C68.375 103.358 68.2955 103.594 68.2955 103.892C68.2955 104.3 68.4463 104.608 68.7479 104.817C69.0528 105.022 69.4389 105.125 69.9062 105.125ZM76.5421 101.406V106H75.3688V98.3636H76.5023V99.5568H76.6017C76.7807 99.169 77.0525 98.8575 77.4171 98.6222C77.7817 98.3835 78.2523 98.2642 78.829 98.2642C79.3461 98.2642 79.7985 98.3703 80.1863 98.5824C80.574 98.7912 80.8757 99.1094 81.0911 99.5369C81.3065 99.9612 81.4142 100.498 81.4142 101.148V106H80.2409V101.227C80.2409 100.627 80.0852 100.16 79.7736 99.8253C79.4621 99.4872 79.0345 99.3182 78.4909 99.3182C78.1164 99.3182 77.7817 99.3994 77.4867 99.5618C77.195 99.7242 76.9647 99.9612 76.7956 100.273C76.6266 100.584 76.5421 100.962 76.5421 101.406ZM86.8793 98.3636V99.358H82.9219V98.3636H86.8793ZM84.0753 96.5341H85.2486V103.812C85.2486 104.144 85.2966 104.393 85.3928 104.558C85.4922 104.721 85.6181 104.83 85.7706 104.886C85.9264 104.939 86.0904 104.966 86.2628 104.966C86.392 104.966 86.4981 104.959 86.581 104.946C86.6638 104.929 86.7301 104.916 86.7798 104.906L87.0185 105.96C86.9389 105.99 86.8279 106.02 86.6854 106.05C86.5429 106.083 86.3622 106.099 86.1435 106.099C85.812 106.099 85.4872 106.028 85.169 105.886C84.8542 105.743 84.5923 105.526 84.3835 105.234C84.178 104.943 84.0753 104.575 84.0753 104.131V96.5341ZM89.9815 95.8182V106H88.8082V95.8182H89.9815ZM92.8862 108.864C92.6873 108.864 92.51 108.847 92.3542 108.814C92.1984 108.784 92.0907 108.754 92.0311 108.724L92.3294 107.69C92.6144 107.763 92.8663 107.79 93.085 107.77C93.3038 107.75 93.4977 107.652 93.6667 107.477C93.8391 107.304 93.9965 107.024 94.139 106.636L94.3578 106.04L91.5339 98.3636H92.8066L94.9146 104.449H94.9941L97.1021 98.3636H98.3748L95.1333 107.114C94.9875 107.508 94.8069 107.835 94.5914 108.093C94.376 108.355 94.1258 108.549 93.8407 108.675C93.559 108.801 93.2408 108.864 92.8862 108.864ZM107.182 98.3636V99.358H103.225V98.3636H107.182ZM104.378 96.5341H105.551V103.812C105.551 104.144 105.599 104.393 105.695 104.558C105.795 104.721 105.921 104.83 106.073 104.886C106.229 104.939 106.393 104.966 106.566 104.966C106.695 104.966 106.801 104.959 106.884 104.946C106.967 104.929 107.033 104.916 107.083 104.906L107.321 105.96C107.242 105.99 107.131 106.02 106.988 106.05C106.846 106.083 106.665 106.099 106.446 106.099C106.115 106.099 105.79 106.028 105.472 105.886C105.157 105.743 104.895 105.526 104.686 105.234C104.481 104.943 104.378 104.575 104.378 104.131V96.5341ZM108.947 106V98.3636H110.08V99.517H110.16C110.299 99.1392 110.551 98.8326 110.916 98.5973C111.28 98.362 111.691 98.2443 112.149 98.2443C112.235 98.2443 112.343 98.246 112.472 98.2493C112.601 98.2526 112.699 98.2576 112.765 98.2642V99.4574C112.725 99.4474 112.634 99.4325 112.492 99.4126C112.352 99.3894 112.205 99.3778 112.049 99.3778C111.678 99.3778 111.347 99.4557 111.055 99.6115C110.767 99.764 110.538 99.9761 110.369 100.248C110.203 100.516 110.12 100.823 110.12 101.168V106H108.947ZM115.144 108.864C114.945 108.864 114.768 108.847 114.612 108.814C114.456 108.784 114.349 108.754 114.289 108.724L114.587 107.69C114.872 107.763 115.124 107.79 115.343 107.77C115.562 107.75 115.756 107.652 115.925 107.477C116.097 107.304 116.254 107.024 116.397 106.636L116.616 106.04L113.792 98.3636H115.064L117.172 104.449H117.252L119.36 98.3636H120.633L117.391 107.114C117.245 107.508 117.065 107.835 116.849 108.093C116.634 108.355 116.384 108.549 116.099 108.675C115.817 108.801 115.499 108.864 115.144 108.864ZM129.44 98.3636V99.358H125.482V98.3636H129.44ZM126.636 96.5341H127.809V103.812C127.809 104.144 127.857 104.393 127.953 104.558C128.053 104.721 128.179 104.83 128.331 104.886C128.487 104.939 128.651 104.966 128.823 104.966C128.953 104.966 129.059 104.959 129.142 104.946C129.224 104.929 129.291 104.916 129.34 104.906L129.579 105.96C129.499 105.99 129.388 106.02 129.246 106.05C129.103 106.083 128.923 106.099 128.704 106.099C128.373 106.099 128.048 106.028 127.73 105.886C127.415 105.743 127.153 105.526 126.944 105.234C126.739 104.943 126.636 104.575 126.636 104.131V96.5341ZM134.225 106.159C133.536 106.159 132.931 105.995 132.41 105.667C131.893 105.339 131.489 104.88 131.197 104.29C130.909 103.7 130.765 103.01 130.765 102.222C130.765 101.426 130.909 100.732 131.197 100.138C131.489 99.5452 131.893 99.0845 132.41 98.7564C132.931 98.4283 133.536 98.2642 134.225 98.2642C134.914 98.2642 135.518 98.4283 136.035 98.7564C136.555 99.0845 136.959 99.5452 137.248 100.138C137.539 100.732 137.685 101.426 137.685 102.222C137.685 103.01 137.539 103.7 137.248 104.29C136.959 104.88 136.555 105.339 136.035 105.667C135.518 105.995 134.914 106.159 134.225 106.159ZM134.225 105.105C134.749 105.105 135.18 104.971 135.518 104.702C135.856 104.434 136.106 104.081 136.268 103.643C136.431 103.206 136.512 102.732 136.512 102.222C136.512 101.711 136.431 101.236 136.268 100.795C136.106 100.354 135.856 99.9976 135.518 99.7259C135.18 99.4541 134.749 99.3182 134.225 99.3182C133.701 99.3182 133.27 99.4541 132.932 99.7259C132.594 99.9976 132.344 100.354 132.182 100.795C132.019 101.236 131.938 101.711 131.938 102.222C131.938 102.732 132.019 103.206 132.182 103.643C132.344 104.081 132.594 104.434 132.932 104.702C133.27 104.971 133.701 105.105 134.225 105.105ZM143.414 106V98.3636H144.587V106H143.414ZM144.01 97.0909C143.782 97.0909 143.584 97.013 143.419 96.8572C143.256 96.7015 143.175 96.5142 143.175 96.2955C143.175 96.0767 143.256 95.8894 143.419 95.7337C143.584 95.5779 143.782 95.5 144.01 95.5C144.239 95.5 144.435 95.5779 144.597 95.7337C144.763 95.8894 144.846 96.0767 144.846 96.2955C144.846 96.5142 144.763 96.7015 144.597 96.8572C144.435 97.013 144.239 97.0909 144.01 97.0909ZM146.736 106V98.3636H147.869V99.5568H147.969C148.128 99.1491 148.385 98.8326 148.74 98.6072C149.094 98.3786 149.52 98.2642 150.017 98.2642C150.521 98.2642 150.94 98.3786 151.275 98.6072C151.613 98.8326 151.877 99.1491 152.066 99.5568H152.145C152.341 99.1624 152.634 98.8492 153.025 98.6172C153.416 98.3819 153.885 98.2642 154.432 98.2642C155.115 98.2642 155.673 98.478 156.107 98.9055C156.542 99.3298 156.759 99.991 156.759 100.889V106H155.585V100.889C155.585 100.326 155.431 99.9231 155.123 99.6811C154.815 99.4392 154.452 99.3182 154.034 99.3182C153.497 99.3182 153.081 99.4806 152.786 99.8054C152.491 100.127 152.344 100.535 152.344 101.028V106H151.151V100.77C151.151 100.336 151.01 99.986 150.728 99.7209C150.446 99.4524 150.084 99.3182 149.639 99.3182C149.334 99.3182 149.049 99.3994 148.784 99.5618C148.522 99.7242 148.31 99.9496 148.148 100.238C147.989 100.523 147.909 100.853 147.909 101.227V106H146.736ZM158.904 108.864V98.3636H160.037V99.5767H160.177C160.263 99.4441 160.382 99.2751 160.535 99.0696C160.69 98.8608 160.912 98.6752 161.201 98.5128C161.492 98.3471 161.887 98.2642 162.384 98.2642C163.027 98.2642 163.594 98.425 164.084 98.7464C164.575 99.0679 164.958 99.5237 165.233 100.114C165.508 100.704 165.645 101.4 165.645 102.202C165.645 103.01 165.508 103.711 165.233 104.305C164.958 104.895 164.577 105.352 164.089 105.677C163.602 105.998 163.04 106.159 162.404 106.159C161.913 106.159 161.521 106.078 161.226 105.915C160.931 105.75 160.704 105.562 160.545 105.354C160.385 105.142 160.263 104.966 160.177 104.827H160.077V108.864H158.904ZM160.057 102.182C160.057 102.759 160.142 103.267 160.311 103.708C160.48 104.146 160.727 104.489 161.052 104.737C161.376 104.982 161.774 105.105 162.245 105.105C162.735 105.105 163.145 104.976 163.473 104.717C163.804 104.455 164.053 104.104 164.219 103.663C164.388 103.219 164.472 102.725 164.472 102.182C164.472 101.645 164.389 101.161 164.224 100.73C164.061 100.296 163.814 99.9529 163.483 99.701C163.155 99.4458 162.742 99.3182 162.245 99.3182C161.768 99.3182 161.367 99.4392 161.042 99.6811C160.717 99.9197 160.472 100.254 160.306 100.685C160.14 101.113 160.057 101.612 160.057 102.182ZM167.435 106V98.3636H168.569V99.517H168.648C168.787 99.1392 169.039 98.8326 169.404 98.5973C169.769 98.362 170.18 98.2443 170.637 98.2443C170.723 98.2443 170.831 98.246 170.96 98.2493C171.089 98.2526 171.187 98.2576 171.253 98.2642V99.4574C171.214 99.4474 171.122 99.4325 170.98 99.4126C170.841 99.3894 170.693 99.3778 170.537 99.3778C170.166 99.3778 169.835 99.4557 169.543 99.6115C169.255 99.764 169.026 99.9761 168.857 100.248C168.691 100.516 168.608 100.823 168.608 101.168V106H167.435ZM175.514 106.159C174.825 106.159 174.22 105.995 173.699 105.667C173.182 105.339 172.778 104.88 172.486 104.29C172.198 103.7 172.054 103.01 172.054 102.222C172.054 101.426 172.198 100.732 172.486 100.138C172.778 99.5452 173.182 99.0845 173.699 98.7564C174.22 98.4283 174.825 98.2642 175.514 98.2642C176.203 98.2642 176.807 98.4283 177.324 98.7564C177.844 99.0845 178.248 99.5452 178.537 100.138C178.828 100.732 178.974 101.426 178.974 102.222C178.974 103.01 178.828 103.7 178.537 104.29C178.248 104.88 177.844 105.339 177.324 105.667C176.807 105.995 176.203 106.159 175.514 106.159ZM175.514 105.105C176.038 105.105 176.469 104.971 176.807 104.702C177.145 104.434 177.395 104.081 177.557 103.643C177.72 103.206 177.801 102.732 177.801 102.222C177.801 101.711 177.72 101.236 177.557 100.795C177.395 100.354 177.145 99.9976 176.807 99.7259C176.469 99.4541 176.038 99.3182 175.514 99.3182C174.99 99.3182 174.559 99.4541 174.221 99.7259C173.883 99.9976 173.633 100.354 173.471 100.795C173.308 101.236 173.227 101.711 173.227 102.222C173.227 102.732 173.308 103.206 173.471 103.643C173.633 104.081 173.883 104.434 174.221 104.702C174.559 104.971 174.99 105.105 175.514 105.105ZM186.736 98.3636L183.912 106H182.719L179.895 98.3636H181.168L183.276 104.449H183.355L185.463 98.3636H186.736ZM191.213 106.159C190.477 106.159 189.843 105.997 189.309 105.672C188.779 105.344 188.369 104.886 188.081 104.3C187.796 103.71 187.653 103.024 187.653 102.241C187.653 101.459 187.796 100.77 188.081 100.173C188.369 99.5734 188.77 99.1061 189.284 98.7713C189.801 98.4332 190.404 98.2642 191.094 98.2642C191.491 98.2642 191.884 98.3305 192.272 98.4631C192.66 98.5956 193.013 98.8111 193.331 99.1094C193.649 99.4044 193.903 99.7955 194.092 100.283C194.281 100.77 194.375 101.37 194.375 102.082V102.58H188.489V101.565H193.182C193.182 101.134 193.096 100.75 192.923 100.412C192.754 100.074 192.512 99.8071 192.197 99.6115C191.886 99.416 191.518 99.3182 191.094 99.3182C190.626 99.3182 190.222 99.4342 189.881 99.6662C189.543 99.8949 189.282 100.193 189.1 100.561C188.918 100.929 188.827 101.323 188.827 101.744V102.42C188.827 102.997 188.926 103.486 189.125 103.887C189.327 104.285 189.607 104.588 189.965 104.797C190.323 105.002 190.739 105.105 191.213 105.105C191.521 105.105 191.8 105.062 192.048 104.976C192.3 104.886 192.517 104.754 192.7 104.578C192.882 104.399 193.023 104.177 193.122 103.912L194.256 104.23C194.136 104.615 193.936 104.953 193.654 105.244C193.372 105.533 193.024 105.758 192.61 105.92C192.196 106.08 191.73 106.159 191.213 106.159Z" fill="#C1C2D3"/>
<path d="M24.0227 126.727H30.0909L36.5 142.364H36.7727L43.1818 126.727H49.25V150H44.4773V134.852H44.2841L38.2614 149.886H35.0114L28.9886 134.795H28.7955V150H24.0227V126.727ZM55.8817 156.545C55.2681 156.545 54.6923 156.496 54.1544 156.398C53.6241 156.307 53.1847 156.189 52.8363 156.045L53.9272 152.432C54.4953 152.606 55.0067 152.701 55.4613 152.716C55.9234 152.731 56.3211 152.625 56.6544 152.398C56.9953 152.17 57.2719 151.784 57.484 151.239L57.7681 150.5L51.5067 132.545H56.5976L60.2113 145.364H60.3931L64.0408 132.545H69.1658L62.3817 151.886C62.0559 152.826 61.6128 153.644 61.0522 154.341C60.4991 155.045 59.7984 155.587 58.9499 155.966C58.1014 156.352 57.0787 156.545 55.8817 156.545ZM87.6934 132.545V136.182H77.182V132.545H87.6934ZM79.5684 128.364H84.4093V144.636C84.4093 145.083 84.4775 145.432 84.6139 145.682C84.7502 145.924 84.9396 146.095 85.182 146.193C85.432 146.292 85.7199 146.341 86.0457 146.341C86.273 146.341 86.5002 146.322 86.7275 146.284C86.9548 146.239 87.129 146.205 87.2502 146.182L88.0116 149.784C87.7692 149.86 87.4283 149.947 86.9889 150.045C86.5495 150.152 86.0154 150.216 85.3866 150.239C84.2199 150.284 83.1972 150.129 82.3184 149.773C81.4472 149.417 80.7692 148.864 80.2843 148.114C79.7995 147.364 79.5608 146.417 79.5684 145.273V128.364ZM98.2939 150.341C96.4984 150.341 94.953 149.977 93.6575 149.25C92.3696 148.515 91.3772 147.477 90.6802 146.136C89.9833 144.788 89.6348 143.193 89.6348 141.352C89.6348 139.557 89.9833 137.981 90.6802 136.625C91.3772 135.269 92.3583 134.212 93.6234 133.455C94.8961 132.697 96.3886 132.318 98.1007 132.318C99.2522 132.318 100.324 132.504 101.317 132.875C102.317 133.239 103.188 133.788 103.93 134.523C104.68 135.258 105.264 136.182 105.68 137.295C106.097 138.402 106.305 139.697 106.305 141.182V142.511H91.5666V139.511H101.748C101.748 138.814 101.597 138.197 101.294 137.659C100.991 137.121 100.57 136.701 100.033 136.398C99.5022 136.087 98.8848 135.932 98.1802 135.932C97.4454 135.932 96.7939 136.102 96.2257 136.443C95.6651 136.777 95.2257 137.227 94.9075 137.795C94.5893 138.356 94.4264 138.981 94.4189 139.67V142.523C94.4189 143.386 94.578 144.133 94.8961 144.761C95.2219 145.39 95.6802 145.875 96.2711 146.216C96.862 146.557 97.5628 146.727 98.3734 146.727C98.9113 146.727 99.4037 146.652 99.8507 146.5C100.298 146.348 100.68 146.121 100.998 145.818C101.317 145.515 101.559 145.144 101.726 144.705L106.203 145C105.976 146.076 105.51 147.015 104.805 147.818C104.108 148.614 103.207 149.235 102.101 149.682C101.002 150.121 99.7333 150.341 98.2939 150.341ZM117.031 150.341C115.243 150.341 113.705 149.962 112.417 149.205C111.137 148.439 110.152 147.379 109.463 146.023C108.781 144.667 108.44 143.106 108.44 141.341C108.44 139.553 108.784 137.985 109.474 136.636C110.171 135.28 111.159 134.223 112.44 133.466C113.72 132.701 115.243 132.318 117.008 132.318C118.531 132.318 119.864 132.595 121.008 133.148C122.152 133.701 123.057 134.477 123.724 135.477C124.391 136.477 124.758 137.652 124.826 139H120.258C120.129 138.129 119.788 137.428 119.235 136.898C118.69 136.36 117.974 136.091 117.088 136.091C116.338 136.091 115.682 136.295 115.122 136.705C114.569 137.106 114.137 137.693 113.826 138.466C113.516 139.239 113.36 140.174 113.36 141.273C113.36 142.386 113.512 143.333 113.815 144.114C114.125 144.894 114.561 145.489 115.122 145.898C115.682 146.307 116.338 146.511 117.088 146.511C117.641 146.511 118.137 146.398 118.576 146.17C119.023 145.943 119.391 145.614 119.678 145.182C119.974 144.742 120.167 144.216 120.258 143.602H124.826C124.75 144.936 124.387 146.11 123.735 147.125C123.091 148.133 122.201 148.92 121.065 149.489C119.928 150.057 118.584 150.341 117.031 150.341ZM132.446 139.909V150H127.606V126.727H132.31V135.625H132.515C132.909 134.595 133.545 133.788 134.424 133.205C135.303 132.614 136.405 132.318 137.731 132.318C138.943 132.318 140 132.583 140.901 133.114C141.81 133.636 142.515 134.39 143.015 135.375C143.522 136.352 143.772 137.523 143.765 138.886V150H138.924V139.75C138.931 138.674 138.659 137.837 138.106 137.239C137.56 136.64 136.795 136.341 135.81 136.341C135.151 136.341 134.568 136.481 134.06 136.761C133.56 137.042 133.166 137.451 132.878 137.989C132.598 138.519 132.454 139.159 132.446 139.909ZM168.863 137.523L164.431 137.795C164.356 137.417 164.193 137.076 163.943 136.773C163.693 136.462 163.363 136.216 162.954 136.034C162.553 135.845 162.072 135.75 161.511 135.75C160.761 135.75 160.128 135.909 159.613 136.227C159.098 136.538 158.841 136.955 158.841 137.477C158.841 137.894 159.007 138.246 159.341 138.534C159.674 138.822 160.246 139.053 161.056 139.227L164.216 139.864C165.913 140.212 167.178 140.773 168.011 141.545C168.844 142.318 169.261 143.333 169.261 144.591C169.261 145.735 168.924 146.739 168.25 147.602C167.583 148.466 166.666 149.14 165.5 149.625C164.341 150.102 163.003 150.341 161.488 150.341C159.178 150.341 157.337 149.86 155.966 148.898C154.602 147.928 153.803 146.61 153.568 144.943L158.329 144.693C158.473 145.398 158.822 145.936 159.375 146.307C159.928 146.67 160.636 146.852 161.5 146.852C162.348 146.852 163.03 146.689 163.545 146.364C164.068 146.03 164.333 145.602 164.341 145.08C164.333 144.64 164.147 144.28 163.784 144C163.42 143.712 162.86 143.492 162.102 143.341L159.079 142.739C157.375 142.398 156.106 141.807 155.272 140.966C154.447 140.125 154.034 139.053 154.034 137.75C154.034 136.629 154.337 135.663 154.943 134.852C155.556 134.042 156.416 133.417 157.522 132.977C158.636 132.538 159.939 132.318 161.431 132.318C163.636 132.318 165.371 132.784 166.636 133.716C167.909 134.648 168.651 135.917 168.863 137.523ZM181.273 132.545V136.182H170.762V132.545H181.273ZM173.148 128.364H177.989V144.636C177.989 145.083 178.057 145.432 178.194 145.682C178.33 145.924 178.52 146.095 178.762 146.193C179.012 146.292 179.3 146.341 179.626 146.341C179.853 146.341 180.08 146.322 180.307 146.284C180.535 146.239 180.709 146.205 180.83 146.182L181.592 149.784C181.349 149.86 181.008 149.947 180.569 150.045C180.129 150.152 179.595 150.216 178.967 150.239C177.8 150.284 176.777 150.129 175.898 149.773C175.027 149.417 174.349 148.864 173.864 148.114C173.379 147.364 173.141 146.417 173.148 145.273V128.364ZM189.084 150.33C187.97 150.33 186.978 150.136 186.107 149.75C185.236 149.356 184.546 148.777 184.039 148.011C183.539 147.239 183.289 146.277 183.289 145.125C183.289 144.155 183.467 143.341 183.823 142.682C184.179 142.023 184.664 141.492 185.277 141.091C185.891 140.689 186.588 140.386 187.368 140.182C188.156 139.977 188.982 139.833 189.845 139.75C190.861 139.644 191.679 139.545 192.3 139.455C192.921 139.356 193.372 139.212 193.652 139.023C193.933 138.833 194.073 138.553 194.073 138.182V138.114C194.073 137.394 193.845 136.837 193.391 136.443C192.944 136.049 192.308 135.852 191.482 135.852C190.611 135.852 189.917 136.045 189.402 136.432C188.887 136.811 188.546 137.288 188.38 137.864L183.902 137.5C184.13 136.439 184.577 135.523 185.243 134.75C185.91 133.97 186.77 133.371 187.823 132.955C188.883 132.53 190.111 132.318 191.505 132.318C192.474 132.318 193.402 132.432 194.289 132.659C195.183 132.886 195.974 133.239 196.664 133.716C197.361 134.193 197.91 134.807 198.311 135.557C198.713 136.299 198.914 137.189 198.914 138.227V150H194.323V147.58H194.186C193.906 148.125 193.531 148.606 193.061 149.023C192.592 149.432 192.027 149.754 191.368 149.989C190.709 150.216 189.948 150.33 189.084 150.33ZM190.47 146.989C191.183 146.989 191.811 146.848 192.357 146.568C192.902 146.28 193.33 145.894 193.641 145.409C193.952 144.924 194.107 144.375 194.107 143.761V141.909C193.955 142.008 193.747 142.098 193.482 142.182C193.224 142.258 192.933 142.33 192.607 142.398C192.281 142.458 191.955 142.515 191.63 142.568C191.304 142.614 191.008 142.655 190.743 142.693C190.175 142.777 189.679 142.909 189.255 143.091C188.83 143.273 188.501 143.519 188.266 143.83C188.031 144.133 187.914 144.511 187.914 144.966C187.914 145.625 188.152 146.129 188.63 146.477C189.114 146.818 189.728 146.989 190.47 146.989ZM210.236 150.341C208.448 150.341 206.91 149.962 205.622 149.205C204.342 148.439 203.357 147.379 202.667 146.023C201.986 144.667 201.645 143.106 201.645 141.341C201.645 139.553 201.989 137.985 202.679 136.636C203.376 135.28 204.364 134.223 205.645 133.466C206.925 132.701 208.448 132.318 210.213 132.318C211.736 132.318 213.069 132.595 214.213 133.148C215.357 133.701 216.262 134.477 216.929 135.477C217.596 136.477 217.963 137.652 218.031 139H213.463C213.334 138.129 212.993 137.428 212.44 136.898C211.895 136.36 211.179 136.091 210.292 136.091C209.542 136.091 208.887 136.295 208.327 136.705C207.774 137.106 207.342 137.693 207.031 138.466C206.721 139.239 206.565 140.174 206.565 141.273C206.565 142.386 206.717 143.333 207.02 144.114C207.33 144.894 207.766 145.489 208.327 145.898C208.887 146.307 209.542 146.511 210.292 146.511C210.846 146.511 211.342 146.398 211.781 146.17C212.228 145.943 212.596 145.614 212.883 145.182C213.179 144.742 213.372 144.216 213.463 143.602H218.031C217.955 144.936 217.592 146.11 216.94 147.125C216.296 148.133 215.406 148.92 214.27 149.489C213.133 150.057 211.789 150.341 210.236 150.341ZM225.197 144.977L225.208 139.17H225.913L231.504 132.545H237.061L229.549 141.318H228.401L225.197 144.977ZM220.811 150V126.727H225.651V150H220.811ZM231.72 150L226.583 142.398L229.811 138.977L237.39 150H231.72Z" fill="white"/>
</g>
<rect x="0.5" y="1" width="522" height="256.5" rx="23.5" stroke="url(#paint1_linear_2001_3900)"/>
<defs>
<linearGradient id="paint0_linear_2001_3900" x1="108.452" y1="1.5" x2="447.502" y2="166.172" gradientUnits="userSpaceOnUse">
<stop stop-color="#04071D"/>
<stop offset="1" stop-color="#0C0E23"/>
</linearGradient>
<linearGradient id="paint1_linear_2001_3900" x1="261.5" y1="1.5" x2="261.5" y2="257" gradientUnits="userSpaceOnUse">
<stop stop-color="#363749" stop-opacity="0.43"/>
<stop offset="1" stop-color="#363749" stop-opacity="0.49"/>
</linearGradient>
<clipPath id="clip0_2001_3900">
<rect x="1" y="1.5" width="521" height="255.5" rx="23" fill="white"/>
</clipPath>
<clipPath id="clip1_2001_3900">
<rect width="140.175" height="295.006" fill="white" transform="translate(212.375 -18.2529)"/>
</clipPath>
<clipPath id="clip2_2001_3900">
<rect width="140.175" height="295.006" fill="white" transform="translate(362.197 -18.2529)"/>
</clipPath>
</defs>
</svg>
