<svg id="visual" viewBox="0 0 900 600" width="900" height="600" xmlns="http://www.w3.org/2000/svg" xmlns:xlink="http://www.w3.org/1999/xlink" version="1.1"><path d="M0 417L21.5 416C43 415 86 413 128.8 406.2C171.7 399.3 214.3 387.7 257.2 393.3C300 399 343 422 385.8 421.2C428.7 420.3 471.3 395.7 514.2 395.5C557 395.3 600 419.7 642.8 421C685.7 422.3 728.3 400.7 771.2 395.3C814 390 857 401 878.5 406.5L900 412L900 601L878.5 601C857 601 814 601 771.2 601C728.3 601 685.7 601 642.8 601C600 601 557 601 514.2 601C471.3 601 428.7 601 385.8 601C343 601 300 601 257.2 601C214.3 601 171.7 601 128.8 601C86 601 43 601 21.5 601L0 601Z" fill="#1b1448"></path><path d="M0 396L21.5 406C43 416 86 436 128.8 441.3C171.7 446.7 214.3 437.3 257.2 429C300 420.7 343 413.3 385.8 421.7C428.7 430 471.3 454 514.2 455.8C557 457.7 600 437.3 642.8 434.5C685.7 431.7 728.3 446.3 771.2 445.3C814 444.3 857 427.7 878.5 419.3L900 411L900 601L878.5 601C857 601 814 601 771.2 601C728.3 601 685.7 601 642.8 601C600 601 557 601 514.2 601C471.3 601 428.7 601 385.8 601C343 601 300 601 257.2 601C214.3 601 171.7 601 128.8 601C86 601 43 601 21.5 601L0 601Z" fill="#221657"></path><path d="M0 496L21.5 494.2C43 492.3 86 488.7 128.8 485.2C171.7 481.7 214.3 478.3 257.2 475.5C300 472.7 343 470.3 385.8 468C428.7 465.7 471.3 463.3 514.2 459C557 454.7 600 448.3 642.8 450C685.7 451.7 728.3 461.3 771.2 465.3C814 469.3 857 467.7 878.5 466.8L900 466L900 601L878.5 601C857 601 814 601 771.2 601C728.3 601 685.7 601 642.8 601C600 601 557 601 514.2 601C471.3 601 428.7 601 385.8 601C343 601 300 601 257.2 601C214.3 601 171.7 601 128.8 601C86 601 43 601 21.5 601L0 601Z" fill="#2b1765"></path><path d="M0 482L21.5 487.2C43 492.3 86 502.7 128.8 503.3C171.7 504 214.3 495 257.2 489.7C300 484.3 343 482.7 385.8 489.3C428.7 496 471.3 511 514.2 511.2C557 511.3 600 496.7 642.8 497.7C685.7 498.7 728.3 515.3 771.2 519.8C814 524.3 857 516.7 878.5 512.8L900 509L900 601L878.5 601C857 601 814 601 771.2 601C728.3 601 685.7 601 642.8 601C600 601 557 601 514.2 601C471.3 601 428.7 601 385.8 601C343 601 300 601 257.2 601C214.3 601 171.7 601 128.8 601C86 601 43 601 21.5 601L0 601Z" fill="#351773"></path><path d="M0 525L21.5 527.2C43 529.3 86 533.7 128.8 537.5C171.7 541.3 214.3 544.7 257.2 548.5C300 552.3 343 556.7 385.8 554.2C428.7 551.7 471.3 542.3 514.2 541C557 539.7 600 546.3 642.8 546.2C685.7 546 728.3 539 771.2 536.5C814 534 857 536 878.5 537L900 538L900 601L878.5 601C857 601 814 601 771.2 601C728.3 601 685.7 601 642.8 601C600 601 557 601 514.2 601C471.3 601 428.7 601 385.8 601C343 601 300 601 257.2 601C214.3 601 171.7 601 128.8 601C86 601 43 601 21.5 601L0 601Z" fill="#411681"></path></svg>